<?xml version="1.0" encoding="UTF-8" standalone="no"?>
<svg
   width="1280"
   height="225.00002"
   viewBox="0 0 1280 225.00002"
   fill="none"
   version="1.1"
   id="svg46"
   xml:space="preserve"
   xmlns="http://www.w3.org/2000/svg"
   xmlns:svg="http://www.w3.org/2000/svg"><g
     clip-path="url(#clip0_2671_3971)"
     id="g30"><path
       d="M 0,20 C 0,8.9543 8.95431,0 20,0 h 1240 c 11.05,0 20,8.95431 20,20 v 185 c 0,11.046 -8.95,20 -20,20 H 20 C 8.95431,225 0,216.046 0,205 Z"
       fill="#0f1832"
       id="path1" /><g
       filter="url(#filter0_f_2671_3971)"
       id="g2"><path
         d="M 1062.46,53.6321 C 670.717,-179.405 333.235,-43.4902 213.463,53.5969 183.817,175.462 464.053,266.45 607.877,296.712 922.634,312.784 1454.21,286.669 1062.46,53.6321 Z"
         fill="#0231ff"
         fill-opacity="0.7"
         id="path2" /></g><g
       filter="url(#filter1_f_2671_3971)"
       id="g3"><path
         d="m 922.306,350.119 c -144.776,142.979 -91.2,336.255 -46.314,415.021 0,129.545 448.568,98.358 628.678,0 180.11,-98.357 104.64,-243.495 110.64,-415.021 4.81,-137.221 -191.83,-181.921 -290.75,-187.119 -73.76,2.799 -257.48,44.141 -402.254,187.119 z"
         fill="#6c01db"
         id="path3" /></g><path
       d="m -863.165,-544.181 c 3.51,-33.719 39.923,-53.273 69.971,-37.572 L 1716.64,729.65 c 34.15,17.839 34.42,66.606 0.48,84.831 L -1085.92,2319.65 c -33.94,18.23 -74.44,-8.94 -70.45,-47.26 z"
       fill="#6f5ac8"
       fill-opacity="0.1"
       id="path4" /><path
       d="m -863.165,-624.181 c 3.51,-33.719 39.923,-53.273 69.971,-37.572 L 1716.64,649.65 c 34.15,17.839 34.42,66.606 0.48,84.831 L -1085.92,2239.65 c -33.94,18.23 -74.44,-8.94 -70.45,-47.26 z"
       fill="#6f5ac8"
       fill-opacity="0.1"
       id="path5" /><path
       d="m -863.165,-700.181 c 3.51,-33.719 39.923,-53.273 69.971,-37.572 L 1716.64,573.65 c 34.15,17.839 34.42,66.606 0.48,84.831 L -1085.92,2163.65 c -33.94,18.23 -74.44,-8.94 -70.45,-47.26 z"
       fill="#6f5ac8"
       fill-opacity="0.1"
       id="path6" /><path
       d="m -863.165,-775.181 c 3.51,-33.719 39.923,-53.273 69.971,-37.572 L 1716.64,498.65 c 34.15,17.839 34.42,66.606 0.48,84.831 L -1085.92,2088.65 c -33.94,18.23 -74.44,-8.94 -70.45,-47.26 z"
       fill="#6f5ac8"
       fill-opacity="0.1"
       id="path7" /><path
       d="m -863.165,-850.181 c 3.51,-33.719 39.923,-53.273 69.971,-37.572 L 1716.64,423.65 c 34.15,17.839 34.42,66.606 0.48,84.831 L -1085.92,2013.65 c -33.94,18.23 -74.44,-8.94 -70.45,-47.26 z"
       fill="#6f5ac8"
       fill-opacity="0.1"
       id="path8" /><path
       d="m -724.802,-850.181 c 3.511,-33.719 39.924,-53.273 69.971,-37.572 L 1855.01,423.65 c 34.14,17.839 34.41,66.606 0.48,84.831 L -947.554,2013.65 c -33.939,18.23 -74.436,-8.94 -70.446,-47.26 z"
       fill="#6f5ac8"
       fill-opacity="0.1"
       id="path9" /><g
       filter="url(#filter2_f_2671_3971)"
       id="g9"><circle
         cx="-183"
         cy="-183"
         r="367"
         fill="#031150"
         id="circle9" /></g><g
       clip-path="url(#clip4_2671_3971)"
       id="g29"><path
         d="m 1040.13,46.1648 c -1.15,-2.6182 -3.38,-1.2364 -4.73,0.5818 l -1.91,3.3091 12.69,21.9454 h 8.82 z"
         fill="url(#paint0_linear_2671_3971)"
         id="path15"
         style="fill:url(#paint0_linear_2671_3971)" /><path
         d="m 1024.13,42.8177 c -2.13,-2.5818 -6.26,-3.5272 -9.35,-2.0363 -1.49,0.6909 -2.73,1.7636 -3.6,3.2545 0,0.0182 -16.18,27.9637 -16.18,27.9637 h 9.05 l 14.04,-23.9819 1.16,-2.0182 c 0.22,-0.3636 2.68,-4.4909 4.88,-3.1818 z"
         fill="url(#paint1_linear_2671_3971)"
         id="path16"
         style="fill:url(#paint1_linear_2671_3971)" /><path
         d="m 1013.84,67.4736 c 0.49,0.7818 4.27,7.6546 4.83,8.1273 2.29,1 3.86,-2.8546 4.82,-4.3636 l -5.85,-10.1455 z"
         fill="url(#paint2_linear_2671_3971)"
         id="path17"
         style="fill:url(#paint2_linear_2671_3971)" /><path
         d="m 1031.96,61.0918 -6.63,11.5091 c 0,0 -2.86,6.0909 -5.46,4.9454 1.44,1.6182 3.57,2.5273 5.73,2.4546 2.49,-0.1091 4.78,-1.4546 6.05,-3.6546 l 4.62,-8.0181 c -0.05,-0.0909 -4.25,-7.1637 -4.31,-7.2364 z"
         fill="url(#paint3_linear_2671_3971)"
         id="path18"
         style="fill:url(#paint3_linear_2671_3971)" /><path
         d="m 1037.8,42.6002 c -2.33,-2.7091 -6.56,-3.4182 -9.62,-1.5637 -2.89,1.4546 -5.78,8.5091 -7.56,11.091 0.03,0.0727 4.42,7.6363 4.45,7.709 1.64,-2.8363 5.38,-9.3272 6.98,-12.0909 1.11,-1.8181 3.02,-6.4545 5.75,-5.1454 z"
         fill="url(#paint4_linear_2671_3971)"
         id="path19"
         style="fill:url(#paint4_linear_2671_3971)" /><path
         d="m 1024.76,44.8543 c -1.61,2.5818 -3.09,5.7454 -4.14,7.2727 l -1.24,-2.1273 c 0.78,-1.4545 3.24,-5.9636 5.38,-5.1454 z"
         fill="url(#paint5_linear_2671_3971)"
         id="path20"
         style="fill:url(#paint5_linear_2671_3971)" /><path
         d="m 1085.45,54.3095 c -1.14,-0.0182 -2.27,0.2364 -3.29,0.7455 -1.01,0.5091 -1.91,1.2727 -2.56,2.2 -0.64,-0.9273 -1.51,-1.6728 -2.51,-2.1819 -1,-0.5091 -2.13,-0.7636 -3.25,-0.7454 -4.49,0 -7.55,3.6182 -7.55,8.9818 v 8.6727 h 3.46 v -8.6727 c 0,-3.4909 1.54,-5.5636 4.12,-5.5636 2.58,0 4.06,2.1454 4.06,5.5636 v 8.6727 h 3.27 v -8.6727 c 0,-3.4909 1.55,-5.5636 4.15,-5.5636 2.6,0 4.03,2.1454 4.03,5.5636 v 8.6727 h 3.46 v -8.6727 c 0.01,-5.3818 -2.95,-9 -7.39,-9 z"
         fill="#ffffff"
         id="path21" /><path
         d="m 1103.62,54.0195 c -4.98,0 -8.62,3.7819 -8.62,8.9819 0,5.2 3.62,8.9818 8.62,8.9818 5,0 8.62,-3.7818 8.62,-8.9818 0,-5.2 -3.66,-8.9819 -8.62,-8.9819 z m 0,14.5455 c -3.06,0 -5.18,-2.2727 -5.18,-5.5636 0,-3.291 2.07,-5.5637 5.18,-5.5637 3.09,0 5.14,2.2364 5.14,5.5637 0,3.3272 -2.12,5.5636 -5.14,5.5636 z"
         fill="#ffffff"
         id="path22" /><path
         d="m 1122.4,54.3105 c -4.53,0 -7.94,3.8546 -7.94,8.9819 v 8.6727 h 3.45 v -8.6727 c 0,-3.2182 1.85,-5.5637 4.51,-5.5637 2.65,0 4.4,2.3455 4.4,5.5637 v 8.6727 h 3.45 v -8.6727 c 0.04,-5.1091 -3.36,-8.9819 -7.87,-8.9819 z"
         fill="#ffffff"
         id="path23" /><path
         d="m 1141,54.0195 c -4.98,0 -8.62,3.7819 -8.62,8.9819 0,5.2 3.62,9 8.62,9 5,0 8.56,-3.7819 8.56,-8.9819 0,-5.2 -3.6,-9 -8.56,-9 z m 0,14.5455 c -3.05,0 -5.18,-2.2727 -5.18,-5.5636 0,-3.291 2.09,-5.5637 5.18,-5.5637 3.09,0 5.15,2.2364 5.15,5.5637 0,3.3272 -2.11,5.5636 -5.15,5.5636 z"
         fill="#ffffff"
         id="path24" /><path
         d="m 1160.51,68.5273 c -0.71,0 -1.42,-0.1273 -2.07,-0.4182 -0.66,-0.2727 -1.26,-0.6909 -1.75,-1.2 -0.49,-0.5091 -0.87,-1.1272 -1.13,-1.8 -0.25,-0.6727 -0.34,-1.3818 -0.3,-2.0909 -0.04,-0.7091 0.05,-1.4182 0.3,-2.0909 0.26,-0.6727 0.62,-1.2909 1.13,-1.8 0.49,-0.5091 1.09,-0.9273 1.75,-1.2 0.65,-0.2727 1.36,-0.4182 2.07,-0.4182 1.04,-0.0727 2.07,0.2 2.93,0.7818 0.85,0.5819 1.51,1.4364 1.82,2.4182 h 3.54 c -0.34,-1.9091 -1.38,-3.6363 -2.91,-4.8363 -1.53,-1.2 -3.43,-1.8182 -5.38,-1.7273 -1.16,-0.0182 -2.31,0.2 -3.4,0.6545 -1.07,0.4364 -2.05,1.1091 -2.85,1.9455 -0.8,0.8364 -1.44,1.8182 -1.86,2.9091 -0.42,1.0909 -0.6,2.2364 -0.54,3.4 -0.04,1.1636 0.14,2.3091 0.56,3.4 0.42,1.0727 1.04,2.0727 1.85,2.8909 0.8,0.8364 1.79,1.4909 2.86,1.9455 1.07,0.4545 2.22,0.6727 3.38,0.6727 2,0.0727 3.95,-0.5818 5.47,-1.8546 1.55,-1.2727 2.57,-3.0545 2.88,-5.0181 h -3.51 c -0.29,1.0363 -0.93,1.9454 -1.8,2.5818 -0.89,0.6 -1.95,0.9091 -3.04,0.8545 z"
         fill="#ffffff"
         id="path25" /><path
         d="m 1174.45,48.3457 h -3.27 v 23.4546 h 3.27 z"
         fill="#ffffff"
         id="path26" /><path
         d="m 1185.33,54.0195 c -4.98,0 -8.62,3.7819 -8.62,8.9819 0,5.2 3.62,8.9818 8.62,8.9818 5,0 8.56,-3.7818 8.56,-8.9818 0,-5.2 -3.6,-8.9819 -8.56,-8.9819 z m 0,14.5455 c -3.06,0 -5.18,-2.2727 -5.18,-5.5636 0,-3.291 2.07,-5.5637 5.18,-5.5637 3.09,0 5.2,2.2546 5.2,5.5637 0,3.309 -2.17,5.5636 -5.2,5.5636 z"
         fill="#ffffff"
         id="path27" /><path
         d="m 1208.64,63.0184 c 0,3.2182 -1.95,5.5637 -4.49,5.5637 -2.55,0 -4.6,-2.3273 -4.6,-5.5637 v -8.6727 h -3.46 v 8.6727 c 0,5.1091 3.44,8.9818 7.98,8.9818 4.57,0 7.84,-3.8727 7.84,-8.9818 v -8.6727 h -3.27 z"
         fill="#ffffff"
         id="path28" /><path
         d="m 1227.91,47.9824 v 7.9818 c -1.49,-1.3272 -3.42,-2.0727 -5.44,-2.0545 -4.82,0 -8.43,3.8545 -8.43,8.9818 0,5.1273 3.63,8.9818 8.63,8.9818 5,0 8.69,-3.7818 8.69,-8.9818 V 47.9824 Z m -5.26,20.5818 c -3.52,0 -5.14,-2.8727 -5.14,-5.5636 -0.06,-0.7091 0.04,-1.4182 0.27,-2.0909 0.24,-0.6727 0.6,-1.2909 1.09,-1.8182 0.49,-0.5273 1.08,-0.9454 1.73,-1.2182 0.65,-0.2909 1.36,-0.4363 2.07,-0.4363 0.71,0 1.42,0.1454 2.08,0.4363 0.65,0.2909 1.23,0.7091 1.72,1.2182 0.49,0.5273 0.86,1.1455 1.09,1.8182 0.24,0.6727 0.33,1.3818 0.28,2.0909 0,2.7636 -1.6,5.5636 -5.19,5.5636 z"
         fill="#ffffff"
         id="path29" /></g><path
       id="text46"
       style="font-size:36px;text-align:start;writing-mode:lr-tb;direction:ltr;text-anchor:start;fill:#ffffff;stroke-width:0.990236;stroke-linejoin:round"
       d="m 222.92351,147.59907 v 12.59961 h -0.0723 c -0.576,-0.888 -1.40437,-1.5839 -2.48437,-2.0879 -1.08,-0.528 -2.23304,-0.79101 -3.45704,-0.79101 -1.32,0 -2.51961,0.22759 -3.59961,0.68359 -1.056,0.456 -1.96832,1.09221 -2.73632,1.90821 -0.744,0.792 -1.31857,1.73975 -1.72657,2.84375 -0.408,1.08 -0.61328,2.25534 -0.61328,3.52734 0,1.272 0.20528,2.4493 0.61328,3.5293 0.408,1.08 0.98257,2.02775 1.72657,2.84375 0.768,0.816 1.68032,1.4522 2.73632,1.9082 1.08,0.456 2.27961,0.68359 3.59961,0.68359 1.152,0 2.26961,-0.25186 3.34961,-0.75586 1.104,-0.504 1.9678,-1.213 2.5918,-2.125 h 0.0723 v 2.44922 h 3.23828 v -27.21679 z m 160.52343,0 v 27.21679 h 3.24024 v -27.21679 z m 63.64844,0 v 12.59961 h -0.0723 c -0.576,-0.888 -1.40438,-1.5839 -2.48438,-2.0879 -1.08,-0.528 -2.23108,-0.79101 -3.45508,-0.79101 -1.32,0 -2.52156,0.22759 -3.60156,0.68359 -1.056,0.456 -1.96833,1.09221 -2.73633,1.90821 -0.744,0.792 -1.31856,1.73975 -1.72656,2.84375 -0.408,1.08 -0.61328,2.25534 -0.61328,3.52734 0,1.272 0.20528,2.4493 0.61328,3.5293 0.408,1.08 0.98256,2.02775 1.72656,2.84375 0.768,0.816 1.68033,1.4522 2.73633,1.9082 1.08,0.456 2.28156,0.68359 3.60156,0.68359 1.152,0 2.26766,-0.25186 3.34766,-0.75586 1.104,-0.504 1.9678,-1.213 2.5918,-2.125 h 0.0723 v 2.44922 h 3.24024 v -27.21679 z m 109.76367,0 v 27.21679 h 3.24024 v -27.21679 z m 108,0 v 27.21679 h 3.24024 v -27.21679 z m -294.48047,1.08007 c -1.968,0 -3.76839,0.33582 -5.40039,1.00782 -1.632,0.672 -3.03493,1.61975 -4.21093,2.84375 -1.152,1.2 -2.05318,2.64031 -2.70118,4.32031 -0.648,1.656 -0.9707,3.46755 -0.9707,5.43555 0,1.608 0.29844,3.20506 0.89844,4.78906 0.6,1.56 1.46575,2.96294 2.59375,4.21094 1.152,1.248 2.53067,2.25739 4.13867,3.02539 1.632,0.768 3.45666,1.15039 5.47266,1.15039 1.464,0 2.74756,-0.19217 3.85156,-0.57617 1.128,-0.36 2.08886,-0.77977 2.88086,-1.25977 0.792,-0.504 1.4282,-0.99461 1.9082,-1.47461 0.48,-0.504 0.81581,-0.88834 1.00781,-1.15234 l -2.91601,-2.19727 c -0.768,1.08 -1.7046,1.92149 -2.8086,2.52149 -1.104,0.6 -2.38756,0.89843 -3.85156,0.89843 -1.488,0 -2.82009,-0.26301 -3.99609,-0.79101 -1.176,-0.528 -2.17228,-1.24816 -2.98828,-2.16016 -0.816,-0.912 -1.44105,-1.96797 -1.87305,-3.16797 -0.432,-1.2 -0.64648,-2.4724 -0.64648,-3.8164 0,-1.44 0.22759,-2.78325 0.68359,-4.03125 0.456,-1.272 1.0922,-2.3765 1.9082,-3.3125 0.84,-0.936 1.83628,-1.66732 2.98828,-2.19532 1.176,-0.552 2.48383,-0.82812 3.92383,-0.82812 1.176,0 2.31592,0.25186 3.41992,0.75586 1.104,0.504 2.01633,1.22415 2.73633,2.16015 l 2.87891,-2.19726 c -1.032,-1.344 -2.3641,-2.33833 -3.9961,-2.98633 -1.608,-0.648 -3.25164,-0.97266 -4.93164,-0.97266 z m 102.9961,0 c -1.536,0 -2.85694,0.24071 -3.96094,0.72071 -1.08,0.456 -1.96611,1.03056 -2.66211,1.72656 -0.696,0.696 -1.21283,1.46469 -1.54883,2.30469 -0.312,0.84 -0.46875,1.631 -0.46875,2.375 0,1.656 0.3135,2.97693 0.9375,3.96093 0.624,0.96 1.39074,1.72869 2.30274,2.30469 0.936,0.576 1.94343,1.03119 3.02343,1.36719 1.104,0.312 2.1134,0.64781 3.0254,1.00781 0.936,0.336 1.71584,0.76888 2.33984,1.29688 0.624,0.504 0.93555,1.24647 0.93555,2.23047 0,0.696 -0.15675,1.30989 -0.46875,1.83789 -0.312,0.528 -0.71866,0.97007 -1.22266,1.33007 -0.48,0.36 -1.02109,0.63613 -1.62109,0.82813 -0.6,0.168 -1.18768,0.25195 -1.76368,0.25195 -1.032,0 -2.03943,-0.21448 -3.02343,-0.64648 -0.96,-0.456 -1.75296,-1.15189 -2.37696,-2.08789 l -2.84375,2.44726 c 0.864,1.2 2.02819,2.08807 3.49219,2.66407 1.464,0.576 3.01253,0.86328 4.64453,0.86328 1.224,0 2.37508,-0.17907 3.45508,-0.53907 1.08,-0.36 2.01659,-0.87682 2.80859,-1.54882 0.792,-0.672 1.41705,-1.50038 1.87305,-2.48438 0.48,-0.984 0.71875,-2.08655 0.71875,-3.31055 0,-1.536 -0.31155,-2.7356 -0.93555,-3.5996 -0.624,-0.888 -1.40384,-1.58585 -2.33984,-2.08985 -0.912,-0.528 -1.91944,-0.93465 -3.02344,-1.22265 -1.08,-0.288 -2.08939,-0.61266 -3.02539,-0.97266 -0.912,-0.36 -1.67873,-0.8283 -2.30273,-1.4043 -0.624,-0.576 -0.9375,-1.40437 -0.9375,-2.48437 0,-0.384 0.0728,-0.80377 0.21679,-1.25977 0.168,-0.456 0.44413,-0.87576 0.82813,-1.25976 0.384,-0.408 0.88772,-0.73071 1.51172,-0.97071 0.648,-0.264 1.45211,-0.39648 2.41211,-0.39648 1.008,0 1.90722,0.20333 2.69922,0.61133 0.792,0.408 1.40393,0.94909 1.83593,1.62109 l 2.8086,-2.55664 c -0.96,-1.176 -2.07566,-1.95584 -3.34766,-2.33984 -1.272,-0.384 -2.60409,-0.57618 -3.99609,-0.57618 z m 201.74414,0.57618 c -0.648,0 -1.21141,0.23875 -1.69141,0.71875 -0.456,0.456 -0.68554,1.00825 -0.68554,1.65625 0,0.648 0.22954,1.21336 0.68554,1.69336 0.48,0.456 1.04341,0.68359 1.69141,0.68359 0.648,0 1.20025,-0.22759 1.65625,-0.68359 0.48,-0.48 0.71875,-1.04536 0.71875,-1.69336 0,-0.648 -0.23875,-1.20025 -0.71875,-1.65625 -0.456,-0.48 -1.00825,-0.71875 -1.65625,-0.71875 z m 57.99609,0 c -0.648,0 -1.2114,0.23875 -1.6914,0.71875 -0.456,0.456 -0.68555,1.00825 -0.68555,1.65625 0,0.648 0.22955,1.21336 0.68555,1.69336 0.48,0.456 1.0434,0.68359 1.6914,0.68359 0.648,0 1.20025,-0.22759 1.65625,-0.68359 0.48,-0.48 0.71875,-1.04536 0.71875,-1.69336 0,-0.648 -0.23875,-1.20025 -0.71875,-1.65625 -0.456,-0.48 -1.00825,-0.71875 -1.65625,-0.71875 z m -682.308592,0.0723 v 25.48828 h 3.457032 v -20.95312 h 0.07226 l 8.603516,20.95312 h 2.302734 l 8.605469,-20.95312 h 0.07227 v 20.95312 h 3.455078 V 149.32758 H 72.22624 l -8.027343,19.29492 h -0.144532 l -8.099609,-19.29492 z m 95.652342,0 v 25.48828 h 3.45703 v -11.01758 h 11.69922 v -3.24023 h -11.69922 v -7.99023 h 12.5625 v -3.24024 z m 116.56836,0 v 25.48828 h 3.45508 v -20.95312 h 0.0723 l 8.60351,20.95312 h 2.30469 l 8.60351,-20.95312 h 0.0723 v 20.95312 h 3.45703 V 149.32762 H 284.447 l -8.02734,19.29492 h -0.14453 l -8.09961,-19.29492 z m 341.06445,0 -11.23242,25.48828 h 4.03125 l 2.51953,-6.30078 h 12.13282 l 2.55664,6.30078 h 4.03125 l -10.90821,-25.48828 z m 115.0918,3.63477 v 4.78906 h -3.74414 v 2.80664 h 3.74414 v 8.89258 c 0,0.696 0.0243,1.39189 0.0723,2.08789 0.072,0.672 0.26222,1.28394 0.57422,1.83594 0.336,0.552 0.84167,1.00914 1.51367,1.36914 0.696,0.336 1.66801,0.5039 2.91601,0.5039 0.336,0 0.80235,-0.0485 1.40235,-0.14453 0.624,-0.072 1.12967,-0.21564 1.51367,-0.43164 v -2.95312 c -0.336,0.192 -0.70919,0.32448 -1.11719,0.39648 -0.408,0.072 -0.8035,0.10742 -1.1875,0.10742 -0.624,0 -1.10345,-0.10626 -1.43945,-0.32226 -0.312,-0.24 -0.5527,-0.54039 -0.7207,-0.90039 -0.144,-0.384 -0.22796,-0.80377 -0.25196,-1.25977 -0.024,-0.48 -0.0352,-0.96141 -0.0352,-1.44141 v -7.74023 h 4.64257 v -2.80664 h -4.64257 v -4.78906 z m -113.72461,0.82812 h 0.0723 l 4.75195,11.70117 h -9.64844 z m -514.367185,3.5293 c -1.272,0 -2.460453,0.23875 -3.564453,0.71875 -1.104,0.456 -2.06486,1.0922 -2.88086,1.9082 -0.816,0.816 -1.463359,1.76375 -1.943359,2.84375 -0.456,1.08 -0.683594,2.24419 -0.683594,3.49219 0,1.248 0.227594,2.4253 0.683594,3.5293 0.48,1.08 1.127359,2.02775 1.943359,2.84375 0.816,0.792 1.77686,1.4282 2.88086,1.9082 1.104,0.456 2.292453,0.68359 3.564453,0.68359 1.272,0 2.4585,-0.22759 3.5625,-0.68359 1.104,-0.48 2.064859,-1.1162 2.880859,-1.9082 0.816,-0.816 1.452203,-1.76375 1.908203,-2.84375 0.48,-1.104 0.720703,-2.2813 0.720703,-3.5293 0,-1.248 -0.240703,-2.41219 -0.720703,-3.49219 -0.456,-1.08 -1.092203,-2.02775 -1.908203,-2.84375 -0.816,-0.816 -1.776859,-1.4522 -2.880859,-1.9082 -1.104,-0.48 -2.2905,-0.71875 -3.5625,-0.71875 z m 22.066405,0 c -1.32,0 -2.48223,0.28728 -3.49023,0.86328 -1.008,0.552 -1.717,1.28331 -2.125,2.19531 h -0.0723 v -2.62695 h -3.24023 v 17.06445 h 3.24023 v -8.78515 c 0,-0.984 0.12133,-1.83664 0.36133,-2.55664 0.24,-0.72 0.57581,-1.30768 1.00781,-1.76368 0.432,-0.48 0.93572,-0.82696 1.51172,-1.04296 0.576,-0.216 1.19909,-0.32422 1.87109,-0.32422 0.504,0 0.98541,0.0839 1.44141,0.25195 0.48,0.144 0.89977,0.39586 1.25977,0.75586 0.36,0.336 0.64728,0.79119 0.86328,1.36719 0.216,0.552 0.32422,1.22557 0.32422,2.01757 v 10.08008 h 3.24023 v -10.98047 c 0,-1.128 -0.16791,-2.10001 -0.50391,-2.91601 -0.336,-0.84 -0.79314,-1.52474 -1.36914,-2.05274 -0.552,-0.528 -1.21051,-0.91234 -1.97851,-1.15234 -0.744,-0.264 -1.5258,-0.39453 -2.3418,-0.39453 z m 19.33203,0 c -1.272,0 -2.4585,0.23875 -3.5625,0.71875 -1.104,0.456 -2.06486,1.0922 -2.88086,1.9082 -0.816,0.816 -1.46336,1.76375 -1.94336,2.84375 -0.456,1.08 -0.68359,2.24419 -0.68359,3.49219 0,1.248 0.22759,2.4253 0.68359,3.5293 0.48,1.08 1.12736,2.02775 1.94336,2.84375 0.816,0.792 1.77686,1.4282 2.88086,1.9082 1.104,0.456 2.2905,0.68359 3.5625,0.68359 1.272,0 2.46046,-0.22759 3.56446,-0.68359 1.104,-0.48 2.06485,-1.1162 2.88085,-1.9082 0.816,-0.816 1.45221,-1.76375 1.90821,-2.84375 0.48,-1.104 0.71875,-2.2813 0.71875,-3.5293 0,-1.248 -0.23875,-2.41219 -0.71875,-3.49219 -0.456,-1.08 -1.09221,-2.02775 -1.90821,-2.84375 -0.816,-0.816 -1.77685,-1.4522 -2.88085,-1.9082 -1.104,-0.48 -2.29246,-0.71875 -3.56446,-0.71875 z m 42.04883,0 c -1.272,0 -2.46045,0.23875 -3.56445,0.71875 -1.104,0.456 -2.06291,1.0922 -2.87891,1.9082 -0.816,0.816 -1.46531,1.76375 -1.94531,2.84375 -0.456,1.08 -0.6836,2.24419 -0.6836,3.49219 0,1.248 0.2276,2.4253 0.6836,3.5293 0.48,1.08 1.12931,2.02775 1.94531,2.84375 0.816,0.792 1.77491,1.4282 2.87891,1.9082 1.104,0.456 2.29245,0.68359 3.56445,0.68359 1.272,0 2.46045,-0.22759 3.56445,-0.68359 1.104,-0.48 2.06291,-1.1162 2.87891,-1.9082 0.816,-0.816 1.4522,-1.76375 1.9082,-2.84375 0.48,-1.104 0.72071,-2.2813 0.72071,-3.5293 0,-1.248 -0.24071,-2.41219 -0.72071,-3.49219 -0.456,-1.08 -1.0922,-2.02775 -1.9082,-2.84375 -0.816,-0.816 -1.77491,-1.4522 -2.87891,-1.9082 -1.104,-0.48 -2.29245,-0.71875 -3.56445,-0.71875 z m 21.38477,0 c -1.272,0 -2.46046,0.23875 -3.56446,0.71875 -1.104,0.456 -2.06486,1.0922 -2.88086,1.9082 -0.816,0.816 -1.46336,1.76375 -1.94336,2.84375 -0.456,1.08 -0.68359,2.24419 -0.68359,3.49219 0,1.248 0.22759,2.4253 0.68359,3.5293 0.48,1.08 1.12736,2.02775 1.94336,2.84375 0.816,0.792 1.77686,1.4282 2.88086,1.9082 1.104,0.456 2.29246,0.68359 3.56446,0.68359 1.272,0 2.4585,-0.22759 3.5625,-0.68359 1.104,-0.48 2.06486,-1.1162 2.88086,-1.9082 0.816,-0.816 1.4522,-1.76375 1.9082,-2.84375 0.48,-1.104 0.71875,-2.2813 0.71875,-3.5293 0,-1.248 -0.23875,-2.41219 -0.71875,-3.49219 -0.456,-1.08 -1.0922,-2.02775 -1.9082,-2.84375 -0.816,-0.816 -1.77686,-1.4522 -2.88086,-1.9082 -1.104,-0.48 -2.2905,-0.71875 -3.5625,-0.71875 z m 107.38671,0 c -1.272,0 -2.46045,0.23875 -3.56445,0.71875 -1.104,0.456 -2.0629,1.0922 -2.8789,1.9082 -0.816,0.816 -1.46336,1.76375 -1.94336,2.84375 -0.456,1.08 -0.68555,2.24419 -0.68555,3.49219 0,1.248 0.22955,2.4253 0.68555,3.5293 0.48,1.08 1.12736,2.02775 1.94336,2.84375 0.816,0.792 1.7749,1.4282 2.8789,1.9082 1.104,0.456 2.29245,0.68359 3.56445,0.68359 1.272,0 2.46046,-0.22759 3.56446,-0.68359 1.104,-0.48 2.06486,-1.1162 2.88086,-1.9082 0.816,-0.816 1.45025,-1.76375 1.90625,-2.84375 0.48,-1.104 0.7207,-2.2813 0.7207,-3.5293 0,-1.248 -0.2407,-2.41219 -0.7207,-3.49219 -0.456,-1.08 -1.09025,-2.02775 -1.90625,-2.84375 -0.816,-0.816 -1.77686,-1.4522 -2.88086,-1.9082 -1.104,-0.48 -2.29246,-0.71875 -3.56446,-0.71875 z m 22.06836,0 c -1.32,0 -2.48418,0.28728 -3.49218,0.86328 -1.008,0.552 -1.71505,1.28331 -2.12305,2.19531 h -0.0723 v -2.62695 h -3.24023 v 17.06445 h 3.24023 v -8.78515 c 0,-0.984 0.11938,-1.83664 0.35938,-2.55664 0.24,-0.72 0.57581,-1.30768 1.00781,-1.76368 0.432,-0.48 0.93572,-0.82696 1.51172,-1.04296 0.576,-0.216 1.20105,-0.32422 1.87305,-0.32422 0.504,0 0.98345,0.0839 1.43945,0.25195 0.48,0.144 0.89977,0.39586 1.25977,0.75586 0.36,0.336 0.64923,0.79119 0.86523,1.36719 0.216,0.552 0.32227,1.22557 0.32227,2.01757 v 10.08008 h 3.24023 v -10.98047 c 0,-1.128 -0.16791,-2.10001 -0.50391,-2.91601 -0.336,-0.84 -0.79118,-1.52474 -1.36718,-2.05274 -0.552,-0.528 -1.21247,-0.91234 -1.98047,-1.15234 -0.744,-0.264 -1.52385,-0.39453 -2.33985,-0.39453 z m 19.33204,0 c -1.272,0 -2.46046,0.23875 -3.56446,0.71875 -1.104,0.456 -2.0629,1.0922 -2.8789,1.9082 -0.816,0.816 -1.46532,1.76375 -1.94532,2.84375 -0.456,1.08 -0.68359,2.24419 -0.68359,3.49219 0,1.248 0.22759,2.4253 0.68359,3.5293 0.48,1.08 1.12932,2.02775 1.94532,2.84375 0.816,0.792 1.7749,1.4282 2.8789,1.9082 1.104,0.456 2.29246,0.68359 3.56446,0.68359 1.272,0 2.46045,-0.22759 3.56445,-0.68359 1.104,-0.48 2.0629,-1.1162 2.8789,-1.9082 0.816,-0.816 1.45221,-1.76375 1.90821,-2.84375 0.48,-1.104 0.7207,-2.2813 0.7207,-3.5293 0,-1.248 -0.2407,-2.41219 -0.7207,-3.49219 -0.456,-1.08 -1.09221,-2.02775 -1.90821,-2.84375 -0.816,-0.816 -1.7749,-1.4522 -2.8789,-1.9082 -1.104,-0.48 -2.29245,-0.71875 -3.56445,-0.71875 z m 55.36718,0 c -1.272,0 -2.4585,0.23875 -3.5625,0.71875 -1.104,0.456 -2.06486,1.0922 -2.88086,1.9082 -0.816,0.816 -1.46336,1.76375 -1.94336,2.84375 -0.456,1.08 -0.68359,2.24419 -0.68359,3.49219 0,1.248 0.22759,2.4253 0.68359,3.5293 0.48,1.08 1.12736,2.02775 1.94336,2.84375 0.816,0.792 1.77686,1.4282 2.88086,1.9082 1.104,0.456 2.2905,0.68359 3.5625,0.68359 1.272,0 2.46046,-0.22759 3.56446,-0.68359 1.104,-0.48 2.06486,-1.1162 2.88086,-1.9082 0.816,-0.816 1.4522,-1.76375 1.9082,-2.84375 0.48,-1.104 0.71875,-2.2813 0.71875,-3.5293 0,-1.248 -0.23875,-2.41219 -0.71875,-3.49219 -0.456,-1.08 -1.0922,-2.02775 -1.9082,-2.84375 -0.816,-0.816 -1.77686,-1.4522 -2.88086,-1.9082 -1.104,-0.48 -2.29246,-0.71875 -3.56446,-0.71875 z m 92.01758,0 c -1.2,0 -2.40156,0.21448 -3.60156,0.64648 -1.2,0.408 -2.25597,1.03305 -3.16797,1.87305 l 1.94531,2.01563 c 0.288,-0.216 0.58839,-0.4436 0.90039,-0.6836 0.312,-0.24 0.65897,-0.44528 1.04297,-0.61328 0.384,-0.192 0.80377,-0.3468 1.25977,-0.4668 0.48,-0.12 1.03225,-0.17968 1.65625,-0.17968 0.696,0 1.29678,0.10821 1.80078,0.32421 0.504,0.192 0.92376,0.46813 1.25976,0.82813 0.336,0.336 0.58786,0.71839 0.75586,1.15039 0.168,0.432 0.25196,0.86488 0.25196,1.29688 v 0.7207 h -2.37696 c -1.296,0 -2.51987,0.10626 -3.67187,0.32226 -1.128,0.192 -2.12428,0.52977 -2.98828,1.00977 -0.84,0.456 -1.51163,1.05483 -2.01563,1.79883 -0.48,0.744 -0.71875,1.66748 -0.71875,2.77148 0,0.84 0.1548,1.58442 0.4668,2.23242 0.312,0.624 0.73176,1.15199 1.25976,1.58399 0.552,0.432 1.18821,0.75665 1.90821,0.97265 0.72,0.216 1.47558,0.32422 2.26758,0.32422 1.296,0 2.43787,-0.22759 3.42187,-0.68359 0.984,-0.456 1.83469,-1.2378 2.55469,-2.3418 h 0.0723 c 0,0.864 0.0354,1.72975 0.10743,2.59375 h 2.88086 c -0.048,-0.456 -0.0834,-0.9374 -0.10743,-1.4414 -0.024,-0.504 -0.0371,-1.05625 -0.0371,-1.65625 v -8.71094 c 0,-0.744 -0.14364,-1.453 -0.43164,-2.125 -0.264,-0.696 -0.68376,-1.30794 -1.25976,-1.83594 -0.576,-0.528 -1.32042,-0.94776 -2.23242,-1.25976 -0.888,-0.312 -1.95513,-0.4668 -3.20313,-0.4668 z m 20.41211,0 c -0.768,0 -1.477,0.11937 -2.125,0.35937 -0.624,0.216 -1.17625,0.49213 -1.65625,0.82813 -0.456,0.312 -0.84034,0.64781 -1.15234,1.00781 -0.288,0.36 -0.46707,0.66039 -0.53907,0.90039 h -0.0723 v -2.66406 h -3.02344 v 17.06445 h 3.24024 v -8.85742 c 0,-0.96 0.11937,-1.78837 0.35937,-2.48437 0.24,-0.72 0.56466,-1.30768 0.97266,-1.76368 0.408,-0.456 0.87434,-0.79181 1.40234,-1.00781 0.552,-0.24 1.11736,-0.35937 1.69336,-0.35937 0.792,0 1.41509,0.14364 1.87109,0.43164 0.48,0.264 0.84008,0.64834 1.08008,1.15234 0.264,0.48 0.43191,1.05652 0.50391,1.72852 0.096,0.672 0.14453,1.41447 0.14453,2.23047 v 8.92968 h 3.24023 v -9.32422 c 0,-1.512 0.33582,-2.74898 1.00782,-3.70898 0.672,-0.96 1.78765,-1.43945 3.34765,-1.43945 0.792,0 1.42821,0.14364 1.90821,0.43164 0.48,0.264 0.85123,0.62408 1.11523,1.08008 0.264,0.456 0.43191,0.98398 0.50391,1.58398 0.096,0.6 0.14453,1.22505 0.14453,1.87305 v 9.5039 h 3.24023 v -9.9375 c 0,-0.96 -0.0951,-1.88348 -0.28711,-2.77148 -0.168,-0.912 -0.49265,-1.71611 -0.97265,-2.41211 -0.48,-0.72 -1.14047,-1.29652 -1.98047,-1.72852 -0.84,-0.432 -1.92024,-0.64648 -3.24024,-0.64648 -1.032,0 -2.05059,0.26301 -3.05859,0.79101 -1.008,0.528 -1.78784,1.32096 -2.33984,2.37696 -0.552,-1.056 -1.261,-1.84896 -2.125,-2.37696 -0.864,-0.528 -1.93113,-0.79101 -3.20313,-0.79101 z m 31.35547,0 c -1.152,0 -2.28077,0.25186 -3.38477,0.75586 -1.08,0.504 -1.93068,1.21105 -2.55468,2.12305 h -0.0723 v -2.44727 h -3.24023 v 27.21484 h 3.24023 v -12.59961 h 0.0723 c 0.576,0.888 1.40242,1.597 2.48242,2.125 1.08,0.504 2.23303,0.75586 3.45703,0.75586 1.32,0 2.50845,-0.22759 3.56445,-0.68359 1.08,-0.456 1.99038,-1.08105 2.73438,-1.87305 0.768,-0.816 1.35762,-1.76375 1.76562,-2.84375 0.408,-1.104 0.61133,-2.29245 0.61133,-3.56445 0,-1.248 -0.20333,-2.41219 -0.61133,-3.49219 -0.408,-1.104 -0.99762,-2.0629 -1.76562,-2.8789 -0.744,-0.816 -1.65438,-1.45221 -2.73438,-1.90821 -1.056,-0.456 -2.24445,-0.68359 -3.56445,-0.68359 z m 29.19531,0 c -1.272,0 -2.44734,0.22759 -3.52734,0.68359 -1.08,0.456 -2.0166,1.09221 -2.8086,1.90821 -0.768,0.792 -1.37993,1.73975 -1.83593,2.84375 -0.432,1.08 -0.64844,2.25534 -0.64844,3.52734 0,1.272 0.20528,2.46045 0.61328,3.56445 0.408,1.08 0.98256,2.02775 1.72656,2.84375 0.768,0.792 1.69344,1.41705 2.77344,1.87305 1.104,0.456 2.32788,0.68359 3.67188,0.68359 3.24,0 5.75859,-1.16418 7.55859,-3.49218 l -2.44727,-1.87305 c -0.624,0.768 -1.30873,1.39305 -2.05273,1.87305 -0.744,0.456 -1.61895,0.68359 -2.62695,0.68359 -0.744,0 -1.46416,-0.11938 -2.16016,-0.35938 -0.696,-0.24 -1.30794,-0.57581 -1.83594,-1.00781 -0.528,-0.432 -0.96087,-0.94883 -1.29687,-1.54883 -0.312,-0.624 -0.4668,-1.30873 -0.4668,-2.05273 h 13.67969 v -1.15039 c 0,-1.104 -0.15675,-2.18424 -0.46875,-3.24024 -0.288,-1.08 -0.76746,-2.04085 -1.43946,-2.88085 -0.672,-0.864 -1.53579,-1.5599 -2.59179,-2.0879 -1.032,-0.528 -2.30441,-0.79101 -3.81641,-0.79101 z m 56.8086,0 c -1.152,0 -2.28077,0.25186 -3.38477,0.75586 -1.08,0.504 -1.93069,1.21105 -2.55469,2.12305 h -0.0723 v -2.44727 h -3.24024 v 27.21484 h 3.24024 v -12.59961 h 0.0723 c 0.576,0.888 1.40242,1.597 2.48242,2.125 1.08,0.504 2.23304,0.75586 3.45704,0.75586 1.32,0 2.50845,-0.22759 3.56445,-0.68359 1.08,-0.456 1.99037,-1.08105 2.73437,-1.87305 0.768,-0.816 1.35763,-1.76375 1.76563,-2.84375 0.408,-1.104 0.61133,-2.29245 0.61133,-3.56445 0,-1.248 -0.20333,-2.41219 -0.61133,-3.49219 -0.408,-1.104 -0.99763,-2.0629 -1.76563,-2.8789 -0.744,-0.816 -1.65437,-1.45221 -2.73437,-1.90821 -1.056,-0.456 -2.24445,-0.68359 -3.56445,-0.68359 z m 21.99609,0 c -1.152,0 -2.28077,0.25186 -3.38477,0.75586 -1.08,0.504 -1.93068,1.21105 -2.55468,2.12305 h -0.0723 v -2.44727 h -3.24023 v 27.21484 h 3.24023 v -12.59961 h 0.0723 c 0.576,0.888 1.40242,1.597 2.48242,2.125 1.08,0.504 2.23303,0.75586 3.45703,0.75586 1.32,0 2.50845,-0.22759 3.56445,-0.68359 1.08,-0.456 1.99038,-1.08105 2.73438,-1.87305 0.768,-0.816 1.35762,-1.76375 1.76562,-2.84375 0.408,-1.104 0.61133,-2.29245 0.61133,-3.56445 0,-1.248 -0.20333,-2.41219 -0.61133,-3.49219 -0.408,-1.104 -0.99762,-2.0629 -1.76562,-2.8789 -0.744,-0.816 -1.65438,-1.45221 -2.73438,-1.90821 -1.056,-0.456 -2.24445,-0.68359 -3.56445,-0.68359 z m 54.21484,0 c -1.2,0 -2.39961,0.21448 -3.59961,0.64648 -1.2,0.408 -2.25597,1.03305 -3.16797,1.87305 l 1.94532,2.01563 c 0.288,-0.216 0.58643,-0.4436 0.89843,-0.6836 0.312,-0.24 0.66093,-0.44528 1.04493,-0.61328 0.384,-0.192 0.80376,-0.3468 1.25976,-0.4668 0.48,-0.12 1.03225,-0.17968 1.65625,-0.17968 0.696,0 1.29483,0.10821 1.79883,0.32421 0.504,0.192 0.92572,0.46813 1.26172,0.82813 0.336,0.336 0.58786,0.71839 0.75586,1.15039 0.168,0.432 0.25195,0.86488 0.25195,1.29688 v 0.7207 h -2.37695 c -1.296,0 -2.51988,0.10626 -3.67188,0.32226 -1.128,0.192 -2.12428,0.52977 -2.98828,1.00977 -0.84,0.456 -1.51162,1.05483 -2.01562,1.79883 -0.48,0.744 -0.72071,1.66748 -0.72071,2.77148 0,0.84 0.15675,1.58442 0.46875,2.23242 0.312,0.624 0.73177,1.15199 1.25977,1.58399 0.552,0.432 1.1882,0.75665 1.9082,0.97265 0.72,0.216 1.47558,0.32422 2.26758,0.32422 1.296,0 2.43592,-0.22759 3.41992,-0.68359 0.984,-0.456 1.83664,-1.2378 2.55664,-2.3418 h 0.0723 c 0,0.864 0.0354,1.72975 0.10742,2.59375 h 2.88086 c -0.048,-0.456 -0.0854,-0.9374 -0.10937,-1.4414 -0.024,-0.504 -0.0352,-1.05625 -0.0352,-1.65625 v -8.71094 c 0,-0.744 -0.14364,-1.453 -0.43164,-2.125 -0.264,-0.696 -0.68377,-1.30794 -1.25977,-1.83594 -0.576,-0.528 -1.32042,-0.94776 -2.23242,-1.25976 -0.888,-0.312 -1.95708,-0.4668 -3.20508,-0.4668 z m 42.04883,0 c -1.272,0 -2.46045,0.23875 -3.56445,0.71875 -1.104,0.456 -2.06291,1.0922 -2.87891,1.9082 -0.816,0.816 -1.46531,1.76375 -1.94531,2.84375 -0.456,1.08 -0.68359,2.24419 -0.68359,3.49219 0,1.248 0.22759,2.4253 0.68359,3.5293 0.48,1.08 1.12931,2.02775 1.94531,2.84375 0.816,0.792 1.77491,1.4282 2.87891,1.9082 1.104,0.456 2.29245,0.68359 3.56445,0.68359 1.272,0 2.46045,-0.22759 3.56445,-0.68359 1.104,-0.48 2.06291,-1.1162 2.87891,-1.9082 0.816,-0.816 1.4522,-1.76375 1.9082,-2.84375 0.48,-1.104 0.72071,-2.2813 0.72071,-3.5293 0,-1.248 -0.24071,-2.41219 -0.72071,-3.49219 -0.456,-1.08 -1.0922,-2.02775 -1.9082,-2.84375 -0.816,-0.816 -1.77491,-1.4522 -2.87891,-1.9082 -1.104,-0.48 -2.29245,-0.71875 -3.56445,-0.71875 z m 22.06836,0 c -1.32,0 -2.48419,0.28728 -3.49219,0.86328 -1.008,0.552 -1.717,1.28331 -2.125,2.19531 h -0.0703 v -2.62695 h -3.24023 v 17.06445 h 3.24023 v -8.78515 c 0,-0.984 0.11938,-1.83664 0.35938,-2.55664 0.24,-0.72 0.57581,-1.30768 1.00781,-1.76368 0.432,-0.48 0.93572,-0.82696 1.51172,-1.04296 0.576,-0.216 1.20104,-0.32422 1.87304,-0.32422 0.504,0 0.98346,0.0839 1.43946,0.25195 0.48,0.144 0.89976,0.39586 1.25976,0.75586 0.36,0.336 0.64728,0.79119 0.86328,1.36719 0.216,0.552 0.32422,1.22557 0.32422,2.01757 v 10.08008 h 3.24024 v -10.98047 c 0,-1.128 -0.16791,-2.10001 -0.50391,-2.91601 -0.336,-0.84 -0.79119,-1.52474 -1.36719,-2.05274 -0.552,-0.528 -1.21247,-0.91234 -1.98047,-1.15234 -0.744,-0.264 -1.52384,-0.39453 -2.33984,-0.39453 z m -80.20898,0.0352 c -1.344,0 -2.56788,0.22759 -3.67188,0.68359 -1.08,0.432 -2.01464,1.04394 -2.80664,1.83594 -0.768,0.792 -1.36878,1.73975 -1.80078,2.84375 -0.432,1.104 -0.64844,2.31672 -0.64844,3.63672 0,1.32 0.21644,2.53271 0.64844,3.63671 0.432,1.08 1.04394,2.01464 1.83594,2.80664 0.792,0.768 1.72859,1.36879 2.80859,1.80079 1.104,0.432 2.31477,0.64843 3.63477,0.64843 1.248,0 2.42529,-0.20528 3.52929,-0.61328 1.128,-0.408 2.11117,-1.07962 2.95117,-2.01562 l -2.30468,-2.30274 c -0.552,0.624 -1.15083,1.10346 -1.79883,1.43946 -0.648,0.312 -1.42784,0.46679 -2.33984,0.46679 -0.84,0 -1.59558,-0.14364 -2.26758,-0.43164 -0.672,-0.312 -1.24852,-0.73176 -1.72852,-1.25976 -0.48,-0.528 -0.85319,-1.13994 -1.11719,-1.83594 -0.264,-0.72 -0.39453,-1.47558 -0.39453,-2.26758 0,-0.792 0.10822,-1.54758 0.32422,-2.26758 0.24,-0.744 0.57581,-1.39331 1.00781,-1.94531 0.456,-0.576 1.0063,-1.02003 1.6543,-1.33203 0.672,-0.336 1.4538,-0.50391 2.3418,-0.50391 0.912,0 1.69184,0.16791 2.33984,0.50391 0.672,0.312 1.3082,0.7803 1.9082,1.4043 l 2.44727,-2.23243 c -0.84,-0.912 -1.83628,-1.58362 -2.98828,-2.01562 -1.128,-0.456 -2.31645,-0.68359 -3.56445,-0.68359 z m -276.76758,0.39648 v 10.98047 c 0,1.128 0.1679,2.11117 0.5039,2.95117 0.336,0.816 0.78004,1.48763 1.33204,2.01563 0.576,0.528 1.23646,0.91234 1.98046,1.15234 0.744,0.264 1.535,0.39648 2.375,0.39648 1.32,0 2.48419,-0.27612 3.49219,-0.82812 1.008,-0.576 1.717,-1.32042 2.125,-2.23242 h 0.0723 v 2.6289 h 3.24023 v -17.06445 h -3.24023 v 8.7832 c 0,0.984 -0.12133,1.83664 -0.36133,2.55664 -0.24,0.72 -0.57581,1.31883 -1.00781,1.79883 -0.432,0.456 -0.93572,0.79377 -1.51172,1.00977 -0.576,0.216 -1.1991,0.32226 -1.8711,0.32226 -0.504,0 -0.99656,-0.0708 -1.47656,-0.21484 -0.456,-0.168 -0.86461,-0.41986 -1.22461,-0.75586 -0.36,-0.36 -0.64728,-0.81714 -0.86328,-1.36914 -0.216,-0.576 -0.32422,-1.25878 -0.32422,-2.05078 v -10.08008 z m 260.27929,0 v 17.06445 h 3.24024 v -17.06445 z m 57.9961,0 v 17.06445 h 3.24023 v -17.06445 z m -158.50781,2.16016 c 0.816,0 1.525,0.13053 2.125,0.39453 0.624,0.24 1.13887,0.58892 1.54687,1.04492 0.408,0.432 0.70839,0.94883 0.90039,1.54883 0.216,0.6 0.33733,1.25851 0.36133,1.97851 h -10.22461 c 0,-0.576 0.11938,-1.15056 0.35938,-1.72656 0.264,-0.6 0.62407,-1.14109 1.08007,-1.62109 0.456,-0.48 1.00825,-0.86435 1.65625,-1.15235 0.672,-0.312 1.40332,-0.46679 2.19532,-0.46679 z m -481.894535,0.43164 c 0.864,0 1.643843,0.15675 2.339843,0.46875 0.696,0.288 1.283672,0.69465 1.763672,1.22265 0.48,0.504 0.851235,1.12905 1.115235,1.87305 0.264,0.72 0.396484,1.511 0.396484,2.375 0,0.864 -0.132484,1.66811 -0.396484,2.41211 -0.264,0.72 -0.635235,1.34505 -1.115235,1.87305 -0.48,0.504 -1.067672,0.91065 -1.763672,1.22265 -0.696,0.288 -1.475843,0.43164 -2.339843,0.43164 -0.864,0 -1.643844,-0.14364 -2.339844,-0.43164 -0.696,-0.312 -1.285625,-0.71865 -1.765625,-1.22265 -0.48,-0.528 -0.851234,-1.15305 -1.115234,-1.87305 -0.264,-0.744 -0.396485,-1.54811 -0.396485,-2.41211 0,-0.864 0.132485,-1.655 0.396485,-2.375 0.264,-0.744 0.635234,-1.36905 1.115234,-1.87305 0.48,-0.528 1.069625,-0.93465 1.765625,-1.22265 0.696,-0.312 1.475844,-0.46875 2.339844,-0.46875 z m 41.398435,0 c 0.864,0 1.6458,0.15675 2.3418,0.46875 0.696,0.288 1.28367,0.69465 1.76367,1.22265 0.48,0.504 0.85124,1.12905 1.11524,1.87305 0.264,0.72 0.39648,1.511 0.39648,2.375 0,0.864 -0.13248,1.66811 -0.39648,2.41211 -0.264,0.72 -0.63524,1.34505 -1.11524,1.87305 -0.48,0.504 -1.06767,0.91065 -1.76367,1.22265 -0.696,0.288 -1.4778,0.43164 -2.3418,0.43164 -0.864,0 -1.64384,-0.14364 -2.33984,-0.43164 -0.696,-0.312 -1.28367,-0.71865 -1.76367,-1.22265 -0.48,-0.528 -0.85124,-1.15305 -1.11524,-1.87305 -0.264,-0.744 -0.39648,-1.54811 -0.39648,-2.41211 0,-0.864 0.13248,-1.655 0.39648,-2.375 0.264,-0.744 0.63524,-1.36905 1.11524,-1.87305 0.48,-0.528 1.06767,-0.93465 1.76367,-1.22265 0.696,-0.312 1.47584,-0.46875 2.33984,-0.46875 z m 42.04883,0 c 0.864,0 1.64384,0.15675 2.33984,0.46875 0.696,0.288 1.28368,0.69465 1.76368,1.22265 0.48,0.504 0.85318,1.12905 1.11718,1.87305 0.264,0.72 0.39453,1.511 0.39453,2.375 0,0.864 -0.13053,1.66811 -0.39453,2.41211 -0.264,0.72 -0.63718,1.34505 -1.11718,1.87305 -0.48,0.504 -1.06768,0.91065 -1.76368,1.22265 -0.696,0.288 -1.47584,0.43164 -2.33984,0.43164 -0.864,0 -1.64384,-0.14364 -2.33984,-0.43164 -0.696,-0.312 -1.28368,-0.71865 -1.76368,-1.22265 -0.48,-0.528 -0.85318,-1.15305 -1.11718,-1.87305 -0.264,-0.744 -0.39453,-1.54811 -0.39453,-2.41211 0,-0.864 0.13053,-1.655 0.39453,-2.375 0.264,-0.744 0.63718,-1.36905 1.11718,-1.87305 0.48,-0.528 1.06768,-0.93465 1.76368,-1.22265 0.696,-0.312 1.47584,-0.46875 2.33984,-0.46875 z m 21.38477,0 c 0.864,0 1.64384,0.15675 2.33984,0.46875 0.696,0.288 1.28367,0.69465 1.76367,1.22265 0.48,0.504 0.85124,1.12905 1.11524,1.87305 0.264,0.72 0.39648,1.511 0.39648,2.375 0,0.864 -0.13248,1.66811 -0.39648,2.41211 -0.264,0.72 -0.63524,1.34505 -1.11524,1.87305 -0.48,0.504 -1.06767,0.91065 -1.76367,1.22265 -0.696,0.288 -1.47584,0.43164 -2.33984,0.43164 -0.864,0 -1.64385,-0.14364 -2.33985,-0.43164 -0.696,-0.312 -1.28562,-0.71865 -1.76562,-1.22265 -0.48,-0.528 -0.85124,-1.15305 -1.11524,-1.87305 -0.264,-0.744 -0.39648,-1.54811 -0.39648,-2.41211 0,-0.864 0.13248,-1.655 0.39648,-2.375 0.264,-0.744 0.63524,-1.36905 1.11524,-1.87305 0.48,-0.528 1.06962,-0.93465 1.76562,-1.22265 0.696,-0.312 1.47585,-0.46875 2.33985,-0.46875 z m 21.38281,0 c 0.864,0 1.64384,0.15675 2.33984,0.46875 0.696,0.288 1.28367,0.69465 1.76367,1.22265 0.48,0.504 0.85319,1.12905 1.11719,1.87305 0.264,0.72 0.39649,1.511 0.39649,2.375 0,0.864 -0.13249,1.66811 -0.39649,2.41211 -0.264,0.72 -0.63719,1.34505 -1.11719,1.87305 -0.48,0.504 -1.06767,0.91065 -1.76367,1.22265 -0.696,0.288 -1.47584,0.43164 -2.33984,0.43164 -0.864,0 -1.64385,-0.14364 -2.33985,-0.43164 -0.696,-0.312 -1.28367,-0.71865 -1.76367,-1.22265 -0.48,-0.528 -0.85123,-1.15305 -1.11523,-1.87305 -0.264,-0.744 -0.39649,-1.54811 -0.39649,-2.41211 0,-0.864 0.13249,-1.655 0.39649,-2.375 0.264,-0.744 0.63523,-1.36905 1.11523,-1.87305 0.48,-0.528 1.06767,-0.93465 1.76367,-1.22265 0.696,-0.312 1.47585,-0.46875 2.33985,-0.46875 z m 86.0039,0 c 0.864,0 1.64385,0.15675 2.33985,0.46875 0.696,0.288 1.28562,0.69465 1.76562,1.22265 0.48,0.504 0.85124,1.12905 1.11524,1.87305 0.264,0.72 0.39648,1.511 0.39648,2.375 0,0.864 -0.13248,1.66811 -0.39648,2.41211 -0.264,0.72 -0.63524,1.34505 -1.11524,1.87305 -0.48,0.504 -1.06962,0.91065 -1.76562,1.22265 -0.696,0.288 -1.47585,0.43164 -2.33985,0.43164 -0.864,0 -1.64384,-0.14364 -2.33984,-0.43164 -0.696,-0.312 -1.28367,-0.71865 -1.76367,-1.22265 -0.48,-0.528 -0.85124,-1.15305 -1.11524,-1.87305 -0.264,-0.744 -0.39648,-1.54811 -0.39648,-2.41211 0,-0.864 0.13248,-1.655 0.39648,-2.375 0.264,-0.744 0.63524,-1.36905 1.11524,-1.87305 0.48,-0.528 1.06767,-0.93465 1.76367,-1.22265 0.696,-0.312 1.47584,-0.46875 2.33984,-0.46875 z m 41.4004,0 c 0.864,0 1.64384,0.15675 2.33984,0.46875 0.696,0.288 1.28367,0.69465 1.76367,1.22265 0.48,0.504 0.85319,1.12905 1.11719,1.87305 0.264,0.72 0.39453,1.511 0.39453,2.375 0,0.864 -0.13053,1.66811 -0.39453,2.41211 -0.264,0.72 -0.63719,1.34505 -1.11719,1.87305 -0.48,0.504 -1.06767,0.91065 -1.76367,1.22265 -0.696,0.288 -1.47584,0.43164 -2.33984,0.43164 -0.864,0 -1.64385,-0.14364 -2.33985,-0.43164 -0.696,-0.312 -1.28367,-0.71865 -1.76367,-1.22265 -0.48,-0.528 -0.85319,-1.15305 -1.11719,-1.87305 -0.264,-0.744 -0.39453,-1.54811 -0.39453,-2.41211 0,-0.864 0.13053,-1.655 0.39453,-2.375 0.264,-0.744 0.63719,-1.36905 1.11719,-1.87305 0.48,-0.528 1.06767,-0.93465 1.76367,-1.22265 0.696,-0.312 1.47585,-0.46875 2.33985,-0.46875 z m 55.36718,0 c 0.864,0 1.6458,0.15675 2.3418,0.46875 0.696,0.288 1.28367,0.69465 1.76367,1.22265 0.48,0.504 0.85124,1.12905 1.11524,1.87305 0.264,0.72 0.39648,1.511 0.39648,2.375 0,0.864 -0.13248,1.66811 -0.39648,2.41211 -0.264,0.72 -0.63524,1.34505 -1.11524,1.87305 -0.48,0.504 -1.06767,0.91065 -1.76367,1.22265 -0.696,0.288 -1.4778,0.43164 -2.3418,0.43164 -0.864,0 -1.64384,-0.14364 -2.33984,-0.43164 -0.696,-0.312 -1.28367,-0.71865 -1.76367,-1.22265 -0.48,-0.528 -0.85124,-1.15305 -1.11524,-1.87305 -0.264,-0.744 -0.39648,-1.54811 -0.39648,-2.41211 0,-0.864 0.13248,-1.655 0.39648,-2.375 0.264,-0.744 0.63524,-1.36905 1.11524,-1.87305 0.48,-0.528 1.06767,-0.93465 1.76367,-1.22265 0.696,-0.312 1.47584,-0.46875 2.33984,-0.46875 z m 41.40039,0 c 0.864,0 1.64385,0.15675 2.33985,0.46875 0.696,0.288 1.28562,0.69465 1.76562,1.22265 0.48,0.504 0.85124,1.12905 1.11524,1.87305 0.264,0.72 0.39648,1.511 0.39648,2.375 0,0.864 -0.13248,1.66811 -0.39648,2.41211 -0.264,0.72 -0.63524,1.34505 -1.11524,1.87305 -0.48,0.504 -1.06962,0.91065 -1.76562,1.22265 -0.696,0.288 -1.47585,0.43164 -2.33985,0.43164 -0.864,0 -1.64384,-0.14364 -2.33984,-0.43164 -0.696,-0.312 -1.28367,-0.71865 -1.76367,-1.22265 -0.48,-0.528 -0.85124,-1.15305 -1.11524,-1.87305 -0.264,-0.744 -0.39648,-1.54811 -0.39648,-2.41211 0,-0.864 0.13248,-1.655 0.39648,-2.375 0.264,-0.744 0.63524,-1.36905 1.11524,-1.87305 0.48,-0.528 1.06767,-0.93465 1.76367,-1.22265 0.696,-0.312 1.47584,-0.46875 2.33984,-0.46875 z m 101.98828,0 c 0.864,0 1.64385,0.15675 2.33985,0.46875 0.696,0.288 1.28367,0.69465 1.76367,1.22265 0.48,0.504 0.85319,1.12905 1.11719,1.87305 0.264,0.72 0.39453,1.511 0.39453,2.375 0,0.864 -0.13053,1.66811 -0.39453,2.41211 -0.264,0.72 -0.63719,1.34505 -1.11719,1.87305 -0.48,0.504 -1.06767,0.91065 -1.76367,1.22265 -0.696,0.288 -1.47585,0.43164 -2.33985,0.43164 -0.864,0 -1.64384,-0.14364 -2.33984,-0.43164 -0.696,-0.312 -1.28367,-0.71865 -1.76367,-1.22265 -0.48,-0.528 -0.85319,-1.15305 -1.11719,-1.87305 -0.264,-0.744 -0.39453,-1.54811 -0.39453,-2.41211 0,-0.864 0.13053,-1.655 0.39453,-2.375 0.264,-0.744 0.63719,-1.36905 1.11719,-1.87305 0.48,-0.528 1.06767,-0.93465 1.76367,-1.22265 0.696,-0.312 1.47584,-0.46875 2.33984,-0.46875 z m 86.00391,0 c 0.864,0 1.64384,0.15675 2.33984,0.46875 0.696,0.288 1.28368,0.69465 1.76368,1.22265 0.48,0.504 0.85318,1.12905 1.11718,1.87305 0.264,0.72 0.39649,1.511 0.39649,2.375 0,0.864 -0.13249,1.66811 -0.39649,2.41211 -0.264,0.72 -0.63718,1.34505 -1.11718,1.87305 -0.48,0.504 -1.06768,0.91065 -1.76368,1.22265 -0.696,0.288 -1.47584,0.43164 -2.33984,0.43164 -0.864,0 -1.64384,-0.14364 -2.33984,-0.43164 -0.696,-0.312 -1.28367,-0.71865 -1.76367,-1.22265 -0.48,-0.528 -0.85319,-1.15305 -1.11719,-1.87305 -0.264,-0.744 -0.39453,-1.54811 -0.39453,-2.41211 0,-0.864 0.13053,-1.655 0.39453,-2.375 0.264,-0.744 0.63719,-1.36905 1.11719,-1.87305 0.48,-0.528 1.06767,-0.93465 1.76367,-1.22265 0.696,-0.312 1.47584,-0.46875 2.33984,-0.46875 z m 21.99609,0 c 0.864,0 1.64385,0.15675 2.33985,0.46875 0.696,0.288 1.28367,0.69465 1.76367,1.22265 0.48,0.504 0.85319,1.12905 1.11719,1.87305 0.264,0.72 0.39453,1.511 0.39453,2.375 0,0.864 -0.13053,1.66811 -0.39453,2.41211 -0.264,0.72 -0.63719,1.34505 -1.11719,1.87305 -0.48,0.504 -1.06767,0.91065 -1.76367,1.22265 -0.696,0.288 -1.47585,0.43164 -2.33985,0.43164 -0.864,0 -1.64384,-0.14364 -2.33984,-0.43164 -0.696,-0.312 -1.28367,-0.71865 -1.76367,-1.22265 -0.48,-0.528 -0.85319,-1.15305 -1.11719,-1.87305 -0.264,-0.744 -0.39453,-1.54811 -0.39453,-2.41211 0,-0.864 0.13053,-1.655 0.39453,-2.375 0.264,-0.744 0.63719,-1.36905 1.11719,-1.87305 0.48,-0.528 1.06767,-0.93465 1.76367,-1.22265 0.696,-0.312 1.47584,-0.46875 2.33984,-0.46875 z m 96.66016,0 c 0.864,0 1.64384,0.15675 2.33984,0.46875 0.696,0.288 1.28368,0.69465 1.76368,1.22265 0.48,0.504 0.85318,1.12905 1.11718,1.87305 0.264,0.72 0.39454,1.511 0.39454,2.375 0,0.864 -0.13054,1.66811 -0.39454,2.41211 -0.264,0.72 -0.63718,1.34505 -1.11718,1.87305 -0.48,0.504 -1.06768,0.91065 -1.76368,1.22265 -0.696,0.288 -1.47584,0.43164 -2.33984,0.43164 -0.864,0 -1.64384,-0.14364 -2.33984,-0.43164 -0.696,-0.312 -1.28367,-0.71865 -1.76367,-1.22265 -0.48,-0.528 -0.85319,-1.15305 -1.11719,-1.87305 -0.264,-0.744 -0.39453,-1.54811 -0.39453,-2.41211 0,-0.864 0.13053,-1.655 0.39453,-2.375 0.264,-0.744 0.63719,-1.36905 1.11719,-1.87305 0.48,-0.528 1.06767,-0.93465 1.76367,-1.22265 0.696,-0.312 1.47584,-0.46875 2.33984,-0.46875 z m -508.24805,4.24804 v 3.02344 h 8.85547 v -3.02344 z m 254.5918,2.01563 h 1.72852 v 1.08008 c 0,0.576 -0.084,1.16367 -0.25196,1.76367 -0.168,0.576 -0.44412,1.10398 -0.82812,1.58398 -0.384,0.48 -0.88772,0.8755 -1.51172,1.1875 -0.624,0.288 -1.37958,0.4336 -2.26758,0.4336 -1.128,0 -2.02917,-0.21644 -2.70117,-0.64844 -0.648,-0.432 -0.9707,-1.141 -0.9707,-2.125 0,-0.672 0.20332,-1.22425 0.61132,-1.65625 0.432,-0.432 0.97115,-0.76781 1.61915,-1.00781 0.672,-0.24 1.40526,-0.3948 2.19726,-0.4668 0.816,-0.096 1.607,-0.14453 2.375,-0.14453 z m 213.98438,0 h 1.72851 v 1.08008 c 0,0.576 -0.0839,1.16367 -0.25195,1.76367 -0.168,0.576 -0.44413,1.10398 -0.82813,1.58398 -0.384,0.48 -0.88772,0.8755 -1.51172,1.1875 -0.624,0.288 -1.38153,0.4336 -2.26953,0.4336 -1.128,0 -2.02722,-0.21644 -2.69922,-0.64844 -0.648,-0.432 -0.97265,-1.141 -0.97265,-2.125 0,-0.672 0.20528,-1.22425 0.61328,-1.65625 0.432,-0.432 0.97114,-0.76781 1.61914,-1.00781 0.672,-0.24 1.40331,-0.3948 2.19531,-0.4668 0.816,-0.096 1.60896,-0.14453 2.37696,-0.14453 z" /></g><defs
     id="defs46"><filter
       id="filter0_f_2671_3971"
       x="-88.715797"
       y="-375.04901"
       width="1589.6801"
       height="975.59003"
       filterUnits="userSpaceOnUse"
       color-interpolation-filters="sRGB"><feFlood
         flood-opacity="0"
         result="BackgroundImageFix"
         id="feFlood30" /><feBlend
         mode="normal"
         in="SourceGraphic"
         in2="BackgroundImageFix"
         result="shape"
         id="feBlend30" /><feGaussianBlur
         stdDeviation="150"
         result="effect1_foregroundBlur_2671_3971"
         id="feGaussianBlur30" /></filter><filter
       id="filter1_f_2671_3971"
       x="608"
       y="-57"
       width="1238"
       height="1128"
       filterUnits="userSpaceOnUse"
       color-interpolation-filters="sRGB"><feFlood
         flood-opacity="0"
         result="BackgroundImageFix"
         id="feFlood31" /><feBlend
         mode="normal"
         in="SourceGraphic"
         in2="BackgroundImageFix"
         result="shape"
         id="feBlend31" /><feGaussianBlur
         stdDeviation="110"
         result="effect1_foregroundBlur_2671_3971"
         id="feGaussianBlur31" /></filter><filter
       id="filter2_f_2671_3971"
       x="-800"
       y="-800"
       width="1234"
       height="1234"
       filterUnits="userSpaceOnUse"
       color-interpolation-filters="sRGB"><feFlood
         flood-opacity="0"
         result="BackgroundImageFix"
         id="feFlood32" /><feBlend
         mode="normal"
         in="SourceGraphic"
         in2="BackgroundImageFix"
         result="shape"
         id="feBlend32" /><feGaussianBlur
         stdDeviation="125"
         result="effect1_foregroundBlur_2671_3971"
         id="feGaussianBlur32" /></filter><linearGradient
       id="paint0_linear_2671_3971"
       x1="1023.23"
       y1="59.6703"
       x2="1071.37"
       y2="56.965801"
       gradientUnits="userSpaceOnUse"><stop
         stop-color="#0586FD"
         id="stop32" /><stop
         offset="0.88"
         stop-color="#111FFF"
         id="stop33" /></linearGradient><linearGradient
       id="paint1_linear_2671_3971"
       x1="990.03101"
       y1="84.277"
       x2="1042.16"
       y2="7.1632199"
       gradientUnits="userSpaceOnUse"><stop
         stop-color="#0586FD"
         id="stop34" /><stop
         offset="0.88"
         stop-color="#111FFF"
         id="stop35" /></linearGradient><linearGradient
       id="paint2_linear_2671_3971"
       x1="992.55701"
       y1="90.219597"
       x2="1061.97"
       y2="32.736698"
       gradientUnits="userSpaceOnUse"><stop
         stop-color="#0586FD"
         id="stop36" /><stop
         offset="0.88"
         stop-color="#111FFF"
         id="stop37" /></linearGradient><linearGradient
       id="paint3_linear_2671_3971"
       x1="1006.62"
       y1="91.752998"
       x2="1058.09"
       y2="45.160198"
       gradientUnits="userSpaceOnUse"><stop
         stop-color="#0586FD"
         id="stop38" /><stop
         offset="0.88"
         stop-color="#111FFF"
         id="stop39" /></linearGradient><linearGradient
       id="paint4_linear_2671_3971"
       x1="1021.11"
       y1="63.3363"
       x2="1040.6"
       y2="24.9083"
       gradientUnits="userSpaceOnUse"><stop
         stop-color="#0586FD"
         id="stop40" /><stop
         offset="0.88"
         stop-color="#111FFF"
         id="stop41" /></linearGradient><linearGradient
       id="paint5_linear_2671_3971"
       x1="965.11102"
       y1="89.495903"
       x2="1058.67"
       y2="22.0912"
       gradientUnits="userSpaceOnUse"><stop
         stop-color="#0586FD"
         id="stop42" /><stop
         offset="0.88"
         stop-color="#111FFF"
         id="stop43" /></linearGradient><clipPath
       id="clip0_2671_3971"><path
         d="M 0,20 C 0,8.9543 8.95431,0 20,0 h 1240 c 11.05,0 20,8.95431 20,20 v 185 c 0,11.046 -8.95,20 -20,20 H 20 C 8.95431,225 0,216.046 0,205 Z"
         fill="#ffffff"
         id="path43" /></clipPath><clipPath
       id="clip4_2671_3971"><rect
         width="236.364"
         height="40"
         fill="#ffffff"
         transform="translate(995,40)"
         id="rect46"
         x="0"
         y="0" /></clipPath></defs><g
     id="g49"
     style="stroke:#ffffff;stroke-width:6.5;stroke-linecap:round;stroke-linejoin:round;stroke-dasharray:none;stroke-opacity:1"
     transform="matrix(0.83032175,0,0,0.83032175,9.0336146,7.3376384)"><path
       d="m 51.023962,48.316328 v 26.981125 c 0,4.23989 3.469,7.70889 7.7089,7.70889 h 15.41778 a 7.7088929,7.7088929 0 0 0 7.70889,-7.70889 V 48.316328"
       id="path1-9"
       style="stroke:#ffffff;stroke-width:6.5;stroke-linecap:round;stroke-linejoin:round;stroke-dasharray:none;stroke-opacity:1" /><path
       d="M 66.441752,48.316328 V 125.40527"
       id="path2-3"
       style="stroke:#ffffff;stroke-width:6.5;stroke-linecap:round;stroke-linejoin:round;stroke-dasharray:none;stroke-opacity:1" /><path
       d="M 120.404,98.424133 V 48.316328 A 19.272232,19.272232 0 0 0 101.13177,67.58856 v 23.126683 c 0,4.23989 3.469,7.70889 7.70889,7.70889 z m 0,0 v 26.981137"
       id="path3-7"
       style="stroke:#ffffff;stroke-width:6.5;stroke-linecap:round;stroke-linejoin:round;stroke-dasharray:none;stroke-opacity:1" /></g></svg>
