<?xml version="1.0" encoding="UTF-8" standalone="no"?>
<svg
   width="1280"
   height="225"
   viewBox="0 0 1280 225"
   fill="none"
   version="1.1"
   id="svg46"
   xml:space="preserve"
   xmlns="http://www.w3.org/2000/svg"
   xmlns:svg="http://www.w3.org/2000/svg"><g
     clip-path="url(#clip0_2671_3971)"
     id="g30"><path
       d="M 0,20 C 0,8.9543 8.95431,0 20,0 h 1240 c 11.05,0 20,8.95431 20,20 v 185 c 0,11.046 -8.95,20 -20,20 H 20 C 8.95431,225 0,216.046 0,205 Z"
       fill="#0f1832"
       id="path1" /><g
       filter="url(#filter0_f_2671_3971)"
       id="g2"><path
         d="M 1062.46,53.6321 C 670.717,-179.405 333.235,-43.4902 213.463,53.5969 183.817,175.462 464.053,266.45 607.877,296.712 922.634,312.784 1454.21,286.669 1062.46,53.6321 Z"
         fill="#0231ff"
         fill-opacity="0.7"
         id="path2" /></g><g
       filter="url(#filter1_f_2671_3971)"
       id="g3"><path
         d="m 922.306,350.119 c -144.776,142.979 -91.2,336.255 -46.314,415.021 0,129.545 448.568,98.358 628.678,0 180.11,-98.357 104.64,-243.495 110.64,-415.021 4.81,-137.221 -191.83,-181.921 -290.75,-187.119 -73.76,2.799 -257.48,44.141 -402.254,187.119 z"
         fill="#6c01db"
         id="path3" /></g><path
       d="m -863.165,-544.181 c 3.51,-33.719 39.923,-53.273 69.971,-37.572 L 1716.64,729.65 c 34.15,17.839 34.42,66.606 0.48,84.831 L -1085.92,2319.65 c -33.94,18.23 -74.44,-8.94 -70.45,-47.26 z"
       fill="#6f5ac8"
       fill-opacity="0.1"
       id="path4" /><path
       d="m -863.165,-624.181 c 3.51,-33.719 39.923,-53.273 69.971,-37.572 L 1716.64,649.65 c 34.15,17.839 34.42,66.606 0.48,84.831 L -1085.92,2239.65 c -33.94,18.23 -74.44,-8.94 -70.45,-47.26 z"
       fill="#6f5ac8"
       fill-opacity="0.1"
       id="path5" /><path
       d="m -863.165,-700.181 c 3.51,-33.719 39.923,-53.273 69.971,-37.572 L 1716.64,573.65 c 34.15,17.839 34.42,66.606 0.48,84.831 L -1085.92,2163.65 c -33.94,18.23 -74.44,-8.94 -70.45,-47.26 z"
       fill="#6f5ac8"
       fill-opacity="0.1"
       id="path6" /><path
       d="m -863.165,-775.181 c 3.51,-33.719 39.923,-53.273 69.971,-37.572 L 1716.64,498.65 c 34.15,17.839 34.42,66.606 0.48,84.831 L -1085.92,2088.65 c -33.94,18.23 -74.44,-8.94 -70.45,-47.26 z"
       fill="#6f5ac8"
       fill-opacity="0.1"
       id="path7" /><path
       d="m -863.165,-850.181 c 3.51,-33.719 39.923,-53.273 69.971,-37.572 L 1716.64,423.65 c 34.15,17.839 34.42,66.606 0.48,84.831 L -1085.92,2013.65 c -33.94,18.23 -74.44,-8.94 -70.45,-47.26 z"
       fill="#6f5ac8"
       fill-opacity="0.1"
       id="path8" /><path
       d="m -724.802,-850.181 c 3.511,-33.719 39.924,-53.273 69.971,-37.572 L 1855.01,423.65 c 34.14,17.839 34.41,66.606 0.48,84.831 L -947.554,2013.65 c -33.939,18.23 -74.436,-8.94 -70.446,-47.26 z"
       fill="#6f5ac8"
       fill-opacity="0.1"
       id="path9" /><g
       filter="url(#filter2_f_2671_3971)"
       id="g9"><circle
         cx="-183"
         cy="-183"
         r="367"
         fill="#031150"
         id="circle9" /></g><g
       clip-path="url(#clip1_2671_3971)"
       id="g14" /><g
       clip-path="url(#clip4_2671_3971)"
       id="g29"><path
         d="m 1040.13,46.1648 c -1.15,-2.6182 -3.38,-1.2364 -4.73,0.5818 l -1.91,3.3091 12.69,21.9454 h 8.82 z"
         fill="url(#paint0_linear_2671_3971)"
         id="path15"
         style="fill:url(#paint0_linear_2671_3971)" /><path
         d="m 1024.13,42.8177 c -2.13,-2.5818 -6.26,-3.5272 -9.35,-2.0363 -1.49,0.6909 -2.73,1.7636 -3.6,3.2545 0,0.0182 -16.18,27.9637 -16.18,27.9637 h 9.05 l 14.04,-23.9819 1.16,-2.0182 c 0.22,-0.3636 2.68,-4.4909 4.88,-3.1818 z"
         fill="url(#paint1_linear_2671_3971)"
         id="path16"
         style="fill:url(#paint1_linear_2671_3971)" /><path
         d="m 1013.84,67.4736 c 0.49,0.7818 4.27,7.6546 4.83,8.1273 2.29,1 3.86,-2.8546 4.82,-4.3636 l -5.85,-10.1455 z"
         fill="url(#paint2_linear_2671_3971)"
         id="path17"
         style="fill:url(#paint2_linear_2671_3971)" /><path
         d="m 1031.96,61.0918 -6.63,11.5091 c 0,0 -2.86,6.0909 -5.46,4.9454 1.44,1.6182 3.57,2.5273 5.73,2.4546 2.49,-0.1091 4.78,-1.4546 6.05,-3.6546 l 4.62,-8.0181 c -0.05,-0.0909 -4.25,-7.1637 -4.31,-7.2364 z"
         fill="url(#paint3_linear_2671_3971)"
         id="path18"
         style="fill:url(#paint3_linear_2671_3971)" /><path
         d="m 1037.8,42.6002 c -2.33,-2.7091 -6.56,-3.4182 -9.62,-1.5637 -2.89,1.4546 -5.78,8.5091 -7.56,11.091 0.03,0.0727 4.42,7.6363 4.45,7.709 1.64,-2.8363 5.38,-9.3272 6.98,-12.0909 1.11,-1.8181 3.02,-6.4545 5.75,-5.1454 z"
         fill="url(#paint4_linear_2671_3971)"
         id="path19"
         style="fill:url(#paint4_linear_2671_3971)" /><path
         d="m 1024.76,44.8543 c -1.61,2.5818 -3.09,5.7454 -4.14,7.2727 l -1.24,-2.1273 c 0.78,-1.4545 3.24,-5.9636 5.38,-5.1454 z"
         fill="url(#paint5_linear_2671_3971)"
         id="path20"
         style="fill:url(#paint5_linear_2671_3971)" /><path
         d="m 1085.45,54.3095 c -1.14,-0.0182 -2.27,0.2364 -3.29,0.7455 -1.01,0.5091 -1.91,1.2727 -2.56,2.2 -0.64,-0.9273 -1.51,-1.6728 -2.51,-2.1819 -1,-0.5091 -2.13,-0.7636 -3.25,-0.7454 -4.49,0 -7.55,3.6182 -7.55,8.9818 v 8.6727 h 3.46 v -8.6727 c 0,-3.4909 1.54,-5.5636 4.12,-5.5636 2.58,0 4.06,2.1454 4.06,5.5636 v 8.6727 h 3.27 v -8.6727 c 0,-3.4909 1.55,-5.5636 4.15,-5.5636 2.6,0 4.03,2.1454 4.03,5.5636 v 8.6727 h 3.46 v -8.6727 c 0.01,-5.3818 -2.95,-9 -7.39,-9 z"
         fill="#ffffff"
         id="path21" /><path
         d="m 1103.62,54.0195 c -4.98,0 -8.62,3.7819 -8.62,8.9819 0,5.2 3.62,8.9818 8.62,8.9818 5,0 8.62,-3.7818 8.62,-8.9818 0,-5.2 -3.66,-8.9819 -8.62,-8.9819 z m 0,14.5455 c -3.06,0 -5.18,-2.2727 -5.18,-5.5636 0,-3.291 2.07,-5.5637 5.18,-5.5637 3.09,0 5.14,2.2364 5.14,5.5637 0,3.3272 -2.12,5.5636 -5.14,5.5636 z"
         fill="#ffffff"
         id="path22" /><path
         d="m 1122.4,54.3105 c -4.53,0 -7.94,3.8546 -7.94,8.9819 v 8.6727 h 3.45 v -8.6727 c 0,-3.2182 1.85,-5.5637 4.51,-5.5637 2.65,0 4.4,2.3455 4.4,5.5637 v 8.6727 h 3.45 v -8.6727 c 0.04,-5.1091 -3.36,-8.9819 -7.87,-8.9819 z"
         fill="#ffffff"
         id="path23" /><path
         d="m 1141,54.0195 c -4.98,0 -8.62,3.7819 -8.62,8.9819 0,5.2 3.62,9 8.62,9 5,0 8.56,-3.7819 8.56,-8.9819 0,-5.2 -3.6,-9 -8.56,-9 z m 0,14.5455 c -3.05,0 -5.18,-2.2727 -5.18,-5.5636 0,-3.291 2.09,-5.5637 5.18,-5.5637 3.09,0 5.15,2.2364 5.15,5.5637 0,3.3272 -2.11,5.5636 -5.15,5.5636 z"
         fill="#ffffff"
         id="path24" /><path
         d="m 1160.51,68.5273 c -0.71,0 -1.42,-0.1273 -2.07,-0.4182 -0.66,-0.2727 -1.26,-0.6909 -1.75,-1.2 -0.49,-0.5091 -0.87,-1.1272 -1.13,-1.8 -0.25,-0.6727 -0.34,-1.3818 -0.3,-2.0909 -0.04,-0.7091 0.05,-1.4182 0.3,-2.0909 0.26,-0.6727 0.62,-1.2909 1.13,-1.8 0.49,-0.5091 1.09,-0.9273 1.75,-1.2 0.65,-0.2727 1.36,-0.4182 2.07,-0.4182 1.04,-0.0727 2.07,0.2 2.93,0.7818 0.85,0.5819 1.51,1.4364 1.82,2.4182 h 3.54 c -0.34,-1.9091 -1.38,-3.6363 -2.91,-4.8363 -1.53,-1.2 -3.43,-1.8182 -5.38,-1.7273 -1.16,-0.0182 -2.31,0.2 -3.4,0.6545 -1.07,0.4364 -2.05,1.1091 -2.85,1.9455 -0.8,0.8364 -1.44,1.8182 -1.86,2.9091 -0.42,1.0909 -0.6,2.2364 -0.54,3.4 -0.04,1.1636 0.14,2.3091 0.56,3.4 0.42,1.0727 1.04,2.0727 1.85,2.8909 0.8,0.8364 1.79,1.4909 2.86,1.9455 1.07,0.4545 2.22,0.6727 3.38,0.6727 2,0.0727 3.95,-0.5818 5.47,-1.8546 1.55,-1.2727 2.57,-3.0545 2.88,-5.0181 h -3.51 c -0.29,1.0363 -0.93,1.9454 -1.8,2.5818 -0.89,0.6 -1.95,0.9091 -3.04,0.8545 z"
         fill="#ffffff"
         id="path25" /><path
         d="m 1174.45,48.3457 h -3.27 v 23.4546 h 3.27 z"
         fill="#ffffff"
         id="path26" /><path
         d="m 1185.33,54.0195 c -4.98,0 -8.62,3.7819 -8.62,8.9819 0,5.2 3.62,8.9818 8.62,8.9818 5,0 8.56,-3.7818 8.56,-8.9818 0,-5.2 -3.6,-8.9819 -8.56,-8.9819 z m 0,14.5455 c -3.06,0 -5.18,-2.2727 -5.18,-5.5636 0,-3.291 2.07,-5.5637 5.18,-5.5637 3.09,0 5.2,2.2546 5.2,5.5637 0,3.309 -2.17,5.5636 -5.2,5.5636 z"
         fill="#ffffff"
         id="path27" /><path
         d="m 1208.64,63.0184 c 0,3.2182 -1.95,5.5637 -4.49,5.5637 -2.55,0 -4.6,-2.3273 -4.6,-5.5637 v -8.6727 h -3.46 v 8.6727 c 0,5.1091 3.44,8.9818 7.98,8.9818 4.57,0 7.84,-3.8727 7.84,-8.9818 v -8.6727 h -3.27 z"
         fill="#ffffff"
         id="path28" /><path
         d="m 1227.91,47.9824 v 7.9818 c -1.49,-1.3272 -3.42,-2.0727 -5.44,-2.0545 -4.82,0 -8.43,3.8545 -8.43,8.9818 0,5.1273 3.63,8.9818 8.63,8.9818 5,0 8.69,-3.7818 8.69,-8.9818 V 47.9824 Z m -5.26,20.5818 c -3.52,0 -5.14,-2.8727 -5.14,-5.5636 -0.06,-0.7091 0.04,-1.4182 0.27,-2.0909 0.24,-0.6727 0.6,-1.2909 1.09,-1.8182 0.49,-0.5273 1.08,-0.9454 1.73,-1.2182 0.65,-0.2909 1.36,-0.4363 2.07,-0.4363 0.71,0 1.42,0.1454 2.08,0.4363 0.65,0.2909 1.23,0.7091 1.72,1.2182 0.49,0.5273 0.86,1.1455 1.09,1.8182 0.24,0.6727 0.33,1.3818 0.28,2.0909 0,2.7636 -1.6,5.5636 -5.19,5.5636 z"
         fill="#ffffff"
         id="path29" /></g></g><defs
     id="defs46"><filter
       id="filter0_f_2671_3971"
       x="-88.715797"
       y="-375.04901"
       width="1589.6801"
       height="975.59003"
       filterUnits="userSpaceOnUse"
       color-interpolation-filters="sRGB"><feFlood
         flood-opacity="0"
         result="BackgroundImageFix"
         id="feFlood30" /><feBlend
         mode="normal"
         in="SourceGraphic"
         in2="BackgroundImageFix"
         result="shape"
         id="feBlend30" /><feGaussianBlur
         stdDeviation="150"
         result="effect1_foregroundBlur_2671_3971"
         id="feGaussianBlur30" /></filter><filter
       id="filter1_f_2671_3971"
       x="608"
       y="-57"
       width="1238"
       height="1128"
       filterUnits="userSpaceOnUse"
       color-interpolation-filters="sRGB"><feFlood
         flood-opacity="0"
         result="BackgroundImageFix"
         id="feFlood31" /><feBlend
         mode="normal"
         in="SourceGraphic"
         in2="BackgroundImageFix"
         result="shape"
         id="feBlend31" /><feGaussianBlur
         stdDeviation="110"
         result="effect1_foregroundBlur_2671_3971"
         id="feGaussianBlur31" /></filter><filter
       id="filter2_f_2671_3971"
       x="-800"
       y="-800"
       width="1234"
       height="1234"
       filterUnits="userSpaceOnUse"
       color-interpolation-filters="sRGB"><feFlood
         flood-opacity="0"
         result="BackgroundImageFix"
         id="feFlood32" /><feBlend
         mode="normal"
         in="SourceGraphic"
         in2="BackgroundImageFix"
         result="shape"
         id="feBlend32" /><feGaussianBlur
         stdDeviation="125"
         result="effect1_foregroundBlur_2671_3971"
         id="feGaussianBlur32" /></filter><linearGradient
       id="paint0_linear_2671_3971"
       x1="1023.23"
       y1="59.6703"
       x2="1071.37"
       y2="56.965801"
       gradientUnits="userSpaceOnUse"><stop
         stop-color="#0586FD"
         id="stop32" /><stop
         offset="0.88"
         stop-color="#111FFF"
         id="stop33" /></linearGradient><linearGradient
       id="paint1_linear_2671_3971"
       x1="990.03101"
       y1="84.277"
       x2="1042.16"
       y2="7.1632199"
       gradientUnits="userSpaceOnUse"><stop
         stop-color="#0586FD"
         id="stop34" /><stop
         offset="0.88"
         stop-color="#111FFF"
         id="stop35" /></linearGradient><linearGradient
       id="paint2_linear_2671_3971"
       x1="992.55701"
       y1="90.219597"
       x2="1061.97"
       y2="32.736698"
       gradientUnits="userSpaceOnUse"><stop
         stop-color="#0586FD"
         id="stop36" /><stop
         offset="0.88"
         stop-color="#111FFF"
         id="stop37" /></linearGradient><linearGradient
       id="paint3_linear_2671_3971"
       x1="1006.62"
       y1="91.752998"
       x2="1058.09"
       y2="45.160198"
       gradientUnits="userSpaceOnUse"><stop
         stop-color="#0586FD"
         id="stop38" /><stop
         offset="0.88"
         stop-color="#111FFF"
         id="stop39" /></linearGradient><linearGradient
       id="paint4_linear_2671_3971"
       x1="1021.11"
       y1="63.3363"
       x2="1040.6"
       y2="24.9083"
       gradientUnits="userSpaceOnUse"><stop
         stop-color="#0586FD"
         id="stop40" /><stop
         offset="0.88"
         stop-color="#111FFF"
         id="stop41" /></linearGradient><linearGradient
       id="paint5_linear_2671_3971"
       x1="965.11102"
       y1="89.495903"
       x2="1058.67"
       y2="22.0912"
       gradientUnits="userSpaceOnUse"><stop
         stop-color="#0586FD"
         id="stop42" /><stop
         offset="0.88"
         stop-color="#111FFF"
         id="stop43" /></linearGradient><clipPath
       id="clip0_2671_3971"><path
         d="M 0,20 C 0,8.9543 8.95431,0 20,0 h 1240 c 11.05,0 20,8.95431 20,20 v 185 c 0,11.046 -8.95,20 -20,20 H 20 C 8.95431,225 0,216.046 0,205 Z"
         fill="#ffffff"
         id="path43" /></clipPath><clipPath
       id="clip1_2671_3971"><path
         d="m 48,57 c 0,-6.6274 5.3726,-12 12,-12 h 56 c 6.627,0 12,5.3726 12,12 v 56 c 0,6.627 -5.373,12 -12,12 H 60 c -6.6274,0 -12,-5.373 -12,-12 z"
         fill="#ffffff"
         id="path44" /></clipPath><clipPath
       id="clip4_2671_3971"><rect
         width="236.364"
         height="40"
         fill="#ffffff"
         transform="translate(995,40)"
         id="rect46"
         x="0"
         y="0" /></clipPath></defs><path
     id="text48"
     style="font-style:normal;font-variant:normal;font-weight:500;font-stretch:normal;font-size:38px;font-family:Inter;-inkscape-font-specification:'Inter Medium';text-align:start;writing-mode:lr-tb;direction:ltr;text-anchor:start;fill:#ffffff;fill-opacity:1;stroke:none;stroke-width:6.5;stroke-linecap:round;stroke-linejoin:round"
     d="m 276.55664,146.19531 c -1.9668,0 -3.69336,0.3392 -5.17773,1.01953 -1.48438,0.66797 -2.63477,1.60808 -3.45118,2.82032 -0.8164,1.19987 -1.22461,2.61002 -1.22461,4.23046 0,1.91732 0.63803,3.47592 1.91211,4.67579 1.28646,1.19987 3.32748,2.1276 6.12305,2.7832 l 3.02344,0.72461 c 1.28646,0.29687 2.31315,0.64323 3.08008,1.03906 0.77929,0.39583 1.3431,0.85873 1.68945,1.39063 0.35872,0.51953 0.53711,1.13281 0.53711,1.83789 0,0.90299 -0.25977,1.6875 -0.7793,2.35547 -0.51953,0.65559 -1.24218,1.16276 -2.16992,1.52148 -0.91536,0.35872 -2.00391,0.53906 -3.26562,0.53906 -1.37305,0 -2.55534,-0.22982 -3.54493,-0.6875 -0.97721,-0.45768 -1.72461,-1.11849 -2.24414,-1.98437 -0.51953,-0.87826 -0.78646,-1.92448 -0.79883,-3.13672 h -4.11914 c 0,1.94206 0.43295,3.61914 1.29883,5.0293 0.86589,1.41015 2.09766,2.49153 3.69336,3.24609 1.59571,0.75456 3.50065,1.13281 5.71485,1.13281 2.09049,0 3.90885,-0.34114 5.45507,-1.02148 1.54623,-0.68034 2.7461,-1.63802 3.59961,-2.875 0.85352,-1.23698 1.2793,-2.68425 1.2793,-4.3418 0,-0.98958 -0.16602,-1.88021 -0.5,-2.67187 -0.32161,-0.80404 -0.81641,-1.51628 -1.48438,-2.13477 -0.65559,-0.63086 -1.49674,-1.18034 -2.52343,-1.65039 -1.01433,-0.47005 -2.2142,-0.87305 -3.59961,-1.20703 L 276.0918,158.125 c -1.26172,-0.30924 -2.28125,-0.64844 -3.06055,-1.01953 -0.76693,-0.37109 -1.33073,-0.80404 -1.68945,-1.29883 -0.35873,-0.49479 -0.53711,-1.07617 -0.53711,-1.74414 0,-0.84115 0.24023,-1.57812 0.72265,-2.20898 0.4948,-0.64323 1.16993,-1.14323 2.02344,-1.50196 0.86589,-0.37109 1.84831,-0.55664 2.94922,-0.55664 1.74414,0 3.14909,0.45768 4.21289,1.37305 1.0638,0.90299 1.64518,2.15234 1.74414,3.74805 h 3.98828 c -0.0618,-1.80599 -0.5,-3.35938 -1.3164,-4.65821 -0.80404,-1.29883 -1.93685,-2.30078 -3.39649,-3.00586 -1.45963,-0.70507 -3.18424,-1.05664 -5.17578,-1.05664 z m 535.31641,0 c -2.53581,0 -4.77474,0.59896 -6.7168,1.79883 -1.94206,1.1875 -3.45638,2.85742 -4.54492,5.00977 -1.08854,2.13997 -1.63281,4.63346 -1.63281,7.47851 0,2.82031 0.54427,5.29948 1.63281,7.43946 1.08854,2.13997 2.60286,3.80989 4.54492,5.00976 1.94206,1.19987 4.18099,1.80078 6.7168,1.80078 1.50911,0 2.91406,-0.22265 4.21289,-0.66797 1.3112,-0.44531 2.47916,-1.08854 3.50586,-1.92968 1.03906,-0.84115 1.89258,-1.85547 2.56054,-3.04297 0.68034,-1.1875 1.13802,-2.51107 1.37305,-3.97071 h -4.17383 c -0.22265,0.92774 -0.55664,1.75651 -1.00195,2.48633 -0.44531,0.72982 -0.98958,1.34831 -1.63281,1.85547 -0.64323,0.49479 -1.37305,0.87109 -2.18946,1.13086 -0.80403,0.2474 -1.67708,0.37109 -2.61718,0.37109 -1.81836,0 -3.38217,-0.43815 -4.69336,-1.3164 -1.3112,-0.87826 -2.32552,-2.10287 -3.04297,-3.67383 -0.70508,-1.57096 -1.0586,-3.40169 -1.0586,-5.49219 0,-2.10286 0.35352,-3.94075 1.0586,-5.51172 0.71745,-1.58333 1.73177,-2.81315 3.04297,-3.6914 1.31119,-0.87826 2.875,-1.31836 4.69336,-1.31836 0.9401,0 1.81836,0.13086 2.63476,0.39062 0.81641,0.2474 1.54623,0.6237 2.18946,1.13086 0.64322,0.50716 1.1875,1.12565 1.63281,1.85547 0.44531,0.72982 0.76692,1.56576 0.96484,2.50586 h 4.19336 c -0.2474,-1.47201 -0.70508,-2.80273 -1.37305,-3.99023 -0.66796,-1.1875 -1.52148,-2.20183 -2.56054,-3.04297 -1.0267,-0.84115 -2.19466,-1.48438 -3.50586,-1.92969 -1.29883,-0.45768 -2.70378,-0.68555 -4.21289,-0.68555 z m -328.89649,0.31446 c -0.69271,0 -1.27929,0.23502 -1.76172,0.70507 -0.47005,0.45769 -0.70507,1.0267 -0.70507,1.70704 0,0.66796 0.23502,1.23697 0.70507,1.70703 0.48243,0.45768 1.06901,0.6875 1.76172,0.6875 0.69271,0 1.28125,-0.22982 1.76367,-0.6875 0.48243,-0.47006 0.72266,-1.03907 0.72266,-1.70703 0,-0.68034 -0.24023,-1.24935 -0.72266,-1.70704 -0.48242,-0.47005 -1.07096,-0.70507 -1.76367,-0.70507 z m 61.48633,0 c -0.69271,0 -1.2793,0.23502 -1.76172,0.70507 -0.47005,0.45769 -0.70508,1.0267 -0.70508,1.70704 0,0.66796 0.23503,1.23697 0.70508,1.70703 0.48242,0.45768 1.06901,0.6875 1.76172,0.6875 0.69271,0 1.28125,-0.22982 1.76367,-0.6875 0.48242,-0.47006 0.72266,-1.03907 0.72266,-1.70703 0,-0.68034 -0.24024,-1.24935 -0.72266,-1.70704 -0.48242,-0.47005 -1.07096,-0.70507 -1.76367,-0.70507 z m 99.78711,0 c -0.69271,0 -1.2793,0.23502 -1.76172,0.70507 -0.47005,0.45769 -0.70508,1.0267 -0.70508,1.70704 0,0.66796 0.23503,1.23697 0.70508,1.70703 0.48242,0.45768 1.06901,0.6875 1.76172,0.6875 0.69271,0 1.28125,-0.22982 1.76367,-0.6875 0.48242,-0.47006 0.72266,-1.03907 0.72266,-1.70703 0,-0.68034 -0.24024,-1.24935 -0.72266,-1.70704 -0.48242,-0.47005 -1.07096,-0.70507 -1.76367,-0.70507 z m 401.8398,0 c -0.6927,0 -1.2812,0.23502 -1.7636,0.70507 -0.4701,0.45769 -0.7051,1.0267 -0.7051,1.70704 0,0.66796 0.235,1.23697 0.7051,1.70703 0.4824,0.45768 1.0709,0.6875 1.7636,0.6875 0.6928,0 1.2793,-0.22982 1.7618,-0.6875 0.4824,-0.47006 0.7246,-1.03907 0.7246,-1.70703 0,-0.68034 -0.2422,-1.24935 -0.7246,-1.70704 -0.4825,-0.47005 -1.069,-0.70507 -1.7618,-0.70507 z m 61.4864,0 c -0.6927,0 -1.2793,0.23502 -1.7617,0.70507 -0.4701,0.45769 -0.7051,1.0267 -0.7051,1.70704 0,0.66796 0.235,1.23697 0.7051,1.70703 0.4824,0.45768 1.069,0.6875 1.7617,0.6875 0.6927,0 1.2812,-0.22982 1.7636,-0.6875 0.4825,-0.47006 0.7227,-1.03907 0.7227,-1.70703 0,-0.68034 -0.2402,-1.24935 -0.7227,-1.70704 -0.4824,-0.47005 -1.0709,-0.70507 -1.7636,-0.70507 z M 50.341797,146.64062 v 27.64649 h 4.0625 V 159.2207 c 0,-0.60612 -0.0052,-1.27409 -0.01758,-2.0039 -0.01237,-0.74219 -0.0319,-1.51628 -0.05664,-2.32032 -0.01237,-0.80403 -0.02995,-1.61328 -0.05469,-2.42968 -0.0013,-0.0882 -0.0026,-0.17616 -0.0039,-0.26368 0.06968,0.19952 0.137969,0.39876 0.207032,0.59766 0.321614,0.87826 0.618489,1.7194 0.890625,2.52344 0.284505,0.79167 0.54427,1.52148 0.779297,2.18945 0.235026,0.6556 0.445312,1.22461 0.630859,1.70703 l 5.882812,15.06641 h 3.376953 l 5.826172,-15.06641 c 0.185547,-0.48242 0.388672,-1.05143 0.611328,-1.70703 0.235027,-0.66797 0.489584,-1.39778 0.761719,-2.18945 0.272136,-0.80404 0.556641,-1.64518 0.853516,-2.52344 0.112021,-0.32262 0.223587,-0.64646 0.333984,-0.9707 -0.0056,0.20997 -0.01304,0.42248 -0.01953,0.63672 -0.01237,0.8164 -0.02995,1.62565 -0.05469,2.42968 -0.02474,0.80404 -0.04427,1.57813 -0.05664,2.32032 v 2.0039 15.06641 h 4.044922 v -27.64649 h -5.826172 l -6.103516,16.19727 c -0.148437,0.45768 -0.341146,1.02149 -0.576172,1.68945 -0.235026,0.66797 -0.47526,1.36589 -0.722656,2.09571 -0.247396,0.72981 -0.477213,1.42252 -0.6875,2.07812 -0.01215,0.0379 -0.02326,0.0762 -0.03516,0.11328 -0.01257,-0.0371 -0.0262,-0.0754 -0.03906,-0.11328 -0.210286,-0.6556 -0.438151,-1.34831 -0.685547,-2.07812 -0.247395,-0.72982 -0.489583,-1.42774 -0.724609,-2.09571 -0.235026,-0.66796 -0.432943,-1.23177 -0.59375,-1.68945 l -6.197265,-16.19727 z m 96.835933,0 v 27.64649 h 4.11915 V 162.0957 h 12.82226 v -3.5625 h -12.82226 v -8.27539 h 13.8789 v -3.61719 z m 76.84961,0 v 10.89063 h -0.0371 c -0.42057,-0.72982 -0.9401,-1.32878 -1.55859,-1.79883 -0.60612,-0.47005 -1.28646,-0.82357 -2.04102,-1.05859 -0.75455,-0.2474 -1.55859,-0.3711 -2.4121,-0.3711 -1.6823,0 -3.15951,0.43295 -4.4336,1.29883 -1.27409,0.85352 -2.27083,2.04818 -2.98828,3.58203 -0.70508,1.52149 -1.05664,3.29037 -1.05664,5.30664 0,2.01628 0.35156,3.79037 1.05664,5.32422 0.70508,1.52149 1.69466,2.71615 2.96875,3.58203 1.28646,0.85352 2.778,1.2793 4.47266,1.2793 0.85351,0 1.65755,-0.1237 2.41211,-0.37109 0.75455,-0.2474 1.4401,-0.61849 2.05859,-1.11328 0.61849,-0.50717 1.15039,-1.13802 1.5957,-1.89258 h 0.0371 v 2.98828 h 3.8418 v -27.64649 z m 141.22071,0 v 27.64649 h 3.91406 v -27.64649 z m 46.20117,0 -10.03906,27.64649 h 4.3789 l 2.53125,-7.18164 h 11.13867 l 2.45508,7.18164 h 4.47071 l -9.96289,-27.64649 z m 61.24805,0 v 27.64649 h 3.91601 v -27.64649 z m 230.46484,0 v 27.64649 h 4.0625 V 159.2207 c 0,-0.60612 -0.005,-1.27409 -0.0176,-2.0039 -0.0124,-0.74219 -0.0319,-1.51628 -0.0566,-2.32032 -0.0124,-0.80403 -0.0299,-1.61328 -0.0547,-2.42968 -0.001,-0.0882 -0.003,-0.17616 -0.004,-0.26368 0.0697,0.19952 0.13797,0.39876 0.20703,0.59766 0.32161,0.87826 0.61849,1.7194 0.89062,2.52344 0.28451,0.79167 0.54427,1.52148 0.7793,2.18945 0.23503,0.6556 0.44531,1.22461 0.63086,1.70703 l 5.88281,15.06641 h 3.37696 l 5.82617,-15.06641 c 0.18554,-0.48242 0.38867,-1.05143 0.61133,-1.70703 0.23502,-0.66797 0.48958,-1.39778 0.76171,-2.18945 0.27214,-0.80404 0.55664,-1.64518 0.85352,-2.52344 0.11202,-0.32262 0.22359,-0.64646 0.33398,-0.9707 -0.006,0.20997 -0.013,0.42248 -0.0195,0.63672 -0.0124,0.8164 -0.0299,1.62565 -0.0547,2.42968 -0.0247,0.80404 -0.0443,1.57813 -0.0566,2.32032 v 2.0039 15.06641 h 4.04493 v -27.64649 h -5.82618 l -6.10351,16.19727 c -0.14844,0.45768 -0.34115,1.02149 -0.57617,1.68945 -0.23503,0.66797 -0.47526,1.36589 -0.72266,2.09571 -0.2474,0.72981 -0.47721,1.42252 -0.6875,2.07812 -0.0122,0.0379 -0.0233,0.0762 -0.0352,0.11328 -0.0126,-0.0371 -0.0262,-0.0754 -0.0391,-0.11328 -0.21028,-0.6556 -0.43815,-1.34831 -0.68554,-2.07812 -0.2474,-0.72982 -0.48959,-1.42774 -0.72461,-2.09571 -0.23503,-0.66796 -0.43295,-1.23177 -0.59375,-1.68945 l -6.19727,-16.19727 z m 124.01953,0 v 27.64649 h 3.91406 v -27.64649 z m 64.42188,0 v 10.89063 h -0.0371 c -0.42058,-0.72982 -0.94011,-1.32878 -1.5586,-1.79883 -0.60612,-0.47005 -1.28646,-0.82357 -2.04101,-1.05859 -0.75456,-0.2474 -1.5586,-0.3711 -2.41211,-0.3711 -1.68229,0 -3.16146,0.43295 -4.43555,1.29883 -1.27409,0.85352 -2.26888,2.04818 -2.98633,3.58203 -0.70508,1.52149 -1.05859,3.29037 -1.05859,5.30664 0,2.01628 0.35351,3.79037 1.05859,5.32422 0.70508,1.52149 1.69466,2.71615 2.96875,3.58203 1.28646,0.85352 2.77604,1.2793 4.47071,1.2793 0.85351,0 1.65755,-0.1237 2.41211,-0.37109 0.75455,-0.2474 1.44205,-0.61849 2.06054,-1.11328 0.61849,-0.50717 1.15039,-1.13802 1.5957,-1.89258 h 0.0371 v 2.98828 h 3.83985 v -27.64649 z m 25.51171,0 -10.03711,27.64649 h 4.37891 l 2.53125,-7.18164 h 11.13867 l 2.45313,7.18164 h 4.47265 l -9.96484,-27.64649 z m 51.26758,0 v 27.64649 h 3.91407 v -11.28125 c -10e-6,-1.21224 0.21028,-2.20182 0.63085,-2.96875 0.42058,-0.76693 0.98438,-1.33073 1.68946,-1.68945 0.71745,-0.35873 1.52148,-0.53711 2.41211,-0.53711 1.36067,0 2.41211,0.40104 3.15429,1.20507 0.75456,0.79167 1.13086,1.97396 1.13086,3.54493 v 11.72656 h 3.91602 v -12.20899 c 0,-1.70703 -0.30925,-3.13671 -0.92774,-4.2871 -0.61849,-1.1504 -1.46679,-2.01628 -2.54296,-2.59766 -1.06381,-0.59375 -2.26888,-0.89063 -3.61719,-0.89063 -1.62044,0 -3.00586,0.44011 -4.15625,1.31836 -0.64142,0.48804 -1.20522,1.11576 -1.68945,1.88672 v -10.86719 z m -436.87109,2.70899 v 5.34375 h -3.45117 v 3.22852 h 3.45117 v 11.68945 c 0,1.57096 0.44531,2.74609 1.33594,3.52539 0.89062,0.76693 2.25846,1.15039 4.10156,1.15039 h 1.29883 1.16797 v -3.22852 h -0.92774 -0.98242 c -0.7793,0 -1.32357,-0.14323 -1.63281,-0.42773 -0.29688,-0.29688 -0.44532,-0.80404 -0.44532,-1.52148 v -11.1875 h 3.98829 v -3.22852 h -3.98829 v -5.34375 z m 425.86719,0 v 5.34375 h -3.45118 v 3.22852 h 3.45118 v 11.68945 c 0,1.57096 0.44531,2.74609 1.33593,3.52539 0.89063,0.76693 2.25847,1.15039 4.10157,1.15039 h 1.29882 1.16797 v -3.22852 h -0.92773 -0.98242 c -0.7793,0 -1.32357,-0.14323 -1.63282,-0.42773 -0.29687,-0.29688 -0.44531,-0.80404 -0.44531,-1.52148 v -11.1875 h 3.98828 v -3.22852 h -3.98828 v -5.34375 z m 75.75979,0 v 5.34375 h -3.4512 v 3.22852 h 3.4512 v 11.68945 c 0,1.57096 0.4453,2.74609 1.3359,3.52539 0.8906,0.76693 2.2565,1.15039 4.0996,1.15039 h 1.2988 1.17 v -3.22852 h -0.9278 -0.9843 c -0.7793,0 -1.3236,-0.14323 -1.6329,-0.42773 -0.2968,-0.29688 -0.4453,-0.80404 -0.4453,-1.52148 v -11.1875 h 3.9903 v -3.22852 h -3.9903 v -5.34375 z m 61.4863,0 v 5.34375 h -3.4512 v 3.22852 h 3.4512 v 11.68945 c 0,1.57096 0.4453,2.74609 1.3359,3.52539 0.8907,0.76693 2.2585,1.15039 4.1016,1.15039 h 1.2988 1.168 v -3.22852 h -0.9277 -0.9825 c -0.7793,0 -1.3235,-0.14323 -1.6328,-0.42773 -0.2968,-0.29688 -0.4453,-0.80404 -0.4453,-1.52148 v -11.1875 h 3.9883 v -3.22852 h -3.9883 v -5.34375 z m -680.67969,1.08008 c 0.46147,1.50117 0.8713,2.81109 1.23242,3.92969 0.50717,1.57096 0.97722,3.01822 1.41016,4.34179 l 1.67383,4.89844 h -8.70703 l 1.72656,-4.89844 c 0.44531,-1.32357 0.92253,-2.77083 1.42969,-4.34179 0.36112,-1.1186 0.7729,-2.42852 1.23437,-3.92969 z m 505.66602,0 c 0.46147,1.50117 0.87325,2.81109 1.23437,3.92969 0.50716,1.57096 0.97722,3.01822 1.41016,4.34179 l 1.67383,4.89844 h -8.70703 l 1.72656,-4.89844 c 0.44531,-1.32357 0.92057,-2.77083 1.42773,-4.34179 0.36113,-1.1186 0.77291,-2.42852 1.23438,-3.92969 z m -828.115236,3.81836 c -1.867839,0 -3.507813,0.43815 -4.917969,1.3164 -1.410156,0.86589 -2.511068,2.07292 -3.302734,3.61914 -0.779297,1.53386 -1.167969,3.31511 -1.167969,5.34375 0,2.00391 0.388672,3.77279 1.167969,5.30664 0.791666,1.53386 1.892578,2.73373 3.302734,3.59961 1.410156,0.86589 3.05013,1.29883 4.917969,1.29883 1.867838,0 3.500651,-0.43294 4.898437,-1.29883 1.410157,-0.86588 2.503907,-2.06575 3.283203,-3.59961 0.791666,-1.53385 1.187496,-3.30273 1.187496,-5.30664 0,-2.02864 -0.39583,-3.80989 -1.187496,-5.34375 -0.779296,-1.54622 -1.873046,-2.75325 -3.283203,-3.61914 -1.397786,-0.87825 -3.030599,-1.3164 -4.898437,-1.3164 z m 42.527346,0 c -1.86784,0 -3.50782,0.43815 -4.91797,1.3164 -1.41016,0.86589 -2.51107,2.07292 -3.30274,3.61914 -0.77929,1.53386 -1.16796,3.31511 -1.16796,5.34375 0,2.00391 0.38867,3.77279 1.16796,5.30664 0.79167,1.53386 1.89258,2.73373 3.30274,3.59961 1.41015,0.86589 3.05013,1.29883 4.91797,1.29883 1.86784,0 3.50065,-0.43294 4.89844,-1.29883 1.41015,-0.86588 2.5039,-2.06575 3.2832,-3.59961 0.79166,-1.53385 1.1875,-3.30273 1.1875,-5.30664 0,-2.02864 -0.39584,-3.80989 -1.1875,-5.34375 -0.7793,-1.54622 -1.87305,-2.75325 -3.2832,-3.61914 -1.39779,-0.87825 -3.0306,-1.3164 -4.89844,-1.3164 z m 42.33789,0 c -1.86784,0 -3.50781,0.43815 -4.91797,1.3164 -1.41016,0.86589 -2.51107,2.07292 -3.30274,3.61914 -0.77929,1.53386 -1.16796,3.31511 -1.16796,5.34375 0,2.00391 0.38867,3.77279 1.16796,5.30664 0.79167,1.53386 1.89258,2.73373 3.30274,3.59961 1.41016,0.86589 3.05013,1.29883 4.91797,1.29883 1.86784,0 3.50065,-0.43294 4.89844,-1.29883 1.41015,-0.86588 2.5039,-2.06575 3.2832,-3.59961 0.79167,-1.53385 1.1875,-3.30273 1.1875,-5.30664 0,-2.02864 -0.39583,-3.80989 -1.1875,-5.34375 -0.7793,-1.54622 -1.87305,-2.75325 -3.2832,-3.61914 -1.39779,-0.87825 -3.0306,-1.3164 -4.89844,-1.3164 z m 21.26367,0 c -1.86784,0 -3.50781,0.43815 -4.91797,1.3164 -1.41015,0.86589 -2.51107,2.07292 -3.30273,3.61914 -0.7793,1.53386 -1.16797,3.31511 -1.16797,5.34375 0,2.00391 0.38867,3.77279 1.16797,5.30664 0.79166,1.53386 1.89258,2.73373 3.30273,3.59961 1.41016,0.86589 3.05013,1.29883 4.91797,1.29883 1.86784,0 3.50065,-0.43294 4.89844,-1.29883 1.41015,-0.86588 2.5039,-2.06575 3.2832,-3.59961 0.79167,-1.53385 1.1875,-3.30273 1.1875,-5.30664 0,-2.02864 -0.39583,-3.80989 -1.1875,-5.34375 -0.7793,-1.54622 -1.87305,-2.75325 -3.2832,-3.61914 -1.39779,-0.87825 -3.0306,-1.3164 -4.89844,-1.3164 z m 184.11719,0 c -1.78125,0 -3.35742,0.44531 -4.73047,1.33593 -1.37305,0.87826 -2.44922,2.0905 -3.22852,3.63672 -0.77929,1.53386 -1.16992,3.30274 -1.16992,5.30664 0,1.9668 0.3711,3.72331 1.11328,5.26954 0.75456,1.53385 1.82552,2.73893 3.21094,3.61718 1.39779,0.87826 3.06771,1.31836 5.00977,1.31836 1.472,0 2.81315,-0.27213 4.02539,-0.8164 1.22461,-0.54428 2.23893,-1.29362 3.04296,-2.2461 0.81641,-0.96484 1.3431,-2.07812 1.57813,-3.33984 h -3.76758 c -0.18554,0.61849 -0.49479,1.16276 -0.92773,1.63281 -0.43295,0.47005 -0.97722,0.84115 -1.63282,1.11328 -0.65559,0.25977 -1.41015,0.39063 -2.26367,0.39063 -1.17513,0 -2.17708,-0.26693 -3.00586,-0.79883 -0.8164,-0.5319 -1.4401,-1.26693 -1.87304,-2.20703 -0.38914,-0.85611 -0.60321,-1.82811 -0.64258,-2.91406 h 14.41015 v -1.05665 c 10e-6,-1.52148 -0.21744,-2.9069 -0.65039,-4.15625 -0.43294,-1.24934 -1.05143,-2.32552 -1.85546,-3.22851 -0.80404,-0.91537 -1.76888,-1.62044 -2.89454,-2.11524 -1.11328,-0.49479 -2.36263,-0.74218 -3.74804,-0.74218 z m 116.0039,0 c -1.86783,0 -3.50065,0.43815 -4.89843,1.3164 -1.39779,0.86589 -2.49154,2.07292 -3.28321,3.61914 -0.77929,1.54623 -1.16992,3.32748 -1.16992,5.34375 0,1.99154 0.39063,3.76042 1.16992,5.30664 0.79167,1.53386 1.88542,2.73373 3.28321,3.59961 1.39778,0.86589 3.0306,1.29883 4.89843,1.29883 1.16276,0 2.23894,-0.18034 3.22852,-0.53906 1.00195,-0.35872 1.88021,-0.85872 2.63477,-1.50195 0.76692,-0.6556 1.3802,-1.41732 1.83789,-2.28321 0.47005,-0.86588 0.75976,-1.81119 0.87109,-2.83789 h -3.95117 c -0.1237,0.56901 -0.30925,1.08854 -0.55664,1.5586 -0.2474,0.45768 -0.55664,0.85351 -0.92774,1.1875 -0.37109,0.33398 -0.8164,0.59375 -1.33593,0.77929 -0.51954,0.17318 -1.11329,0.25977 -1.78126,0.25977 -1.12565,0 -2.09049,-0.2793 -2.89453,-0.83594 -0.80403,-0.56901 -1.42252,-1.36068 -1.85547,-2.375 -0.43294,-1.02669 -0.65039,-2.23177 -0.65039,-3.61719 0,-1.39778 0.21745,-2.61002 0.65039,-3.63672 0.43295,-1.03906 1.05144,-1.84309 1.85547,-2.4121 0.80404,-0.56901 1.76888,-0.85352 2.89453,-0.85352 0.66797,0 1.26172,0.0918 1.78126,0.27734 0.5319,0.18555 0.99479,0.44532 1.39062,0.7793 0.39583,0.33398 0.71745,0.72982 0.96484,1.1875 0.2474,0.45768 0.42058,0.96484 0.51954,1.52148 h 3.89648 c -0.1237,-1.03906 -0.42057,-1.99153 -0.89063,-2.85742 -0.45768,-0.87825 -1.0638,-1.63281 -1.81835,-2.26367 -0.75456,-0.64323 -1.63282,-1.13802 -2.63477,-1.48437 -0.98958,-0.35873 -2.06576,-0.53711 -3.22852,-0.53711 z m 61.52344,0 c -1.86784,0 -3.50586,0.43815 -4.91601,1.3164 -1.41016,0.86589 -2.51107,2.07292 -3.30274,3.61914 -0.7793,1.53386 -1.16992,3.31511 -1.16992,5.34375 0,2.00391 0.39062,3.77279 1.16992,5.30664 0.79167,1.53386 1.89258,2.73373 3.30274,3.59961 1.41015,0.86589 3.04817,1.29883 4.91601,1.29883 1.86784,0 3.50065,-0.43294 4.89844,-1.29883 1.41015,-0.86588 2.50586,-2.06575 3.28515,-3.59961 0.79167,-1.53385 1.1875,-3.30273 1.1875,-5.30664 0,-2.02864 -0.39583,-3.80989 -1.1875,-5.34375 -0.77929,-1.54622 -1.875,-2.75325 -3.28515,-3.61914 -1.39779,-0.87825 -3.0306,-1.3164 -4.89844,-1.3164 z m 185.04688,0 c -1.86784,0 -3.50782,0.43815 -4.91797,1.3164 -1.41016,0.86589 -2.51107,2.07292 -3.30274,3.61914 -0.77929,1.53386 -1.16797,3.31511 -1.16797,5.34375 0,2.00391 0.38868,3.77279 1.16797,5.30664 0.79167,1.53386 1.89258,2.73373 3.30274,3.59961 1.41015,0.86589 3.05013,1.29883 4.91797,1.29883 1.86783,0 3.50065,-0.43294 4.89843,-1.29883 1.41016,-0.86588 2.50391,-2.06575 3.28321,-3.59961 0.79166,-1.53385 1.1875,-3.30273 1.1875,-5.30664 0,-2.02864 -0.39584,-3.80989 -1.1875,-5.34375 -0.7793,-1.54622 -1.87305,-2.75325 -3.28321,-3.61914 -1.39778,-0.87825 -3.0306,-1.3164 -4.89843,-1.3164 z m 42.52734,0 c -1.86784,0 -3.50781,0.43815 -4.91797,1.3164 -1.41015,0.86589 -2.51107,2.07292 -3.30273,3.61914 -0.7793,1.53386 -1.16797,3.31511 -1.16797,5.34375 0,2.00391 0.38867,3.77279 1.16797,5.30664 0.79166,1.53386 1.89257,2.73373 3.30273,3.59961 1.41016,0.86589 3.05013,1.29883 4.91797,1.29883 1.86784,0 3.50065,-0.43294 4.89844,-1.29883 1.41015,-0.86588 2.5039,-2.06575 3.2832,-3.59961 0.79167,-1.53385 1.1875,-3.30273 1.1875,-5.30664 0,-2.02864 -0.39583,-3.80989 -1.1875,-5.34375 -0.7793,-1.54622 -1.87305,-2.75325 -3.2832,-3.61914 -1.39779,-0.87825 -3.0306,-1.3164 -4.89844,-1.3164 z m 57.0918,0 c -1.86784,0 -3.50586,0.43815 -4.91602,1.3164 -1.41015,0.86589 -2.51107,2.07292 -3.30273,3.61914 -0.7793,1.53386 -1.16992,3.31511 -1.16992,5.34375 0,2.00391 0.39062,3.77279 1.16992,5.30664 0.79166,1.53386 1.89258,2.73373 3.30273,3.59961 1.41016,0.86589 3.04818,1.29883 4.91602,1.29883 1.86784,0 3.50065,-0.43294 4.89843,-1.29883 1.41016,-0.86588 2.50586,-2.06575 3.28516,-3.59961 0.79167,-1.53385 1.1875,-3.30273 1.1875,-5.30664 0,-2.02864 -0.39583,-3.80989 -1.1875,-5.34375 -0.7793,-1.54622 -1.875,-2.75325 -3.28516,-3.61914 -1.39778,-0.87825 -3.03059,-1.3164 -4.89843,-1.3164 z m 153.875,0 c -1.78125,0 -3.35938,0.44531 -4.73243,1.33593 -1.37304,0.87826 -2.44921,2.0905 -3.22851,3.63672 -0.7793,1.53386 -1.16797,3.30274 -1.16797,5.30664 0,1.9668 0.37109,3.72331 1.11328,5.26954 0.75456,1.53385 1.82357,2.73893 3.20899,3.61718 1.39778,0.87826 3.0677,1.31836 5.00976,1.31836 1.47201,0 2.81513,-0.27213 4.02733,-0.8164 1.2246,-0.54428 2.2389,-1.29362 3.043,-2.2461 0.8164,-0.96484 1.3411,-2.07812 1.5762,-3.33984 h -3.7657 c -0.1855,0.61849 -0.4948,1.16276 -0.9277,1.63281 -0.4329,0.47005 -0.9772,0.84115 -1.6328,1.11328 -0.65561,0.25977 -1.41017,0.39063 -2.26369,0.39063 -1.17513,0 -2.17708,-0.26693 -3.00586,-0.79883 -0.8164,-0.5319 -1.44205,-1.26693 -1.875,-2.20703 -0.38914,-0.85611 -0.6032,-1.82811 -0.64257,-2.91406 h 14.41012 v -1.05665 c 0,-1.52148 -0.2155,-2.9069 -0.6484,-4.15625 -0.4329,-1.24934 -1.0514,-2.32552 -1.8555,-3.22851 -0.804,-0.91537 -1.7689,-1.62044 -2.8945,-2.11524 -1.1133,-0.49479 -2.36264,-0.74218 -3.74805,-0.74218 z m 63.04885,0 c -1.8679,0 -3.5007,0.43815 -4.8985,1.3164 -1.3977,0.86589 -2.4935,2.07292 -3.2851,3.61914 -0.7793,1.54623 -1.168,3.32748 -1.168,5.34375 0,1.99154 0.3887,3.76042 1.168,5.30664 0.7916,1.53386 1.8874,2.73373 3.2851,3.59961 1.3978,0.86589 3.0306,1.29883 4.8985,1.29883 1.1627,0 2.2389,-0.18034 3.2285,-0.53906 1.0019,-0.35872 1.8802,-0.85872 2.6348,-1.50195 0.7669,-0.6556 1.3782,-1.41732 1.8359,-2.28321 0.47,-0.86588 0.7617,-1.81119 0.873,-2.83789 h -3.9531 c -0.1237,0.56901 -0.3092,1.08854 -0.5566,1.5586 -0.2474,0.45768 -0.5567,0.85351 -0.9278,1.1875 -0.3711,0.33398 -0.8164,0.59375 -1.3359,0.77929 -0.5195,0.17318 -1.1133,0.25977 -1.7812,0.25977 -1.1257,0 -2.0905,-0.2793 -2.8946,-0.83594 -0.804,-0.56901 -1.4225,-1.36068 -1.8554,-2.375 -0.433,-1.02669 -0.6485,-2.23177 -0.6485,-3.61719 0,-1.39778 0.2155,-2.61002 0.6485,-3.63672 0.4329,-1.03906 1.0514,-1.84309 1.8554,-2.4121 0.8041,-0.56901 1.7689,-0.85352 2.8946,-0.85352 0.6679,0 1.2617,0.0918 1.7812,0.27734 0.5319,0.18555 0.9967,0.44532 1.3926,0.7793 0.3958,0.33398 0.7174,0.72982 0.9648,1.1875 0.2474,0.45768 0.4206,0.96484 0.5196,1.52148 h 3.8964 c -0.1237,-1.03906 -0.4205,-1.99153 -0.8906,-2.85742 -0.4577,-0.87825 -1.0638,-1.63281 -1.8183,-2.26367 -0.7546,-0.64323 -1.6329,-1.13802 -2.6348,-1.48437 -0.9896,-0.35873 -2.0658,-0.53711 -3.2285,-0.53711 z m 61.5234,0 c -1.8678,0 -3.5058,0.43815 -4.916,1.3164 -1.4102,0.86589 -2.5111,2.07292 -3.3027,3.61914 -0.7793,1.53386 -1.17,3.31511 -1.17,5.34375 0,2.00391 0.3907,3.77279 1.17,5.30664 0.7916,1.53386 1.8925,2.73373 3.3027,3.59961 1.4102,0.86589 3.0482,1.29883 4.916,1.29883 1.8679,0 3.5007,-0.43294 4.8984,-1.29883 1.4102,-0.86588 2.5059,-2.06575 3.2852,-3.59961 0.7917,-1.53385 1.1875,-3.30273 1.1875,-5.30664 0,-2.02864 -0.3958,-3.80989 -1.1875,-5.34375 -0.7793,-1.54622 -1.875,-2.75325 -3.2852,-3.61914 -1.3977,-0.87825 -3.0305,-1.3164 -4.8984,-1.3164 z m -491.67772,0.0176 c -1.49675,0 -2.80794,0.2474 -3.9336,0.74219 -1.12565,0.49479 -2.0039,1.18229 -2.63476,2.06055 -0.61849,0.87825 -0.92774,1.89779 -0.92774,3.06055 0,1.44726 0.47722,2.64192 1.42969,3.58203 0.95248,0.9401 2.35026,1.61328 4.19336,2.02148 l 3.24609,0.72461 c 0.85352,0.18555 1.53386,0.48242 2.04102,0.89063 0.51953,0.39583 0.7793,0.92773 0.7793,1.5957 0,0.7793 -0.35873,1.42253 -1.07617,1.92969 -0.71745,0.50716 -1.69987,0.75976 -2.94922,0.75976 -1.27409,0 -2.27604,-0.2845 -3.00586,-0.85351 -0.71745,-0.58138 -1.13281,-1.39779 -1.24414,-2.44922 h -3.85938 c 0.099,1.41015 0.51432,2.59245 1.24414,3.54492 0.72982,0.95247 1.69466,1.66992 2.89453,2.15234 1.19987,0.48243 2.54818,0.72266 4.04493,0.72266 1.52148,0 2.875,-0.24023 4.0625,-0.72266 1.1875,-0.49479 2.12239,-1.1875 2.80273,-2.07812 0.69271,-0.903 1.03906,-1.97917 1.03906,-3.22852 0,-1.42252 -0.45247,-2.57291 -1.35547,-3.45117 -0.89062,-0.87825 -2.29362,-1.52864 -4.21093,-1.94922 l -3.33985,-0.74219 c -0.87825,-0.19791 -1.57096,-0.5 -2.07812,-0.9082 -0.49479,-0.4082 -0.74219,-0.94726 -0.74219,-1.61523 0,-0.75456 0.32682,-1.39063 0.98242,-1.91016 0.6556,-0.51953 1.54102,-0.7793 2.6543,-0.7793 1.16276,0 2.0957,0.31446 2.80078,0.94532 0.70508,0.61849 1.0638,1.40494 1.07617,2.35742 h 3.74805 c -0.0371,-1.32357 -0.38867,-2.46159 -1.05664,-3.41406 -0.6556,-0.95248 -1.5586,-1.68946 -2.70899,-2.20899 -1.13802,-0.51953 -2.44401,-0.7793 -3.91601,-0.7793 z m -516.60938,0.0371 c -1.62044,0 -3.00586,0.44011 -4.15625,1.31836 -0.67446,0.51318 -1.263,1.18181 -1.76367,2.00782 v -2.93555 h -3.83984 v 19.59375 H 108.25 v -11.28125 c 0,-1.21224 0.21029,-2.20182 0.63086,-2.96875 0.42057,-0.76693 0.98437,-1.33073 1.68945,-1.68945 0.71745,-0.35873 1.52149,-0.53711 2.41211,-0.53711 1.36068,0 2.41211,0.40104 3.1543,1.20507 0.75456,0.79167 1.13086,1.97396 1.13086,3.54493 v 11.72656 h 3.91601 v -12.20899 c 0,-1.70703 -0.30924,-3.13671 -0.92773,-4.2871 -0.61849,-1.1504 -1.4668,-2.01628 -2.54297,-2.59766 -1.0638,-0.59375 -2.26888,-0.89063 -3.61719,-0.89063 z m 184.61524,0 c -1.63282,0 -3.05534,0.27214 -4.26758,0.81641 -1.21224,0.54427 -2.16471,1.29362 -2.85742,2.24609 -0.69271,0.95248 -1.07097,2.05339 -1.13282,3.30274 h 3.8418 c 0.0495,-0.60612 0.25977,-1.14518 0.63086,-1.61524 0.38346,-0.48242 0.89063,-0.85872 1.52149,-1.13085 0.64322,-0.27214 1.37825,-0.40821 2.20703,-0.40821 0.82877,0 1.54101,0.14128 2.13476,0.42578 0.59375,0.28451 1.04427,0.67513 1.35352,1.16993 0.30924,0.48242 0.46484,1.03906 0.46484,1.66992 v 0.16601 c 0,0.47005 -0.1556,0.8112 -0.46484,1.02149 -0.29688,0.19791 -0.80404,0.34635 -1.52149,0.44531 -0.70507,0.0866 -1.67513,0.21029 -2.91211,0.37109 -0.98958,0.11133 -1.94921,0.27735 -2.87695,0.5 -0.92773,0.21029 -1.75651,0.5267 -2.48633,0.94727 -0.72981,0.42057 -1.31119,0.98958 -1.74414,1.70703 -0.42057,0.71745 -0.63086,1.63281 -0.63086,2.74609 0,1.29883 0.29688,2.38737 0.89063,3.26563 0.59375,0.87825 1.39778,1.53906 2.41211,1.98437 1.02669,0.44532 2.18945,0.66797 3.48828,0.66797 1.12565,0 2.06575,-0.14844 2.82031,-0.44531 0.76693,-0.29688 1.38542,-0.68034 1.85547,-1.15039 0.47005,-0.47005 0.84115,-0.97005 1.11328,-1.50195 h 0.0742 v 2.7832 h 3.85938 v -13.43359 c 0,-0.98959 -0.17839,-1.88737 -0.53711,-2.69141 -0.34636,-0.80404 -0.86068,-1.48958 -1.54102,-2.05859 -0.66797,-0.58138 -1.48437,-1.0267 -2.44922,-1.33594 -0.96484,-0.30925 -2.04622,-0.46485 -3.24609,-0.46485 z m 21.83789,0 c -0.89063,0 -1.74414,0.17318 -2.56055,0.51954 -0.8164,0.33398 -1.53906,0.84114 -2.16992,1.52148 -0.43123,0.46572 -0.80232,1.00879 -1.11328,1.63086 v -3.28125 h -3.80469 v 19.59375 h 3.91602 V 162.4668 c 0,-1.03907 0.19791,-1.90495 0.59375,-2.59766 0.4082,-0.70508 0.9401,-1.23698 1.5957,-1.5957 0.66797,-0.35873 1.37825,-0.53711 2.13281,-0.53711 1.11328,0 2.02865,0.33919 2.7461,1.01953 0.72981,0.68034 1.0957,1.58333 1.0957,2.70898 v 12.82227 h 3.85937 v -12.24609 c 0,-0.84115 0.17318,-1.58334 0.51954,-2.22657 0.34635,-0.64323 0.83398,-1.15039 1.46484,-1.52148 0.63086,-0.37109 1.38021,-0.55664 2.24609,-0.55664 1.0638,0 1.98438,0.31445 2.76367,0.94531 0.7793,0.63086 1.16993,1.64518 1.16993,3.04297 v 12.5625 h 3.93359 v -12.89649 c 0,-1.57096 -0.29167,-2.875 -0.87305,-3.91406 -0.58138,-1.05143 -1.36588,-1.8431 -2.35547,-2.375 -0.98958,-0.5319 -2.09765,-0.79883 -3.32226,-0.79883 -1.08854,0 -2.07813,0.19792 -2.96875,0.59375 -0.89063,0.39584 -1.64518,0.9349 -2.26367,1.61524 -0.38903,0.43667 -0.7095,0.91072 -0.96094,1.42383 -0.34211,-0.88855 -0.92465,-1.65948 -1.74805,-2.31446 -1.07617,-0.87825 -2.375,-1.31836 -3.89648,-1.31836 z m 32.76758,0 c -0.84115,0 -1.65039,0.1237 -2.42969,0.3711 -0.76693,0.23502 -1.4668,0.58854 -2.09766,1.05859 -0.61849,0.47005 -1.13086,1.0638 -1.53906,1.78125 h -0.0566 v -2.82031 h -3.83984 v 27.34961 h 3.91406 v -10.70703 h 0.0566 c 0.43294,0.74218 0.95247,1.36067 1.55859,1.85547 0.60612,0.49479 1.2793,0.86588 2.02149,1.11328 0.75455,0.24739 1.55338,0.37109 2.39453,0.37109 1.70703,0 3.19661,-0.42578 4.4707,-1.2793 1.27409,-0.86588 2.26367,-2.06054 2.96875,-3.58203 0.70508,-1.53385 1.0586,-3.30794 1.0586,-5.32422 -10e-6,-2.01627 -0.35873,-3.78515 -1.07618,-5.30664 -0.70508,-1.53385 -1.69466,-2.72851 -2.96875,-3.58203 -1.26172,-0.86588 -2.74088,-1.29883 -4.43554,-1.29883 z m 85.55664,0 c -0.84115,0 -1.65235,0.1237 -2.43164,0.3711 -0.76693,0.23502 -1.46485,0.58854 -2.09571,1.05859 -0.61849,0.47005 -1.13281,1.0638 -1.54101,1.78125 H 432.75 v -2.82031 h -3.8418 v 27.34961 h 3.91602 v -10.70703 h 0.0547 c 0.43294,0.74218 0.95247,1.36067 1.55859,1.85547 0.60612,0.49479 1.28125,0.86588 2.02344,1.11328 0.75455,0.24739 1.55143,0.37109 2.39258,0.37109 1.70703,0 3.19856,-0.42578 4.47265,-1.2793 1.27409,-0.86588 2.26367,-2.06054 2.96875,-3.58203 0.70508,-1.53385 1.05664,-3.30794 1.05664,-5.32422 0,-2.01627 -0.35872,-3.78515 -1.07617,-5.30664 -0.70508,-1.53385 -1.69466,-2.72851 -2.96875,-3.58203 -1.26172,-0.86588 -2.73893,-1.29883 -4.43359,-1.29883 z m 21.89453,0 c -0.84115,0 -1.65235,0.1237 -2.43164,0.3711 -0.76693,0.23502 -1.46485,0.58854 -2.09571,1.05859 -0.61849,0.47005 -1.13281,1.0638 -1.54101,1.78125 h -0.0547 v -2.82031 h -3.8418 v 27.34961 h 3.91602 v -10.70703 h 0.0547 c 0.43294,0.74218 0.95247,1.36067 1.55859,1.85547 0.60612,0.49479 1.28125,0.86588 2.02344,1.11328 0.75456,0.24739 1.55143,0.37109 2.39258,0.37109 1.70703,0 3.19856,-0.42578 4.47265,-1.2793 1.27409,-0.86588 2.26368,-2.06054 2.96875,-3.58203 0.70508,-1.53385 1.05664,-3.30794 1.05664,-5.32422 0,-2.01627 -0.35872,-3.78515 -1.07617,-5.30664 -0.70508,-1.53385 -1.69466,-2.72851 -2.96875,-3.58203 -1.26172,-0.86588 -2.73893,-1.29883 -4.43359,-1.29883 z m 57.01367,0 c -1.63281,0 -3.05534,0.27214 -4.26758,0.81641 -1.21224,0.54427 -2.16471,1.29362 -2.85742,2.24609 -0.69271,0.95248 -1.06901,2.05339 -1.13086,3.30274 h 3.83984 c 0.0495,-0.60612 0.25977,-1.14518 0.63086,-1.61524 0.38347,-0.48242 0.89063,-0.85872 1.52149,-1.13085 0.64323,-0.27214 1.38021,-0.40821 2.20898,-0.40821 0.82878,0 1.53906,0.14128 2.13282,0.42578 0.59374,0.28451 1.04622,0.67513 1.35546,1.16993 0.30925,0.48242 0.46289,1.03906 0.46289,1.66992 v 0.16601 c 0,0.47005 -0.15364,0.8112 -0.46289,1.02149 -0.29687,0.19791 -0.80403,0.34635 -1.52148,0.44531 -0.70508,0.0866 -1.67708,0.21029 -2.91406,0.37109 -0.98959,0.11133 -1.94727,0.27735 -2.875,0.5 -0.92774,0.21029 -1.75651,0.5267 -2.48633,0.94727 -0.72982,0.42057 -1.3112,0.98958 -1.74414,1.70703 -0.42057,0.71745 -0.63086,1.63281 -0.63086,2.74609 0,1.29883 0.29687,2.38737 0.89062,3.26563 0.59375,0.87825 1.39779,1.53906 2.41211,1.98437 1.0267,0.44532 2.18946,0.66797 3.48828,0.66797 1.12566,0 2.06576,-0.14844 2.82032,-0.44531 0.76692,-0.29688 1.38541,-0.68034 1.85547,-1.15039 0.47005,-0.47005 0.84114,-0.97005 1.11328,-1.50195 h 0.0742 v 2.7832 h 3.85937 v -13.43359 c 0,-0.98959 -0.18034,-1.88737 -0.53906,-2.69141 -0.34636,-0.80404 -0.85873,-1.48958 -1.53906,-2.05859 -0.66797,-0.58138 -1.48438,-1.0267 -2.44922,-1.33594 -0.96485,-0.30925 -2.04818,-0.46485 -3.24805,-0.46485 z m 64.08789,0 c -1.62044,0 -3.00586,0.44011 -4.15625,1.31836 -0.67446,0.51318 -1.26105,1.18181 -1.76172,2.00782 v -2.93555 h -3.84179 v 19.59375 h 3.91601 v -11.28125 c 0,-1.21224 0.21029,-2.20182 0.63086,-2.96875 0.42057,-0.76693 0.98242,-1.33073 1.6875,-1.68945 0.71745,-0.35873 1.52148,-0.53711 2.41211,-0.53711 1.36068,0 2.41211,0.40104 3.1543,1.20507 0.75455,0.79167 1.13281,1.97396 1.13281,3.54493 v 11.72656 h 3.91406 v -12.20899 c 0,-1.70703 -0.30924,-3.13671 -0.92773,-4.2871 -0.61849,-1.1504 -1.46485,-2.01628 -2.54102,-2.59766 -1.0638,-0.59375 -2.27083,-0.89063 -3.61914,-0.89063 z m 78.52344,0 c -1.62044,0 -3.00586,0.44011 -4.15625,1.31836 -0.67446,0.51318 -1.26105,1.18181 -1.76172,2.00782 v -2.93555 h -3.8418 v 19.59375 h 3.91602 v -11.28125 c 0,-1.21224 0.21028,-2.20182 0.63086,-2.96875 0.42057,-0.76693 0.98242,-1.33073 1.6875,-1.68945 0.71745,-0.35873 1.52148,-0.53711 2.41211,-0.53711 1.36067,0 2.41211,0.40104 3.15429,1.20507 0.75456,0.79167 1.13282,1.97396 1.13282,3.54493 v 11.72656 h 3.91406 v -12.20899 c 0,-1.70703 -0.30925,-3.13671 -0.92774,-4.2871 -0.61849,-1.1504 -1.46484,-2.01628 -2.54101,-2.59766 -1.0638,-0.59375 -2.27083,-0.89063 -3.61914,-0.89063 z m 19.01953,0 c -1.68229,0 -3.16146,0.42774 -4.43555,1.28125 -1.27409,0.85352 -2.26888,2.04623 -2.98633,3.58008 -0.70507,1.52149 -1.05859,3.278 -1.05859,5.26953 0,1.99154 0.35352,3.74805 1.05859,5.26953 0.70508,1.50912 1.69467,2.69662 2.96875,3.5625 1.28646,0.85352 2.77605,1.28126 4.47071,1.28126 0.86588,0 1.66992,-0.11849 2.41211,-0.35352 0.75455,-0.2474 1.43489,-0.61849 2.04101,-1.11328 0.61849,-0.49479 1.15039,-1.11849 1.59571,-1.87305 h 0.0195 v 2.96875 c 0,1.58333 -0.44532,2.80078 -1.33594,3.6543 -0.89063,0.85351 -2.1276,1.28125 -3.71094,1.28125 -0.79166,0 -1.50911,-0.11133 -2.15234,-0.33399 -0.63086,-0.21028 -1.16276,-0.5319 -1.59571,-0.96484 -0.42057,-0.42057 -0.71744,-0.94727 -0.89062,-1.57812 h -3.91602 c 0.17318,1.27408 0.63086,2.36263 1.37305,3.26562 0.74219,0.91536 1.7194,1.60807 2.93164,2.07812 1.22461,0.48243 2.64193,0.72461 4.25,0.72461 1.64518,0 3.14193,-0.27929 4.49024,-0.83593 1.36067,-0.55664 2.43685,-1.44011 3.22851,-2.65235 0.80404,-1.21224 1.20508,-2.80794 1.20508,-4.78711 v -19.33398 h -3.85938 v 2.98633 h -0.0176 c -0.43295,-0.7793 -0.96485,-1.41537 -1.59571,-1.91016 -0.61849,-0.50716 -1.31119,-0.87825 -2.07812,-1.11328 -0.75456,-0.23503 -1.5586,-0.35352 -2.41211,-0.35352 z m 87.50391,0 c -1.62045,0 -3.00586,0.44011 -4.15625,1.31836 -0.67447,0.51318 -1.26301,1.18181 -1.76368,2.00782 v -2.93555 h -3.83984 v 19.59375 h 3.91406 v -11.28125 c 0,-1.21224 0.21029,-2.20182 0.63086,-2.96875 0.42057,-0.76693 0.98438,-1.33073 1.68945,-1.68945 0.71745,-0.35873 1.52149,-0.53711 2.41211,-0.53711 1.36068,0 2.41211,0.40104 3.1543,1.20507 0.75456,0.79167 1.13086,1.97396 1.13086,3.54493 v 11.72656 h 3.91602 v -12.20899 c 0,-1.70703 -0.30925,-3.13671 -0.92774,-4.2871 -0.61849,-1.1504 -1.46679,-2.01628 -2.54297,-2.59766 -1.0638,-0.59375 -2.26888,-0.89063 -3.61718,-0.89063 z m 253.17778,0 c -1.6205,0 -3.0059,0.44011 -4.1563,1.31836 -0.6745,0.51318 -1.2611,1.18181 -1.7617,2.00782 v -2.93555 h -3.8418 v 19.59375 h 3.916 v -11.28125 c 0,-1.21224 0.2103,-2.20182 0.6309,-2.96875 0.4205,-0.76693 0.9824,-1.33073 1.6875,-1.68945 0.7174,-0.35873 1.5214,-0.53711 2.4121,-0.53711 1.3606,0 2.4121,0.40104 3.1543,1.20507 0.7545,0.79167 1.1328,1.97396 1.1328,3.54493 v 11.72656 h 3.914 v -12.20899 c 0,-1.70703 -0.3092,-3.13671 -0.9277,-4.2871 -0.6185,-1.1504 -1.4648,-2.01628 -2.541,-2.59766 -1.0638,-0.59375 -2.2708,-0.89063 -3.6191,-0.89063 z m 60.8007,0 c -1.6328,0 -3.0553,0.27214 -4.2675,0.81641 -1.2123,0.54427 -2.1648,1.29362 -2.8575,2.24609 -0.6927,0.95248 -1.069,2.05339 -1.1308,3.30274 h 3.8398 c 0.05,-0.60612 0.2598,-1.14518 0.6309,-1.61524 0.3834,-0.48242 0.8906,-0.85872 1.5215,-1.13085 0.6432,-0.27214 1.3802,-0.40821 2.2089,-0.40821 0.8288,0 1.5391,0.14128 2.1329,0.42578 0.5937,0.28451 1.0462,0.67513 1.3554,1.16993 0.3093,0.48242 0.4629,1.03906 0.4629,1.66992 v 0.16601 c 0,0.47005 -0.1536,0.8112 -0.4629,1.02149 -0.2969,0.19791 -0.804,0.34635 -1.5215,0.44531 -0.705,0.0866 -1.677,0.21029 -2.914,0.37109 -0.9896,0.11133 -1.9473,0.27735 -2.875,0.5 -0.9278,0.21029 -1.7565,0.5267 -2.4864,0.94727 -0.7298,0.42057 -1.3111,0.98958 -1.7441,1.70703 -0.4206,0.71745 -0.6309,1.63281 -0.6309,2.74609 0,1.29883 0.2969,2.38737 0.8907,3.26563 0.5937,0.87825 1.3978,1.53906 2.4121,1.98437 1.0267,0.44532 2.1894,0.66797 3.4883,0.66797 1.1256,0 2.0657,-0.14844 2.8203,-0.44531 0.7669,-0.29688 1.3854,-0.68034 1.8554,-1.15039 0.4701,-0.47005 0.8412,-0.97005 1.1133,-1.50195 h 0.074 v 2.7832 h 3.8594 v -13.43359 c 0,-0.98959 -0.1803,-1.88737 -0.539,-2.69141 -0.3464,-0.80404 -0.8588,-1.48958 -1.5391,-2.05859 -0.668,-0.58138 -1.4844,-1.0267 -2.4492,-1.33594 -0.9649,-0.30925 -2.0482,-0.46485 -3.2481,-0.46485 z m 64.0879,0 c -1.6204,0 -3.0058,0.44011 -4.1562,1.31836 -0.6745,0.51318 -1.2611,1.18181 -1.7617,2.00782 v -2.93555 h -3.8418 v 19.59375 h 3.916 v -11.28125 c 0,-1.21224 0.2103,-2.20182 0.6308,-2.96875 0.4206,-0.76693 0.9825,-1.33073 1.6875,-1.68945 0.7175,-0.35873 1.5215,-0.53711 2.4121,-0.53711 1.3607,0 2.4121,0.40104 3.1543,1.20507 0.7546,0.79167 1.1328,1.97396 1.1328,3.54493 v 11.72656 h 3.9141 v -12.20899 c 0,-1.70703 -0.3092,-3.13671 -0.9277,-4.2871 -0.6185,-1.1504 -1.4649,-2.01628 -2.541,-2.59766 -1.0638,-0.59375 -2.2709,-0.89063 -3.6192,-0.89063 z m -663.9531,0.39063 v 19.59375 h 3.91406 v -19.59375 z m 61.48632,0 v 19.59375 h 3.91407 v -19.59375 z m 59.91211,0 v 12.20898 c 0,1.69467 0.30925,3.1224 0.92774,4.28516 0.61849,1.15039 1.4668,2.02344 2.54297,2.61719 1.07617,0.58138 2.28125,0.87109 3.61718,0.87109 1.63282,0 3.01823,-0.43815 4.15626,-1.3164 0.67772,-0.5174 1.26626,-1.18599 1.76367,-2.00391 v 2.93164 h 3.83984 v -19.59375 h -3.91406 v 11.28125 c 0,1.19987 -0.21029,2.18945 -0.63086,2.96875 -0.42057,0.76693 -0.98958,1.32878 -1.70703,1.6875 -0.70508,0.35872 -1.49675,0.53906 -2.375,0.53906 -1.36068,0 -2.41927,-0.40299 -3.17383,-1.20703 -0.75456,-0.80404 -1.13086,-1.98437 -1.13086,-3.54297 v -11.72656 z m 39.875,0 v 19.59375 h 3.91407 v -19.59375 z m 214.47266,0 v 12.20898 c 0,1.69467 0.30925,3.1224 0.92773,4.28516 0.61849,1.15039 1.4668,2.02344 2.54297,2.61719 1.07618,0.58138 2.28125,0.87109 3.61719,0.87109 1.63281,0 3.01823,-0.43815 4.15625,-1.3164 0.67772,-0.5174 1.26626,-1.18599 1.76367,-2.00391 v 2.93164 h 3.83985 v -19.59375 h -3.91407 v 11.28125 c 0,1.19987 -0.21028,2.18945 -0.63086,2.96875 -0.42057,0.76693 -0.98958,1.32878 -1.70703,1.6875 -0.70507,0.35872 -1.49674,0.53906 -2.375,0.53906 -1.36067,0 -2.41927,-0.40299 -3.17382,-1.20703 -0.75456,-0.80404 -1.13086,-1.98437 -1.13086,-3.54297 v -11.72656 z m 77.80078,0 v 12.20898 c 0,1.69467 0.30925,3.1224 0.92774,4.28516 0.61849,1.15039 1.46484,2.02344 2.54101,2.61719 1.07617,0.58138 2.2832,0.87109 3.61914,0.87109 1.63282,0 3.01823,-0.43815 4.15625,-1.3164 0.67772,-0.5174 1.26431,-1.18599 1.76172,-2.00391 v 2.93164 h 3.8418 v -19.59375 h -3.91602 v 11.28125 c 0,1.19987 -0.21028,2.18945 -0.63086,2.96875 -0.42057,0.76693 -0.98958,1.32878 -1.70703,1.6875 -0.70508,0.35872 -1.49674,0.53906 -2.375,0.53906 -1.36068,0 -2.41732,-0.40299 -3.17187,-1.20703 -0.75456,-0.80404 -1.13282,-1.98437 -1.13282,-3.54297 v -11.72656 z m 109.56443,0 v 19.59375 h 3.916 v -19.59375 z m 61.4883,0 v 19.59375 h 3.9141 v -19.59375 z m -723.8496,2.82031 c 1.08854,0 2.02864,0.2474 2.82031,0.74219 0.80404,0.48242 1.42253,1.17513 1.85547,2.07812 0.32086,0.66005 0.52435,1.40745 0.60742,2.24414 h -10.54492 c 0.0831,-0.83669 0.28461,-1.58409 0.60547,-2.24414 0.44531,-0.90299 1.0638,-1.5957 1.85547,-2.07812 0.79166,-0.49479 1.7246,-0.74219 2.80078,-0.74219 z m 616.06836,0 c 1.08854,0 2.02864,0.2474 2.82034,0.74219 0.804,0.48242 1.4225,1.17513 1.8554,2.07812 0.3209,0.66005 0.5224,1.40745 0.6055,2.24414 h -10.54492 c 0.0831,-0.83669 0.28462,-1.58409 0.60547,-2.24414 0.44532,-0.90299 1.06381,-1.5957 1.85547,-2.07812 0.79167,-0.49479 1.72656,-0.74219 2.80274,-0.74219 z M 91.496094,157.625 c 1.113281,0 2.070963,0.28451 2.875,0.85352 0.816406,0.56901 1.442057,1.36588 1.875,2.39257 0.445312,1.0267 0.667968,2.2461 0.667968,3.65625 0,1.37305 -0.222656,2.57292 -0.667968,3.59961 -0.432943,1.0267 -1.058594,1.82357 -1.875,2.39258 -0.804037,0.55664 -1.761719,0.83594 -2.875,0.83594 -1.125651,0 -2.090495,-0.2793 -2.894532,-0.83594 -0.804036,-0.56901 -1.429687,-1.36068 -1.875,-2.375 -0.432942,-1.02669 -0.648437,-2.23177 -0.648437,-3.61719 0,-1.41015 0.215495,-2.62955 0.648437,-3.65625 0.445313,-1.03906 1.070964,-1.83593 1.875,-2.39257 0.816407,-0.56901 1.78125,-0.85352 2.894532,-0.85352 z m 42.527346,0 c 1.11328,0 2.07096,0.28451 2.875,0.85352 0.8164,0.56901 1.44205,1.36588 1.875,2.39257 0.44531,1.0267 0.66797,2.2461 0.66797,3.65625 0,1.37305 -0.22266,2.57292 -0.66797,3.59961 -0.43295,1.0267 -1.0586,1.82357 -1.875,2.39258 -0.80404,0.55664 -1.76172,0.83594 -2.875,0.83594 -1.12565,0 -2.0905,-0.2793 -2.89453,-0.83594 -0.80404,-0.56901 -1.42969,-1.36068 -1.875,-2.375 -0.43295,-1.02669 -0.64844,-2.23177 -0.64844,-3.61719 0,-1.41015 0.21549,-2.62955 0.64844,-3.65625 0.44531,-1.03906 1.07096,-1.83593 1.875,-2.39257 0.8164,-0.56901 1.78125,-0.85352 2.89453,-0.85352 z m 42.33789,0 c 1.11328,0 2.07096,0.28451 2.875,0.85352 0.8164,0.56901 1.44206,1.36588 1.875,2.39257 0.44531,1.0267 0.66797,2.2461 0.66797,3.65625 0,1.37305 -0.22266,2.57292 -0.66797,3.59961 -0.43294,1.0267 -1.0586,1.82357 -1.875,2.39258 -0.80404,0.55664 -1.76172,0.83594 -2.875,0.83594 -1.12565,0 -2.0905,-0.2793 -2.89453,-0.83594 -0.80404,-0.56901 -1.42969,-1.36068 -1.875,-2.375 -0.43295,-1.02669 -0.64844,-2.23177 -0.64844,-3.61719 0,-1.41015 0.21549,-2.62955 0.64844,-3.65625 0.44531,-1.03906 1.07096,-1.83593 1.875,-2.39257 0.8164,-0.56901 1.78125,-0.85352 2.89453,-0.85352 z m 21.26367,0 c 1.11328,0 2.07096,0.28451 2.875,0.85352 0.81641,0.56901 1.44206,1.36588 1.875,2.39257 0.44531,1.0267 0.66797,2.2461 0.66797,3.65625 0,1.37305 -0.22266,2.57292 -0.66797,3.59961 -0.43294,1.0267 -1.05859,1.82357 -1.875,2.39258 -0.80404,0.55664 -1.76172,0.83594 -2.875,0.83594 -1.12565,0 -2.09049,-0.2793 -2.89453,-0.83594 -0.80404,-0.56901 -1.42969,-1.36068 -1.875,-2.375 -0.43294,-1.02669 -0.64844,-2.23177 -0.64844,-3.61719 0,-1.41015 0.2155,-2.62955 0.64844,-3.65625 0.44531,-1.03906 1.07096,-1.83593 1.875,-2.39257 0.81641,-0.56901 1.78125,-0.85352 2.89453,-0.85352 z m 361.64453,0 c 1.11328,0 2.07292,0.28451 2.87695,0.85352 0.81641,0.56901 1.44011,1.36588 1.87305,2.39257 0.44531,1.0267 0.66797,2.2461 0.66797,3.65625 0,1.37305 -0.22266,2.57292 -0.66797,3.59961 -0.43294,1.0267 -1.05664,1.82357 -1.87305,2.39258 -0.80403,0.55664 -1.76367,0.83594 -2.87695,0.83594 -1.12565,0 -2.09049,-0.2793 -2.89453,-0.83594 -0.80404,-0.56901 -1.42773,-1.36068 -1.87305,-2.375 -0.43294,-1.02669 -0.65039,-2.23177 -0.65039,-3.61719 0,-1.41015 0.21745,-2.62955 0.65039,-3.65625 0.44532,-1.03906 1.06901,-1.83593 1.87305,-2.39257 0.81641,-0.56901 1.78125,-0.85352 2.89453,-0.85352 z m 185.04688,0 c 1.11328,0 2.07096,0.28451 2.875,0.85352 0.8164,0.56901 1.44205,1.36588 1.875,2.39257 0.44531,1.0267 0.66797,2.2461 0.66797,3.65625 0,1.37305 -0.22266,2.57292 -0.66797,3.59961 -0.43295,1.0267 -1.0586,1.82357 -1.875,2.39258 -0.80404,0.55664 -1.76172,0.83594 -2.875,0.83594 -1.12565,0 -2.0905,-0.2793 -2.89453,-0.83594 -0.80404,-0.56901 -1.42969,-1.36068 -1.875,-2.375 -0.43295,-1.02669 -0.64844,-2.23177 -0.64844,-3.61719 0,-1.41015 0.21549,-2.62955 0.64844,-3.65625 0.44531,-1.03906 1.07096,-1.83593 1.875,-2.39257 0.8164,-0.56901 1.78124,-0.85352 2.89453,-0.85352 z m 42.52734,0 c 1.11328,0 2.07096,0.28451 2.875,0.85352 0.81641,0.56901 1.44206,1.36588 1.875,2.39257 0.44531,1.0267 0.66797,2.2461 0.66797,3.65625 0,1.37305 -0.22266,2.57292 -0.66797,3.59961 -0.43294,1.0267 -1.05859,1.82357 -1.875,2.39258 -0.80404,0.55664 -1.76172,0.83594 -2.875,0.83594 -1.12565,0 -2.09049,-0.2793 -2.89453,-0.83594 -0.80404,-0.56901 -1.42969,-1.36068 -1.875,-2.375 -0.43294,-1.02669 -0.64844,-2.23177 -0.64844,-3.61719 0,-1.41015 0.2155,-2.62955 0.64844,-3.65625 0.44531,-1.03906 1.07096,-1.83593 1.875,-2.39257 0.8164,-0.56901 1.78125,-0.85352 2.89453,-0.85352 z m 57.0918,0 c 1.11328,0 2.07291,0.28451 2.87695,0.85352 0.81641,0.56901 1.4401,1.36588 1.87305,2.39257 0.44531,1.0267 0.66797,2.2461 0.66797,3.65625 0,1.37305 -0.22266,2.57292 -0.66797,3.59961 -0.43295,1.0267 -1.05664,1.82357 -1.87305,2.39258 -0.80404,0.55664 -1.76367,0.83594 -2.87695,0.83594 -1.12565,0 -2.0905,-0.2793 -2.89453,-0.83594 -0.80404,-0.56901 -1.42774,-1.36068 -1.87305,-2.375 -0.43294,-1.02669 -0.65039,-2.23177 -0.65039,-3.61719 0,-1.41015 0.21745,-2.62955 0.65039,-3.65625 0.44531,-1.03906 1.06901,-1.83593 1.87305,-2.39257 0.8164,-0.56901 1.78125,-0.85352 2.89453,-0.85352 z m 278.44725,0 c 1.1133,0 2.0729,0.28451 2.877,0.85352 0.8164,0.56901 1.4401,1.36588 1.873,2.39257 0.4453,1.0267 0.668,2.2461 0.668,3.65625 0,1.37305 -0.2227,2.57292 -0.668,3.59961 -0.4329,1.0267 -1.0566,1.82357 -1.873,2.39258 -0.8041,0.55664 -1.7637,0.83594 -2.877,0.83594 -1.1256,0 -2.0905,-0.2793 -2.8945,-0.83594 -0.8041,-0.56901 -1.4278,-1.36068 -1.8731,-2.375 -0.4329,-1.02669 -0.6504,-2.23177 -0.6504,-3.61719 0,-1.41015 0.2175,-2.62955 0.6504,-3.65625 0.4453,-1.03906 1.069,-1.83593 1.8731,-2.39257 0.8164,-0.56901 1.7812,-0.85352 2.8945,-0.85352 z m -442.15428,0.0176 c 1.11328,0 2.07812,0.2793 2.89453,0.83594 0.82877,0.55664 1.46484,1.34114 1.91015,2.35546 0.45769,1.01433 0.6875,2.20899 0.6875,3.58204 0,1.36067 -0.22981,2.55338 -0.6875,3.58007 -0.44531,1.01433 -1.08138,1.80079 -1.91015,2.35743 -0.81641,0.55664 -1.78125,0.83398 -2.89453,0.83398 -1.05144,0 -1.97917,-0.25977 -2.78321,-0.7793 -0.79166,-0.51953 -1.41732,-1.27929 -1.875,-2.28125 -0.44531,-1.01432 -0.66797,-2.2513 -0.66797,-3.71093 0,-1.47201 0.22266,-2.70899 0.66797,-3.71094 0.45768,-1.01432 1.08334,-1.77604 1.875,-2.2832 0.80404,-0.51954 1.73177,-0.7793 2.78321,-0.7793 z m -461.4336,0.0195 c 1.11328,0 2.07813,0.2845 2.89453,0.85351 0.82878,0.55665 1.4668,1.34831 1.91211,2.375 0.45768,1.01433 0.68555,2.2142 0.68555,3.59961 0,1.36068 -0.22787,2.55339 -0.68555,3.58008 -0.44531,1.0267 -1.08333,1.82552 -1.91211,2.39453 -0.8164,0.55664 -1.78125,0.83399 -2.89453,0.83399 -1.05143,0 -1.97916,-0.25977 -2.7832,-0.7793 -0.79167,-0.5319 -1.41537,-1.29883 -1.87305,-2.30078 -0.44531,-1.01432 -0.66797,-2.25651 -0.66797,-3.72852 0,-1.48437 0.22266,-2.73372 0.66797,-3.74804 0.45768,-1.01433 1.08138,-1.78125 1.87305,-2.30078 0.80404,-0.51953 1.73177,-0.7793 2.7832,-0.7793 z m 133.70508,0 c 1.0638,0 1.99154,0.25977 2.7832,0.7793 0.79167,0.51953 1.41016,1.28645 1.85547,2.30078 0.45768,1.01432 0.6875,2.26367 0.6875,3.74804 0,1.47201 -0.22982,2.7142 -0.6875,3.72852 -0.44531,1.00195 -1.0638,1.76888 -1.85547,2.30078 -0.79166,0.51953 -1.7194,0.7793 -2.7832,0.7793 -1.11328,0 -2.08333,-0.27735 -2.91211,-0.83399 -0.81641,-0.56901 -1.45443,-1.36783 -1.91211,-2.39453 -0.44531,-1.02669 -0.66797,-2.2194 -0.66797,-3.58008 0,-1.38541 0.22266,-2.58528 0.66797,-3.59961 0.45768,-1.02669 1.0957,-1.81835 1.91211,-2.375 0.82878,-0.56901 1.79883,-0.85351 2.91211,-0.85351 z m 85.55664,0 c 1.0638,0 1.99154,0.25977 2.7832,0.7793 0.79167,0.51953 1.41016,1.28645 1.85547,2.30078 0.45768,1.01432 0.68555,2.26367 0.68555,3.74804 0,1.47201 -0.22787,2.7142 -0.68555,3.72852 -0.44531,1.00195 -1.0638,1.76888 -1.85547,2.30078 -0.79166,0.51953 -1.7194,0.7793 -2.7832,0.7793 -1.11328,0 -2.08529,-0.27735 -2.91406,-0.83399 -0.81641,-0.56901 -1.45248,-1.36783 -1.91016,-2.39453 -0.44531,-1.02669 -0.66797,-2.2194 -0.66797,-3.58008 0,-1.38541 0.22266,-2.58528 0.66797,-3.59961 0.45768,-1.02669 1.09375,-1.81835 1.91016,-2.375 0.82877,-0.56901 1.80078,-0.85351 2.91406,-0.85351 z m 21.89453,0 c 1.0638,0 1.99154,0.25977 2.78321,0.7793 0.79166,0.51953 1.41015,1.28645 1.85546,2.30078 0.45769,1.01432 0.68555,2.26367 0.68555,3.74804 0,1.47201 -0.22786,2.7142 -0.68555,3.72852 -0.44531,1.00195 -1.0638,1.76888 -1.85546,2.30078 -0.79167,0.51953 -1.71941,0.7793 -2.78321,0.7793 -1.11328,0 -2.08528,-0.27735 -2.91406,-0.83399 -0.81641,-0.56901 -1.45247,-1.36783 -1.91016,-2.39453 -0.44531,-1.02669 -0.66797,-2.2194 -0.66797,-3.58008 0,-1.38541 0.22266,-2.58528 0.66797,-3.59961 0.45769,-1.02669 1.09375,-1.81835 1.91016,-2.375 0.82878,-0.56901 1.80078,-0.85351 2.91406,-0.85351 z m 426.41992,0 c 1.11329,0 2.07813,0.2845 2.89453,0.85351 0.82878,0.55665 1.46485,1.34831 1.91016,2.375 0.45768,1.01433 0.6875,2.2142 0.6875,3.59961 0,1.36068 -0.22982,2.55339 -0.6875,3.58008 -0.44531,1.0267 -1.08138,1.82552 -1.91016,2.39453 -0.8164,0.55664 -1.78124,0.83399 -2.89453,0.83399 -1.05143,0 -1.97916,-0.25977 -2.7832,-0.7793 -0.79167,-0.5319 -1.41732,-1.29883 -1.875,-2.30078 -0.44531,-1.01432 -0.66797,-2.25651 -0.66797,-3.72852 0,-1.48437 0.22266,-2.73372 0.66797,-3.74804 0.45768,-1.01433 1.08333,-1.78125 1.875,-2.30078 0.80404,-0.51953 1.73177,-0.7793 2.7832,-0.7793 z m -645.05078,3.74805 v 3.45117 h 12.26563 v -3.45117 z m 61.30469,3.24609 v 2.30078 c 0,0.80404 -0.18555,1.54623 -0.55664,2.22656 -0.35872,0.68034 -0.91537,1.23177 -1.66992,1.65235 -0.74219,0.4082 -1.6875,0.61133 -2.83789,0.61133 -0.75456,0 -1.41016,-0.10417 -1.9668,-0.31446 -0.55664,-0.22265 -0.98437,-0.5319 -1.28125,-0.92773 -0.29688,-0.4082 -0.44531,-0.89063 -0.44531,-1.44727 0,-0.66797 0.18554,-1.20703 0.55664,-1.61523 0.38346,-0.4082 0.88541,-0.72266 1.5039,-0.94531 0.61849,-0.23503 1.28646,-0.403 2.00391,-0.50196 0.50716,-0.0618 1.01432,-0.13607 1.52148,-0.22265 0.50717,-0.0866 0.97722,-0.16602 1.41016,-0.24024 0.43294,-0.0866 0.79688,-0.17318 1.09375,-0.25976 0.30925,-0.099 0.5319,-0.20508 0.66797,-0.31641 z m 219.07227,0 v 2.30078 c 0,0.80404 -0.18555,1.54623 -0.55665,2.22656 -0.35872,0.68034 -0.91536,1.23177 -1.66992,1.65235 -0.74218,0.4082 -1.68945,0.61133 -2.83984,0.61133 -0.75456,0 -1.41016,-0.10417 -1.9668,-0.31446 -0.55664,-0.22265 -0.98242,-0.5319 -1.27929,-0.92773 -0.29688,-0.4082 -0.44532,-0.89063 -0.44532,-1.44727 0,-0.66797 0.18555,-1.20703 0.55664,-1.61523 0.38347,-0.4082 0.88347,-0.72266 1.50196,-0.94531 0.61849,-0.23503 1.28646,-0.403 2.0039,-0.50196 0.50716,-0.0618 1.01433,-0.13607 1.52149,-0.22265 0.50716,-0.0866 0.97721,-0.16602 1.41015,-0.24024 0.43295,-0.0866 0.79883,-0.17318 1.09571,-0.25976 0.30924,-0.099 0.5319,-0.20508 0.66797,-0.31641 z m 563.11323,0 v 2.30078 c 0,0.80404 -0.1855,1.54623 -0.5566,2.22656 -0.3587,0.68034 -0.9154,1.23177 -1.6699,1.65235 -0.7422,0.4082 -1.6895,0.61133 -2.8399,0.61133 -0.7545,0 -1.4101,-0.10417 -1.9668,-0.31446 -0.5566,-0.22265 -0.9824,-0.5319 -1.2793,-0.92773 -0.2968,-0.4082 -0.4453,-0.89063 -0.4453,-1.44727 0,-0.66797 0.1856,-1.20703 0.5567,-1.61523 0.3834,-0.4082 0.8834,-0.72266 1.5019,-0.94531 0.6185,-0.23503 1.2865,-0.403 2.0039,-0.50196 0.5072,-0.0618 1.0144,-0.13607 1.5215,-0.22265 0.5072,-0.0866 0.9772,-0.16602 1.4102,-0.24024 0.4329,-0.0866 0.7988,-0.17318 1.0957,-0.25976 0.3092,-0.099 0.5319,-0.20508 0.6679,-0.31641 z" /><g
     id="g49"
     transform="matrix(0.83790967,0,0,0.83790967,8.0290065,11.103303)"
     style="stroke-width:6.63072;stroke-dasharray:none"><path
       d="m 52.322606,50.093197 v 26.071594 c 0,4.096965 3.352062,7.449027 7.449027,7.449027 h 14.898054 a 7.449027,7.449027 0 0 0 7.449027,-7.449027 V 50.093197"
       id="path1-5"
       style="fill:none;fill-opacity:1;stroke:#ffffff;stroke-width:6.63072;stroke-linecap:round;stroke-linejoin:round;stroke-dasharray:none;stroke-opacity:1" /><path
       d="M 67.22066,50.093197 V 124.58347"
       id="path2-9"
       style="fill:none;fill-opacity:1;stroke:#ffffff;stroke-width:6.63072;stroke-linecap:round;stroke-linejoin:round;stroke-dasharray:none;stroke-opacity:1" /><path
       d="M 119.36385,98.511868 V 50.093197 a 18.622567,18.622567 0 0 0 -18.62257,18.622567 v 22.347081 c 0,4.096961 3.35206,7.449023 7.44903,7.449023 z m 0,0 v 26.071602"
       id="path3-5"
       style="fill:none;fill-opacity:1;stroke:#ffffff;stroke-width:6.63072;stroke-linecap:round;stroke-linejoin:round;stroke-dasharray:none;stroke-opacity:1" /></g></svg>
