<?xml version="1.0" encoding="UTF-8" standalone="no"?>
<svg
   width="1280"
   height="225"
   viewBox="0 0 1280 225"
   fill="none"
   version="1.1"
   id="svg41"
   xmlns="http://www.w3.org/2000/svg"
   xmlns:svg="http://www.w3.org/2000/svg">
  <g
     clip-path="url(#clip0_2844_4208)"
     id="g28">
    <path
       d="M 0,20 C 0,8.9543 8.95431,0 20,0 h 1240 c 11.05,0 20,8.95431 20,20 v 185 c 0,11.046 -8.95,20 -20,20 H 20 C 8.95431,225 0,216.046 0,205 Z"
       fill="#0f1832"
       id="path1" />
    <g
       filter="url(#filter0_f_2844_4208)"
       id="g2">
      <path
         d="M 1062.46,53.6321 C 670.717,-179.405 333.235,-43.4902 213.463,53.5969 183.817,175.462 464.053,266.45 607.877,296.712 922.634,312.784 1454.21,286.669 1062.46,53.6321 Z"
         fill="#0231ff"
         fill-opacity="0.7"
         id="path2" />
    </g>
    <g
       filter="url(#filter1_f_2844_4208)"
       id="g3">
      <path
         d="m 922.306,350.119 c -144.776,142.979 -91.2,336.255 -46.314,415.021 0,129.545 448.568,98.358 628.678,0 180.11,-98.357 104.64,-243.495 110.64,-415.021 4.81,-137.221 -191.83,-181.921 -290.75,-187.119 -73.76,2.799 -257.48,44.141 -402.254,187.119 z"
         fill="#6c01db"
         id="path3" />
    </g>
    <path
       d="m -863.165,-544.181 c 3.51,-33.719 39.923,-53.273 69.971,-37.572 L 1716.64,729.65 c 34.15,17.839 34.42,66.606 0.48,84.831 L -1085.92,2319.65 c -33.94,18.23 -74.44,-8.94 -70.45,-47.26 z"
       fill="#6f5ac8"
       fill-opacity="0.1"
       id="path4" />
    <path
       d="m -863.165,-624.181 c 3.51,-33.719 39.923,-53.273 69.971,-37.572 L 1716.64,649.65 c 34.15,17.839 34.42,66.606 0.48,84.831 L -1085.92,2239.65 c -33.94,18.23 -74.44,-8.94 -70.45,-47.26 z"
       fill="#6f5ac8"
       fill-opacity="0.1"
       id="path5" />
    <path
       d="m -863.165,-700.181 c 3.51,-33.719 39.923,-53.273 69.971,-37.572 L 1716.64,573.65 c 34.15,17.839 34.42,66.606 0.48,84.831 L -1085.92,2163.65 c -33.94,18.23 -74.44,-8.94 -70.45,-47.26 z"
       fill="#6f5ac8"
       fill-opacity="0.1"
       id="path6" />
    <path
       d="m -863.165,-775.181 c 3.51,-33.719 39.923,-53.273 69.971,-37.572 L 1716.64,498.65 c 34.15,17.839 34.42,66.606 0.48,84.831 L -1085.92,2088.65 c -33.94,18.23 -74.44,-8.94 -70.45,-47.26 z"
       fill="#6f5ac8"
       fill-opacity="0.1"
       id="path7" />
    <path
       d="m -863.165,-850.181 c 3.51,-33.719 39.923,-53.273 69.971,-37.572 L 1716.64,423.65 c 34.15,17.839 34.42,66.606 0.48,84.831 L -1085.92,2013.65 c -33.94,18.23 -74.44,-8.94 -70.45,-47.26 z"
       fill="#6f5ac8"
       fill-opacity="0.1"
       id="path8" />
    <path
       d="m -724.802,-850.181 c 3.511,-33.719 39.924,-53.273 69.971,-37.572 L 1855.01,423.65 c 34.14,17.839 34.41,66.606 0.48,84.831 L -947.554,2013.65 c -33.939,18.23 -74.436,-8.94 -70.446,-47.26 z"
       fill="#6f5ac8"
       fill-opacity="0.1"
       id="path9" />
    <g
       filter="url(#filter2_f_2844_4208)"
       id="g9">
      <circle
         cx="-183"
         cy="-183"
         r="367"
         fill="#031150"
         id="circle9" />
    </g>
    <g
       clip-path="url(#clip1_2844_4208)"
       id="g24">
      <path
         d="m 1040.13,46.1648 c -1.15,-2.6182 -3.38,-1.2364 -4.73,0.5818 l -1.91,3.3091 12.69,21.9454 h 8.82 z"
         fill="url(#paint0_linear_2844_4208)"
         id="path10"
         style="fill:url(#paint0_linear_2844_4208)" />
      <path
         d="m 1024.13,42.8177 c -2.13,-2.5818 -6.26,-3.5272 -9.35,-2.0363 -1.49,0.6909 -2.73,1.7636 -3.6,3.2545 0,0.0182 -16.18,27.9637 -16.18,27.9637 h 9.05 l 14.04,-23.9819 1.16,-2.0182 c 0.22,-0.3636 2.68,-4.4909 4.88,-3.1818 z"
         fill="url(#paint1_linear_2844_4208)"
         id="path11"
         style="fill:url(#paint1_linear_2844_4208)" />
      <path
         d="m 1013.84,67.4736 c 0.49,0.7818 4.27,7.6546 4.83,8.1273 2.29,1 3.86,-2.8546 4.82,-4.3636 l -5.85,-10.1455 z"
         fill="url(#paint2_linear_2844_4208)"
         id="path12"
         style="fill:url(#paint2_linear_2844_4208)" />
      <path
         d="m 1031.96,61.0918 -6.63,11.5091 c 0,0 -2.86,6.0909 -5.46,4.9454 1.44,1.6182 3.57,2.5273 5.73,2.4546 2.49,-0.1091 4.78,-1.4546 6.05,-3.6546 l 4.62,-8.0181 c -0.05,-0.0909 -4.25,-7.1637 -4.31,-7.2364 z"
         fill="url(#paint3_linear_2844_4208)"
         id="path13"
         style="fill:url(#paint3_linear_2844_4208)" />
      <path
         d="m 1037.8,42.6002 c -2.33,-2.7091 -6.56,-3.4182 -9.62,-1.5637 -2.89,1.4546 -5.78,8.5091 -7.56,11.091 0.03,0.0727 4.42,7.6363 4.45,7.709 1.64,-2.8363 5.38,-9.3272 6.98,-12.0909 1.11,-1.8181 3.02,-6.4545 5.75,-5.1454 z"
         fill="url(#paint4_linear_2844_4208)"
         id="path14"
         style="fill:url(#paint4_linear_2844_4208)" />
      <path
         d="m 1024.76,44.8543 c -1.61,2.5818 -3.09,5.7454 -4.14,7.2727 l -1.24,-2.1273 c 0.78,-1.4545 3.24,-5.9636 5.38,-5.1454 z"
         fill="url(#paint5_linear_2844_4208)"
         id="path15"
         style="fill:url(#paint5_linear_2844_4208)" />
      <path
         d="m 1085.45,54.3095 c -1.14,-0.0182 -2.27,0.2364 -3.29,0.7455 -1.01,0.5091 -1.91,1.2727 -2.56,2.2 -0.64,-0.9273 -1.51,-1.6728 -2.51,-2.1819 -1,-0.5091 -2.13,-0.7636 -3.25,-0.7454 -4.49,0 -7.55,3.6182 -7.55,8.9818 v 8.6727 h 3.46 v -8.6727 c 0,-3.4909 1.54,-5.5636 4.12,-5.5636 2.58,0 4.06,2.1454 4.06,5.5636 v 8.6727 h 3.27 v -8.6727 c 0,-3.4909 1.55,-5.5636 4.15,-5.5636 2.6,0 4.03,2.1454 4.03,5.5636 v 8.6727 h 3.46 v -8.6727 c 0.01,-5.3818 -2.95,-9 -7.39,-9 z"
         fill="#ffffff"
         id="path16" />
      <path
         d="m 1103.62,54.0195 c -4.98,0 -8.62,3.7819 -8.62,8.9819 0,5.2 3.62,8.9818 8.62,8.9818 5,0 8.62,-3.7818 8.62,-8.9818 0,-5.2 -3.66,-8.9819 -8.62,-8.9819 z m 0,14.5455 c -3.06,0 -5.18,-2.2727 -5.18,-5.5636 0,-3.291 2.07,-5.5637 5.18,-5.5637 3.09,0 5.14,2.2364 5.14,5.5637 0,3.3272 -2.12,5.5636 -5.14,5.5636 z"
         fill="#ffffff"
         id="path17" />
      <path
         d="m 1122.4,54.3105 c -4.53,0 -7.94,3.8546 -7.94,8.9819 v 8.6727 h 3.45 v -8.6727 c 0,-3.2182 1.85,-5.5637 4.51,-5.5637 2.65,0 4.4,2.3455 4.4,5.5637 v 8.6727 h 3.45 v -8.6727 c 0.04,-5.1091 -3.36,-8.9819 -7.87,-8.9819 z"
         fill="#ffffff"
         id="path18" />
      <path
         d="m 1141,54.0195 c -4.98,0 -8.62,3.7819 -8.62,8.9819 0,5.2 3.62,9 8.62,9 5,0 8.56,-3.7819 8.56,-8.9819 0,-5.2 -3.6,-9 -8.56,-9 z m 0,14.5455 c -3.05,0 -5.18,-2.2727 -5.18,-5.5636 0,-3.291 2.09,-5.5637 5.18,-5.5637 3.09,0 5.15,2.2364 5.15,5.5637 0,3.3272 -2.11,5.5636 -5.15,5.5636 z"
         fill="#ffffff"
         id="path19" />
      <path
         d="m 1160.51,68.5273 c -0.71,0 -1.42,-0.1273 -2.07,-0.4182 -0.66,-0.2727 -1.26,-0.6909 -1.75,-1.2 -0.49,-0.5091 -0.87,-1.1272 -1.13,-1.8 -0.25,-0.6727 -0.34,-1.3818 -0.3,-2.0909 -0.04,-0.7091 0.05,-1.4182 0.3,-2.0909 0.26,-0.6727 0.62,-1.2909 1.13,-1.8 0.49,-0.5091 1.09,-0.9273 1.75,-1.2 0.65,-0.2727 1.36,-0.4182 2.07,-0.4182 1.04,-0.0727 2.07,0.2 2.93,0.7818 0.85,0.5819 1.51,1.4364 1.82,2.4182 h 3.54 c -0.34,-1.9091 -1.38,-3.6363 -2.91,-4.8363 -1.53,-1.2 -3.43,-1.8182 -5.38,-1.7273 -1.16,-0.0182 -2.31,0.2 -3.4,0.6545 -1.07,0.4364 -2.05,1.1091 -2.85,1.9455 -0.8,0.8364 -1.44,1.8182 -1.86,2.9091 -0.42,1.0909 -0.6,2.2363 -0.54,3.4 -0.04,1.1636 0.14,2.3091 0.56,3.4 0.42,1.0727 1.04,2.0727 1.85,2.8909 0.8,0.8364 1.79,1.4909 2.86,1.9455 1.07,0.4545 2.22,0.6727 3.38,0.6727 2,0.0727 3.95,-0.5818 5.47,-1.8546 1.55,-1.2727 2.57,-3.0545 2.88,-5.0181 h -3.51 c -0.29,1.0363 -0.93,1.9454 -1.8,2.5818 -0.89,0.6 -1.95,0.9091 -3.04,0.8545 z"
         fill="#ffffff"
         id="path20" />
      <path
         d="m 1174.45,48.3457 h -3.27 v 23.4546 h 3.27 z"
         fill="#ffffff"
         id="path21" />
      <path
         d="m 1185.33,54.0195 c -4.98,0 -8.62,3.7819 -8.62,8.9819 0,5.2 3.62,8.9818 8.62,8.9818 5,0 8.56,-3.7818 8.56,-8.9818 0,-5.2 -3.6,-8.9819 -8.56,-8.9819 z m 0,14.5455 c -3.06,0 -5.18,-2.2727 -5.18,-5.5636 0,-3.291 2.07,-5.5637 5.18,-5.5637 3.09,0 5.2,2.2546 5.2,5.5637 0,3.309 -2.17,5.5636 -5.2,5.5636 z"
         fill="#ffffff"
         id="path22" />
      <path
         d="m 1208.64,63.0184 c 0,3.2182 -1.95,5.5637 -4.49,5.5637 -2.55,0 -4.6,-2.3273 -4.6,-5.5637 v -8.6727 h -3.46 v 8.6727 c 0,5.1091 3.44,8.9819 7.98,8.9819 4.57,0 7.84,-3.8728 7.84,-8.9819 v -8.6727 h -3.27 z"
         fill="#ffffff"
         id="path23" />
      <path
         d="m 1227.91,47.9824 v 7.9818 c -1.49,-1.3272 -3.42,-2.0727 -5.44,-2.0545 -4.82,0 -8.43,3.8545 -8.43,8.9818 0,5.1273 3.63,8.9818 8.63,8.9818 5,0 8.69,-3.7818 8.69,-8.9818 V 47.9824 Z m -5.26,20.5818 c -3.52,0 -5.14,-2.8727 -5.14,-5.5636 -0.06,-0.7091 0.04,-1.4182 0.27,-2.0909 0.24,-0.6727 0.6,-1.2909 1.09,-1.8182 0.49,-0.5273 1.08,-0.9454 1.73,-1.2182 0.65,-0.2909 1.36,-0.4363 2.07,-0.4363 0.71,0 1.42,0.1454 2.08,0.4363 0.65,0.2909 1.23,0.7091 1.72,1.2182 0.49,0.5273 0.86,1.1455 1.09,1.8182 0.24,0.6727 0.33,1.3818 0.28,2.0909 0,2.7636 -1.6,5.5636 -5.19,5.5636 z"
         fill="#ffffff"
         id="path24" />
    </g>
    <path
       d="m 58,51.666 v 23.3333 c 0,3.6667 3,6.6667 6.6667,6.6667 H 78 c 1.7681,0 3.4638,-0.7024 4.714,-1.9526 1.2503,-1.2503 1.9527,-2.9459 1.9527,-4.7141 V 51.666"
       stroke="#b8b8b8"
       stroke-width="6.66667"
       stroke-linecap="round"
       stroke-linejoin="round"
       id="path25" />
    <path
       d="m 71.333,51.666 v 66.667"
       stroke="#b8b8b8"
       stroke-width="6.66667"
       stroke-linecap="round"
       stroke-linejoin="round"
       id="path26" />
    <path
       d="M 118,94.9993 V 51.666 c -4.421,0 -8.66,1.756 -11.785,4.8816 -3.126,3.1256 -4.882,7.3648 -4.882,11.7851 v 20 c 0,3.6666 3,6.6666 6.667,6.6666 z m 0,0 v 23.3337"
       stroke="#b8b8b8"
       stroke-width="6.66667"
       stroke-linecap="round"
       stroke-linejoin="round"
       id="path27" />
    <path
       id="text1"
       style="font-weight:600;font-size:37.8667px;font-family:Inter;-inkscape-font-specification:'Inter Semi-Bold';text-align:start;writing-mode:lr-tb;direction:ltr;text-anchor:start;fill:#ffffff;stroke-width:6.241;stroke-linecap:round;stroke-linejoin:round"
       d="m 159.48828,145.7832 c -2.45295,0 -4.65204,0.58681 -6.59961,1.75782 -1.94757,1.171 -3.48376,2.82261 -4.60547,4.95507 -1.10937,2.13247 -1.66406,4.64102 -1.66406,7.52539 0,2.81042 0.54944,5.2816 1.64648,7.41407 1.09705,2.13246 2.61359,3.79652 4.54883,4.99218 1.94757,1.19567 4.19123,1.79297 6.73047,1.79297 2.32969,0 4.39371,-0.48715 6.19336,-1.46093 1.81198,-0.98612 3.23607,-2.34071 4.27149,-4.06641 1.04774,-1.7257 1.57031,-3.70447 1.57031,-5.93555 v -3.32812 h -11.22266 v 3.86328 h 6.41602 c -0.0144,1.28069 -0.32945,2.40972 -0.94336,3.38476 -0.61632,0.98612 -1.46081,1.76307 -2.5332,2.33008 -1.06008,0.55469 -2.27435,0.83203 -3.64258,0.83203 -1.65174,0 -3.08633,-0.40716 -4.30664,-1.2207 -1.20799,-0.81354 -2.14493,-1.95503 -2.81055,-3.42187 -0.66563,-1.46685 -0.99805,-3.19124 -0.99805,-5.17579 0,-1.99687 0.32522,-3.72847 0.97852,-5.19531 0.66562,-1.47917 1.60256,-2.62591 2.81054,-3.43945 1.20799,-0.81354 2.63928,-1.2207 4.29102,-1.2207 0.8875,0 1.70707,0.12261 2.45898,0.36914 0.75192,0.24652 1.42201,0.59861 2.01368,1.05468 0.59166,0.45608 1.08602,1.00552 1.48047,1.64649 0.39444,0.62864 0.67704,1.33611 0.84961,2.125 h 4.9746 c -0.19722,-1.42986 -0.64175,-2.72413 -1.33203,-3.88281 -0.67795,-1.17101 -1.54735,-2.18073 -2.60742,-3.03125 -1.06007,-0.85053 -2.26714,-1.50487 -3.62305,-1.96094 -1.34357,-0.46841 -2.79257,-0.70313 -4.3457,-0.70313 z m 173.81445,0.25977 c -0.78889,0 -1.44848,0.25243 -1.97851,0.75781 -0.53004,0.50538 -0.79492,1.13481 -0.79492,1.88672 0,0.75191 0.26488,1.38659 0.79492,1.9043 0.53003,0.50538 1.19488,0.75781 1.99609,0.75781 0.78889,0 1.44848,-0.25243 1.97852,-0.75781 0.53003,-0.50539 0.79492,-1.13481 0.79492,-1.88672 0,-0.76424 -0.26489,-1.39892 -0.79492,-1.9043 -0.53004,-0.50538 -1.19488,-0.75781 -1.9961,-0.75781 z m -283.957027,0.18555 v 27.54882 h 4.808594 v -14.05273 c 0,-0.60399 -0.0072,-1.299 -0.01953,-2.08789 -0.01233,-0.80122 -0.03003,-1.64045 -0.05469,-2.51563 -0.02465,-0.8875 -0.04957,-1.78181 -0.07422,-2.68164 -7.68e-4,-0.0569 -0.0011,-0.11338 -0.002,-0.16992 0.04393,0.13658 0.08693,0.27503 0.13086,0.41211 0.30816,0.94913 0.605164,1.86641 0.888672,2.75391 0.283507,0.87517 0.548393,1.68229 0.794921,2.42187 0.258855,0.72726 0.473915,1.34948 0.646485,1.86719 l 5.287109,14.05273 h 3.994141 l 5.251953,-14.05273 c 0.172569,-0.51771 0.375173,-1.13993 0.609375,-1.86719 0.246528,-0.73958 0.511415,-1.5467 0.794922,-2.42187 0.283507,-0.8875 0.573307,-1.80478 0.86914,-2.75391 0.07848,-0.25505 0.157851,-0.51035 0.236328,-0.76367 -0.0043,0.17246 -0.0089,0.34582 -0.01367,0.52148 -0.01233,0.89983 -0.03724,1.79414 -0.07422,2.68164 -0.02465,0.87518 -0.04431,1.71441 -0.05664,2.51563 -0.01233,0.78889 -0.01758,1.4839 -0.01758,2.08789 v 14.05273 h 4.806641 v -27.54882 h -7.0625 l -5.269532,14.47656 c -0.172569,0.53003 -0.382378,1.17192 -0.628906,1.92383 -0.234201,0.75191 -0.479427,1.53936 -0.738281,2.36523 -0.237431,0.75752 -0.459696,1.47914 -0.666016,2.16406 -0.206319,-0.68492 -0.428584,-1.40654 -0.666015,-2.16406 -0.258855,-0.82587 -0.511285,-1.61332 -0.757813,-2.36523 -0.234201,-0.75191 -0.44401,-1.3938 -0.628906,-1.92383 l -5.361328,-14.47656 z m 160.970707,0 v 27.54882 h 4.58593 v -2.97656 h 0.0371 c 0.40677,0.75191 0.90638,1.37938 1.49805,1.88477 0.60399,0.49305 1.27409,0.86284 2.01367,1.10937 0.75191,0.24653 1.55378,0.3711 2.4043,0.3711 1.70104,0 3.18741,-0.42487 4.45703,-1.2754 1.26962,-0.85052 2.24917,-2.03988 2.93945,-3.56835 0.70261,-1.52848 1.05274,-3.30465 1.05274,-5.32618 0,-1.99687 -0.35013,-3.75863 -1.05274,-5.28711 -0.7026,-1.52847 -1.68936,-2.71783 -2.95898,-3.56836 -1.25729,-0.85052 -2.72925,-1.27734 -4.41797,-1.27734 -0.8382,0 -1.6276,0.11736 -2.36719,0.35156 -0.72726,0.22188 -1.38685,0.56676 -1.97851,1.03516 -0.59167,0.4684 -1.09653,1.06046 -1.51563,1.77539 h -0.0371 v -10.79687 z m 31.00781,0 v 27.54882 h 4.88086 v -13.84961 c 0,-0.49305 -0.007,-1.1756 -0.0195,-2.05078 0,-0.87517 -0.0177,-1.8993 -0.0547,-3.07031 -0.0153,-0.4834 -0.0331,-0.9848 -0.0547,-1.50391 0.36248,0.63282 0.71276,1.24634 1.05274,1.83789 0.62864,1.0724 1.19053,2.01984 1.68359,2.84571 0.49306,0.81354 0.88776,1.46788 1.18359,1.96094 l 8.72657,13.83007 h 5.28711 v -27.54882 h -4.89844 v 15.01367 c 0,0.50538 0.005,1.2253 0.0176,2.16211 0.0247,0.9368 0.0496,1.91636 0.0742,2.93945 0.004,0.11344 0.008,0.22545 0.0117,0.33594 -0.21381,-0.38175 -0.43229,-0.7711 -0.6582,-1.16797 -0.45608,-0.81354 -0.88815,-1.56558 -1.29492,-2.25586 -0.39445,-0.69028 -0.72687,-1.24497 -0.99805,-1.66406 l -9.66992,-15.36328 z m 126.36914,0 v 27.54882 h 2.34766 2.5332 4.41797 c 2.82274,0 5.23359,-0.55468 7.23047,-1.66406 2.0092,-1.1217 3.55065,-2.71102 4.62304,-4.76953 1.08473,-2.07084 1.62696,-4.53151 1.62696,-7.37891 0,-2.82274 -0.53698,-5.2618 -1.60938,-7.32031 -1.0724,-2.05851 -2.60139,-3.64258 -4.58594,-4.75195 -1.98455,-1.10938 -4.34361,-1.66406 -7.08007,-1.66406 h -4.62305 -2.66211 z m -57.26367,2.69921 v 5.32422 h -3.40039 v 3.75391 h 3.40039 v 10.85352 c 0,1.66406 0.47469,2.90325 1.42383,3.71679 0.94913,0.80122 2.42304,1.20117 4.41992,1.20117 h 1.53515 1.27539 v -3.7539 h -0.94336 -1.05468 c -0.75191,0 -1.26923,-0.13507 -1.55274,-0.40625 -0.2835,-0.27118 -0.42578,-0.75113 -0.42578,-1.44141 v -10.16992 h 3.97656 v -3.75391 h -3.97656 v -5.32422 z m 62.14453,1.47852 h 4.30859 c 1.94757,0 3.5546,0.377 4.82422,1.12891 1.28195,0.75191 2.23854,1.84162 2.86719,3.27148 0.64097,1.41754 0.96094,3.13667 0.96094,5.1582 0,2.04619 -0.31997,3.79024 -0.96094,5.23243 -0.62865,1.42986 -1.59575,2.52152 -2.90234,3.27343 -1.3066,0.75191 -2.95295,1.12891 -4.9375,1.12891 h -4.16016 z m -281.330079,3.40234 c -1.910592,0 -3.594313,0.43208 -5.048829,1.29493 -1.442188,0.86284 -2.56927,2.06466 -3.382812,3.60546 -0.801216,1.52848 -1.201172,3.30269 -1.201172,5.32422 0,2.02153 0.399956,3.79575 1.201172,5.32422 0.813542,1.52848 1.940624,2.72504 3.382812,3.58789 1.454516,0.85052 3.138237,1.27539 5.048829,1.27539 1.922918,0 3.604686,-0.42487 5.046875,-1.27539 1.442188,-0.86285 2.564018,-2.05941 3.365234,-3.58789 0.81354,-1.52847 1.2207,-3.30269 1.2207,-5.32422 0,-2.02153 -0.40716,-3.79574 -1.2207,-5.32422 -0.801216,-1.5408 -1.923046,-2.74262 -3.365234,-3.60546 -1.442189,-0.86285 -3.123957,-1.29493 -5.046875,-1.29493 z m 43.265629,0 c -1.9106,0 -3.59432,0.43208 -5.04883,1.29493 -1.44219,0.86284 -2.56927,2.06466 -3.38282,3.60546 -0.80121,1.52848 -1.20117,3.30269 -1.20117,5.32422 0,2.02153 0.39996,3.79575 1.20117,5.32422 0.81355,1.52848 1.94063,2.72504 3.38282,3.58789 1.45451,0.85052 3.13823,1.27539 5.04883,1.27539 1.92291,0 3.60468,-0.42487 5.04687,-1.27539 1.44219,-0.86285 2.56402,-2.05941 3.36524,-3.58789 0.81354,-1.52847 1.2207,-3.30269 1.2207,-5.32422 0,-2.02153 -0.40716,-3.79574 -1.2207,-5.32422 -0.80122,-1.5408 -1.92305,-2.74262 -3.36524,-3.60546 -1.44219,-0.86285 -3.12396,-1.29493 -5.04687,-1.29493 z m 142.29492,0 c -1.82431,0 -3.43854,0.43733 -4.84375,1.3125 -1.40521,0.87518 -2.50933,2.0842 -3.31055,3.625 -0.78889,1.5408 -1.18164,3.30256 -1.18164,5.28711 0,1.97223 0.38225,3.72873 1.14648,5.26953 0.77657,1.52848 1.87874,2.7303 3.3086,3.60547 1.42986,0.87518 3.11883,1.3125 5.0664,1.3125 1.52848,0 2.92045,-0.27014 4.17774,-0.8125 1.25729,-0.55468 2.29913,-1.31918 3.125,-2.29297 0.83819,-0.97378 1.38042,-2.09561 1.62695,-3.36523 h -4.36328 c -0.17257,0.55469 -0.46237,1.04184 -0.86914,1.46094 -0.40677,0.4191 -0.91163,0.74431 -1.51562,0.97851 -0.604,0.2342 -1.29375,0.35157 -2.07032,0.35157 -1.07239,0 -1.99162,-0.23277 -2.75586,-0.70118 -0.75191,-0.4684 -1.3243,-1.12799 -1.71875,-1.97851 -0.35495,-0.76538 -0.5504,-1.64198 -0.58593,-2.62695 h 14.11914 v -1.2754 c 0,-1.49149 -0.22032,-2.85329 -0.66407,-4.08593 -0.44375,-1.24497 -1.07842,-2.31697 -1.90429,-3.2168 -0.82587,-0.91215 -1.81263,-1.61437 -2.95899,-2.10742 -1.14635,-0.49306 -2.42291,-0.74024 -3.82812,-0.74024 z m 125.5,0 c -1.82431,0 -3.43854,0.43733 -4.84375,1.3125 -1.40521,0.87518 -2.50738,2.0842 -3.3086,3.625 -0.78889,1.5408 -1.18359,3.30256 -1.18359,5.28711 0,1.97223 0.38225,3.72873 1.14648,5.26953 0.77657,1.52848 1.87874,2.7303 3.3086,3.60547 1.42986,0.87518 3.11883,1.3125 5.0664,1.3125 1.52848,0 2.92045,-0.27014 4.17774,-0.8125 1.25729,-0.55468 2.29913,-1.31918 3.125,-2.29297 0.83819,-0.97378 1.38042,-2.09561 1.62695,-3.36523 h -4.36328 c -0.17257,0.55469 -0.46237,1.04184 -0.86914,1.46094 -0.40677,0.4191 -0.91163,0.74431 -1.51562,0.97851 -0.604,0.2342 -1.29375,0.35157 -2.07032,0.35157 -1.07239,0 -1.99162,-0.23277 -2.75586,-0.70118 -0.75191,-0.4684 -1.3243,-1.12799 -1.71875,-1.97851 -0.35495,-0.76538 -0.5504,-1.64198 -0.58593,-2.62695 h 14.11914 v -1.2754 c 0,-1.49149 -0.22032,-2.85329 -0.66407,-4.08593 -0.44375,-1.24497 -1.07842,-2.31697 -1.90429,-3.2168 -0.82587,-0.91215 -1.81263,-1.61437 -2.95899,-2.10742 -1.14635,-0.49306 -2.42291,-0.74024 -3.82812,-0.74024 z m 54.13867,0 c -1.91059,0 -3.59431,0.43208 -5.04883,1.29493 -1.44219,0.86284 -2.56927,2.06466 -3.38281,3.60546 -0.80122,1.52848 -1.20117,3.30269 -1.20117,5.32422 0,2.02153 0.39995,3.79575 1.20117,5.32422 0.81354,1.52848 1.94062,2.72504 3.38281,3.58789 1.45452,0.85052 3.13824,1.27539 5.04883,1.27539 1.92292,0 3.60469,-0.42487 5.04687,-1.27539 1.44219,-0.86285 2.56402,-2.05941 3.36524,-3.58789 0.81354,-1.52847 1.2207,-3.30269 1.2207,-5.32422 0,-2.02153 -0.40716,-3.79574 -1.2207,-5.32422 -0.80122,-1.5408 -1.92305,-2.74262 -3.36524,-3.60546 -1.44218,-0.86285 -3.12395,-1.29493 -5.04687,-1.29493 z m -109.27344,0.0176 c -1.5901,0 -2.97682,0.25439 -4.16015,0.75977 -1.17101,0.50538 -2.08303,1.20759 -2.73633,2.10742 -0.64098,0.89983 -0.96289,1.94692 -0.96289,3.14258 0,1.46684 0.4819,2.67586 1.44336,3.625 0.96146,0.94913 2.37834,1.61922 4.25195,2.01367 l 3.32812,0.68555 c 0.82587,0.17257 1.47301,0.43745 1.94141,0.79492 0.48073,0.35746 0.7207,0.83216 0.7207,1.42383 0,0.69027 -0.32521,1.25742 -0.97851,1.70117 -0.64097,0.44375 -1.52283,0.66406 -2.64453,0.66406 -1.15868,0 -2.07791,-0.25768 -2.75586,-0.77539 -0.66563,-0.53004 -1.04788,-1.26962 -1.14649,-2.21875 h -4.60351 c 0.0986,1.39288 0.53068,2.57504 1.29492,3.54883 0.76424,0.96146 1.77396,1.69579 3.03125,2.20117 1.25729,0.49306 2.67613,0.74023 4.25391,0.74023 1.61475,0 3.04409,-0.25243 4.28906,-0.75781 1.24496,-0.50538 2.21927,-1.222 2.92187,-2.14648 0.71493,-0.93681 1.07227,-2.03898 1.07227,-3.3086 0,-1.42986 -0.46224,-2.58185 -1.38672,-3.45703 -0.91215,-0.87517 -2.33624,-1.51705 -4.27148,-1.92383 l -3.51368,-0.7207 c -0.81354,-0.18489 -1.44822,-0.45699 -1.90429,-0.81445 -0.45608,-0.36979 -0.6836,-0.84449 -0.6836,-1.42383 0,-0.66563 0.29505,-1.22556 0.88672,-1.68164 0.59167,-0.45608 1.39879,-0.68359 2.42188,-0.68359 1.06007,0 1.91701,0.28259 2.57031,0.84961 0.66562,0.56701 1.00525,1.28888 1.01758,2.16406 H 355.25 c -0.037,-1.34358 -0.40152,-2.49753 -1.0918,-3.45899 -0.67795,-0.97378 -1.62013,-1.72387 -2.82812,-2.2539 -1.19566,-0.53004 -2.58238,-0.79688 -4.16016,-0.79688 z m -232.5,0.0371 c -1.68871,0 -3.1056,0.45699 -4.25195,1.36914 -0.66667,0.53624 -1.24627,1.21705 -1.73828,2.04297 v -3.02344 h -4.58594 v 19.52539 h 4.66016 v -11.03906 c 0,-1.1217 0.18489,-2.03372 0.55468,-2.73633 0.38212,-0.7026 0.89223,-1.21992 1.53321,-1.55273 0.64097,-0.33281 1.3681,-0.49805 2.18164,-0.49805 1.25729,0 2.22634,0.36979 2.90429,1.10938 0.69028,0.73958 1.03516,1.82404 1.03516,3.2539 v 11.46289 h 4.67773 v -12.20312 c 0,-1.67639 -0.29505,-3.08802 -0.88671,-4.23438 -0.59167,-1.14635 -1.4132,-2.00855 -2.46094,-2.58789 -1.04775,-0.59166 -2.25482,-0.88867 -3.62305,-0.88867 z m 310.54492,0 c -0.91215,0 -1.78155,0.17244 -2.60742,0.51758 -0.81354,0.33281 -1.53541,0.84488 -2.16406,1.53516 -0.43396,0.48603 -0.80375,1.05769 -1.10938,1.71484 v -3.37891 h -4.51171 v 19.52539 h 4.66015 v -11.64843 c 0,-0.93681 0.17769,-1.72622 0.53516,-2.36719 0.35746,-0.64097 0.83216,-1.12092 1.42383,-1.44141 0.60399,-0.33281 1.25112,-0.5 1.9414,-0.5 1.03542,0 1.88711,0.32192 2.55274,0.96289 0.66562,0.64098 0.99804,1.49071 0.99804,2.55078 v 12.44336 h 4.5293 v -11.98046 c 0,-0.78889 0.15473,-1.4806 0.46289,-2.07227 0.32049,-0.59167 0.76502,-1.05391 1.33203,-1.38672 0.57934,-0.34514 1.25664,-0.51758 2.03321,-0.51758 0.99843,0 1.84817,0.30226 2.55078,0.90625 0.71493,0.604 1.07226,1.54814 1.07226,2.83008 v 12.2207 h 4.67774 v -12.88672 c 0,-1.52847 -0.2898,-2.81749 -0.86914,-3.86523 -0.57934,-1.04774 -1.36155,-1.83715 -2.34766,-2.36719 -0.98611,-0.53003 -2.09549,-0.79492 -3.32812,-0.79492 -1.0724,0 -2.05721,0.19735 -2.95704,0.5918 -0.89982,0.38212 -1.66432,0.92435 -2.29296,1.62695 -0.39162,0.43861 -0.7117,0.92582 -0.95899,1.45899 -0.34105,-0.94539 -0.92054,-1.7401 -1.74023,-2.38282 -1.08473,-0.86284 -2.379,-1.29492 -3.88282,-1.29492 z m -240.7832,0.20508 c -1.25729,0 -2.27422,0.28785 -3.05078,0.86719 -0.76424,0.57934 -1.32613,1.43103 -1.68359,2.55273 h -0.0547 v -3.23633 h -4.49219 v 19.52539 h 4.6582 V 162.7207 c 0,-1.02309 0.17244,-1.87283 0.51758,-2.55078 0.35747,-0.67795 0.83216,-1.18476 1.42383,-1.51758 0.60399,-0.34514 1.27079,-0.51757 1.99805,-0.51757 0.4684,0 0.91098,0.0197 1.33007,0.0566 0.4191,0.037 0.7089,0.0671 0.86915,0.0918 v -4.14258 c -0.1849,-0.0247 -0.40717,-0.0424 -0.66602,-0.0547 -0.24653,-0.0123 -0.52912,-0.0176 -0.84961,-0.0176 z m 4.19727,0.18359 v 12.20313 c 0,1.66406 0.29505,3.07569 0.88671,4.23437 0.59167,1.14636 1.41125,2.01576 2.45899,2.60743 1.04774,0.57934 2.24956,0.86914 3.60547,0.86914 1.70104,0 3.11988,-0.45699 4.2539,-1.36914 0.67535,-0.54464 1.2602,-1.22966 1.75586,-2.05665 v 3.03711 h 4.58594 v -19.52539 h -4.67773 v 11.03907 c 0,1.10937 -0.1849,2.02139 -0.55469,2.73632 -0.36979,0.70261 -0.87661,1.21993 -1.51758,1.55274 -0.64097,0.33281 -1.37335,0.5 -2.19922,0.5 -1.23264,0 -2.20169,-0.36979 -2.90429,-1.10938 -0.69028,-0.73958 -1.03516,-1.82404 -1.03516,-3.2539 v -11.46485 z m 98.375,0 6.62109,9.56836 -7.08398,9.95703 h 5.19726 l 2.36524,-3.47656 c 0.5177,-0.78889 1.00486,-1.55338 1.46093,-2.29297 0.21416,-0.33814 0.42975,-0.67685 0.64649,-1.01758 0.2111,0.34073 0.42038,0.67944 0.6289,1.01758 0.46841,0.73959 0.95031,1.50408 1.44336,2.29297 l 2.33008,3.47656 h 5.21289 l -6.99219,-10.04101 6.67774,-9.48438 h -5.1211 l -2.07031,3.10743 c -0.51771,0.81354 -1.01206,1.60099 -1.48047,2.36523 -0.19055,0.3109 -0.38163,0.62261 -0.57422,0.93555 -0.19054,-0.31294 -0.38171,-0.62465 -0.57226,-0.93555 -0.4684,-0.76424 -0.9536,-1.55169 -1.45898,-2.36523 l -2.03516,-3.10743 z m 43.96875,0 v 20.9668 c 0,0.87517 -0.16719,1.50985 -0.5,1.9043 -0.33282,0.39444 -0.87505,0.59179 -1.62696,0.59179 h -1.18359 v 3.79102 h 1.9043 c 1.33125,0 2.44783,-0.23472 3.34765,-0.70313 0.89983,-0.4684 1.57713,-1.13324 2.03321,-1.99609 0.4684,-0.85052 0.70312,-1.86219 0.70312,-3.0332 v -21.52149 z m -54.09375,3.25391 c 0.99843,0 1.85538,0.22226 2.57031,0.66602 0.72726,0.43142 1.28719,1.04839 1.68164,1.8496 0.2964,0.58382 0.48598,1.24866 0.56641,1.9961 h -9.61915 c 0.078,-0.74744 0.26142,-1.41228 0.54883,-1.9961 0.39445,-0.80121 0.95439,-1.41818 1.68164,-1.8496 0.72726,-0.44376 1.5842,-0.66602 2.57032,-0.66602 z m 125.5,0 c 0.99843,0 1.85538,0.22226 2.57031,0.66602 0.72726,0.43142 1.28915,1.04839 1.68359,1.8496 0.2964,0.58382 0.48403,1.24866 0.56446,1.9961 h -9.61915 c 0.078,-0.74744 0.26142,-1.41228 0.54883,-1.9961 0.39445,-0.80121 0.95439,-1.41818 1.68164,-1.8496 0.72726,-0.44376 1.5842,-0.66602 2.57032,-0.66602 z m -311.134769,0.20312 c 0.998438,0 1.860633,0.25964 2.58789,0.77735 0.739584,0.50538 1.306727,1.23251 1.701172,2.18164 0.406771,0.93681 0.609375,2.05863 0.609375,3.36523 0,1.29428 -0.202604,2.4161 -0.609375,3.36524 -0.394445,0.9368 -0.961588,1.65868 -1.701172,2.16406 -0.727257,0.50538 -1.589452,0.75781 -2.58789,0.75781 -0.998439,0 -1.867838,-0.25243 -2.607422,-0.75781 -0.739584,-0.50538 -1.311979,-1.22726 -1.71875,-2.16406 -0.394445,-0.93681 -0.591797,-2.05864 -0.591797,-3.36524 0,-1.3066 0.197352,-2.42842 0.591797,-3.36523 0.406771,-0.94913 0.979166,-1.67626 1.71875,-2.18164 0.739584,-0.51771 1.608983,-0.77735 2.607422,-0.77735 z m 43.265629,0 c 0.99843,0 1.86063,0.25964 2.58789,0.77735 0.73958,0.50538 1.30672,1.23251 1.70117,2.18164 0.40677,0.93681 0.60937,2.05863 0.60937,3.36523 0,1.29428 -0.2026,2.4161 -0.60937,3.36524 -0.39445,0.9368 -0.96159,1.65868 -1.70117,2.16406 -0.72726,0.50538 -1.58946,0.75781 -2.58789,0.75781 -0.99844,0 -1.86784,-0.25243 -2.60743,-0.75781 -0.73958,-0.50538 -1.31198,-1.22726 -1.71875,-2.16406 -0.39444,-0.93681 -0.59179,-2.05864 -0.59179,-3.36524 0,-1.3066 0.19735,-2.42842 0.59179,-3.36523 0.40677,-0.94913 0.97917,-1.67626 1.71875,-2.18164 0.73959,-0.51771 1.60899,-0.77735 2.60743,-0.77735 z m 321.93359,0 c 0.99844,0 1.86063,0.25964 2.58789,0.77735 0.73958,0.50538 1.30673,1.23251 1.70117,2.18164 0.40677,0.93681 0.60938,2.05863 0.60938,3.36523 0,1.29428 -0.20261,2.4161 -0.60938,3.36524 -0.39444,0.9368 -0.96159,1.65868 -1.70117,2.16406 -0.72726,0.50538 -1.58945,0.75781 -2.58789,0.75781 -0.99844,0 -1.86784,-0.25243 -2.60742,-0.75781 -0.73959,-0.50538 -1.31198,-1.22726 -1.71875,-2.16406 -0.39445,-0.93681 -0.5918,-2.05864 -0.5918,-3.36524 0,-1.3066 0.19735,-2.42842 0.5918,-3.36523 0.40677,-0.94913 0.97916,-1.67626 1.71875,-2.18164 0.73958,-0.51771 1.60898,-0.77735 2.60742,-0.77735 z m -236.67774,0.0195 c 0.96146,0 1.79875,0.24717 2.51368,0.74023 0.72725,0.48073 1.2944,1.18819 1.70117,2.125 0.40677,0.92448 0.60937,2.05877 0.60937,3.40234 0,1.34358 -0.2026,2.48312 -0.60937,3.41993 -0.40677,0.9368 -0.97392,1.64622 -1.70117,2.12695 -0.71493,0.48073 -1.55222,0.7207 -2.51368,0.7207 -1.02309,0 -1.91215,-0.25243 -2.66406,-0.75781 -0.75191,-0.51771 -1.33676,-1.24483 -1.75586,-2.18164 -0.41909,-0.94913 -0.6289,-2.05851 -0.6289,-3.32813 0,-1.26962 0.20981,-2.37178 0.6289,-3.30859 0.4191,-0.93681 1.00395,-1.66393 1.75586,-2.18164 0.75191,-0.51771 1.64097,-0.77734 2.66406,-0.77734 z m 104.66211,10.65039 c -0.78889,0 -1.46814,0.27734 -2.03515,0.83203 -0.55469,0.55469 -0.83203,1.23198 -0.83203,2.0332 0,0.78889 0.27734,1.46619 0.83203,2.0332 0.56701,0.55469 1.24626,0.83204 2.03515,0.83204 0.80122,0 1.47852,-0.27735 2.03321,-0.83204 0.55469,-0.56701 0.83203,-1.24431 0.83203,-2.0332 0,-0.80122 -0.27734,-1.47851 -0.83203,-2.0332 -0.55469,-0.55469 -1.23199,-0.83203 -2.03321,-0.83203 z" />
  </g>
  <defs
     id="defs41">
    <filter
       id="filter0_f_2844_4208"
       x="-88.715797"
       y="-375.04901"
       width="1589.6801"
       height="975.59003"
       filterUnits="userSpaceOnUse"
       color-interpolation-filters="sRGB">
      <feFlood
         flood-opacity="0"
         result="BackgroundImageFix"
         id="feFlood28" />
      <feBlend
         mode="normal"
         in="SourceGraphic"
         in2="BackgroundImageFix"
         result="shape"
         id="feBlend28" />
      <feGaussianBlur
         stdDeviation="150"
         result="effect1_foregroundBlur_2844_4208"
         id="feGaussianBlur28" />
    </filter>
    <filter
       id="filter1_f_2844_4208"
       x="608"
       y="-57"
       width="1238"
       height="1128"
       filterUnits="userSpaceOnUse"
       color-interpolation-filters="sRGB">
      <feFlood
         flood-opacity="0"
         result="BackgroundImageFix"
         id="feFlood29" />
      <feBlend
         mode="normal"
         in="SourceGraphic"
         in2="BackgroundImageFix"
         result="shape"
         id="feBlend29" />
      <feGaussianBlur
         stdDeviation="110"
         result="effect1_foregroundBlur_2844_4208"
         id="feGaussianBlur29" />
    </filter>
    <filter
       id="filter2_f_2844_4208"
       x="-800"
       y="-800"
       width="1234"
       height="1234"
       filterUnits="userSpaceOnUse"
       color-interpolation-filters="sRGB">
      <feFlood
         flood-opacity="0"
         result="BackgroundImageFix"
         id="feFlood30" />
      <feBlend
         mode="normal"
         in="SourceGraphic"
         in2="BackgroundImageFix"
         result="shape"
         id="feBlend30" />
      <feGaussianBlur
         stdDeviation="125"
         result="effect1_foregroundBlur_2844_4208"
         id="feGaussianBlur30" />
    </filter>
    <linearGradient
       id="paint0_linear_2844_4208"
       x1="1023.23"
       y1="59.6703"
       x2="1071.37"
       y2="56.965801"
       gradientUnits="userSpaceOnUse">
      <stop
         stop-color="#0586FD"
         id="stop30" />
      <stop
         offset="0.88"
         stop-color="#111FFF"
         id="stop31" />
    </linearGradient>
    <linearGradient
       id="paint1_linear_2844_4208"
       x1="990.03101"
       y1="84.277"
       x2="1042.16"
       y2="7.1632199"
       gradientUnits="userSpaceOnUse">
      <stop
         stop-color="#0586FD"
         id="stop32" />
      <stop
         offset="0.88"
         stop-color="#111FFF"
         id="stop33" />
    </linearGradient>
    <linearGradient
       id="paint2_linear_2844_4208"
       x1="992.55701"
       y1="90.219597"
       x2="1061.97"
       y2="32.736698"
       gradientUnits="userSpaceOnUse">
      <stop
         stop-color="#0586FD"
         id="stop34" />
      <stop
         offset="0.88"
         stop-color="#111FFF"
         id="stop35" />
    </linearGradient>
    <linearGradient
       id="paint3_linear_2844_4208"
       x1="1006.62"
       y1="91.752998"
       x2="1058.09"
       y2="45.160198"
       gradientUnits="userSpaceOnUse">
      <stop
         stop-color="#0586FD"
         id="stop36" />
      <stop
         offset="0.88"
         stop-color="#111FFF"
         id="stop37" />
    </linearGradient>
    <linearGradient
       id="paint4_linear_2844_4208"
       x1="1021.11"
       y1="63.3363"
       x2="1040.6"
       y2="24.9083"
       gradientUnits="userSpaceOnUse">
      <stop
         stop-color="#0586FD"
         id="stop38" />
      <stop
         offset="0.88"
         stop-color="#111FFF"
         id="stop39" />
    </linearGradient>
    <linearGradient
       id="paint5_linear_2844_4208"
       x1="965.11102"
       y1="89.495903"
       x2="1058.67"
       y2="22.0912"
       gradientUnits="userSpaceOnUse">
      <stop
         stop-color="#0586FD"
         id="stop40" />
      <stop
         offset="0.88"
         stop-color="#111FFF"
         id="stop41" />
    </linearGradient>
    <clipPath
       id="clip0_2844_4208">
      <path
         d="M 0,20 C 0,8.9543 8.95431,0 20,0 h 1240 c 11.05,0 20,8.95431 20,20 v 185 c 0,11.046 -8.95,20 -20,20 H 20 C 8.95431,225 0,216.046 0,205 Z"
         fill="#ffffff"
         id="path41" />
    </clipPath>
    <clipPath
       id="clip1_2844_4208">
      <rect
         width="236.364"
         height="40"
         fill="#ffffff"
         transform="translate(995,40)"
         id="rect41"
         x="0"
         y="0" />
    </clipPath>
  </defs>
</svg>
